%TF.GenerationSoftware,KiCad,Pcbnew,7.0.11+dfsg-1build4*%
%TF.CreationDate,2026-02-13T16:56:01+01:00*%
%TF.ProjectId,chicken_coop,63686963-6b65-46e5-9f63-6f6f702e6b69,rev?*%
%TF.SameCoordinates,Original*%
%TF.FileFunction,Legend,Top*%
%TF.FilePolarity,Positive*%
%FSLAX46Y46*%
G04 Gerber Fmt 4.6, Leading zero omitted, Abs format (unit mm)*
G04 Created by KiCad (PCBNEW 7.0.11+dfsg-1build4) date 2026-02-13 16:56:01*
%MOMM*%
%LPD*%
G01*
G04 APERTURE LIST*
%ADD10C,0.100000*%
%ADD11C,0.150000*%
%ADD12C,0.120000*%
%ADD13C,0.127000*%
G04 APERTURE END LIST*
D10*
X124684360Y-121670038D02*
X123731979Y-121670038D01*
X123731979Y-121670038D02*
X123731979Y-119670038D01*
X125351027Y-121670038D02*
X125351027Y-120336704D01*
X125351027Y-119670038D02*
X125255789Y-119765276D01*
X125255789Y-119765276D02*
X125351027Y-119860514D01*
X125351027Y-119860514D02*
X125446265Y-119765276D01*
X125446265Y-119765276D02*
X125351027Y-119670038D01*
X125351027Y-119670038D02*
X125351027Y-119860514D01*
X127065313Y-121574800D02*
X126874837Y-121670038D01*
X126874837Y-121670038D02*
X126493884Y-121670038D01*
X126493884Y-121670038D02*
X126303408Y-121574800D01*
X126303408Y-121574800D02*
X126208170Y-121384323D01*
X126208170Y-121384323D02*
X126208170Y-120622419D01*
X126208170Y-120622419D02*
X126303408Y-120431942D01*
X126303408Y-120431942D02*
X126493884Y-120336704D01*
X126493884Y-120336704D02*
X126874837Y-120336704D01*
X126874837Y-120336704D02*
X127065313Y-120431942D01*
X127065313Y-120431942D02*
X127160551Y-120622419D01*
X127160551Y-120622419D02*
X127160551Y-120812895D01*
X127160551Y-120812895D02*
X126208170Y-121003371D01*
X127827218Y-120336704D02*
X128303408Y-121670038D01*
X128303408Y-121670038D02*
X128779599Y-120336704D01*
X130303409Y-121574800D02*
X130112933Y-121670038D01*
X130112933Y-121670038D02*
X129731980Y-121670038D01*
X129731980Y-121670038D02*
X129541504Y-121574800D01*
X129541504Y-121574800D02*
X129446266Y-121384323D01*
X129446266Y-121384323D02*
X129446266Y-120622419D01*
X129446266Y-120622419D02*
X129541504Y-120431942D01*
X129541504Y-120431942D02*
X129731980Y-120336704D01*
X129731980Y-120336704D02*
X130112933Y-120336704D01*
X130112933Y-120336704D02*
X130303409Y-120431942D01*
X130303409Y-120431942D02*
X130398647Y-120622419D01*
X130398647Y-120622419D02*
X130398647Y-120812895D01*
X130398647Y-120812895D02*
X129446266Y-121003371D01*
X131255790Y-120336704D02*
X131255790Y-121670038D01*
X131255790Y-120527180D02*
X131351028Y-120431942D01*
X131351028Y-120431942D02*
X131541504Y-120336704D01*
X131541504Y-120336704D02*
X131827219Y-120336704D01*
X131827219Y-120336704D02*
X132017695Y-120431942D01*
X132017695Y-120431942D02*
X132112933Y-120622419D01*
X132112933Y-120622419D02*
X132112933Y-121670038D01*
X134589124Y-121670038D02*
X134589124Y-119670038D01*
X134589124Y-119670038D02*
X135255791Y-121098609D01*
X135255791Y-121098609D02*
X135922457Y-119670038D01*
X135922457Y-119670038D02*
X135922457Y-121670038D01*
X137636743Y-121574800D02*
X137446267Y-121670038D01*
X137446267Y-121670038D02*
X137065314Y-121670038D01*
X137065314Y-121670038D02*
X136874838Y-121574800D01*
X136874838Y-121574800D02*
X136779600Y-121384323D01*
X136779600Y-121384323D02*
X136779600Y-120622419D01*
X136779600Y-120622419D02*
X136874838Y-120431942D01*
X136874838Y-120431942D02*
X137065314Y-120336704D01*
X137065314Y-120336704D02*
X137446267Y-120336704D01*
X137446267Y-120336704D02*
X137636743Y-120431942D01*
X137636743Y-120431942D02*
X137731981Y-120622419D01*
X137731981Y-120622419D02*
X137731981Y-120812895D01*
X137731981Y-120812895D02*
X136779600Y-121003371D01*
X138589124Y-121670038D02*
X138589124Y-120336704D01*
X138589124Y-120717657D02*
X138684362Y-120527180D01*
X138684362Y-120527180D02*
X138779600Y-120431942D01*
X138779600Y-120431942D02*
X138970076Y-120336704D01*
X138970076Y-120336704D02*
X139160553Y-120336704D01*
X140684362Y-121574800D02*
X140493886Y-121670038D01*
X140493886Y-121670038D02*
X140112933Y-121670038D01*
X140112933Y-121670038D02*
X139922457Y-121574800D01*
X139922457Y-121574800D02*
X139827219Y-121479561D01*
X139827219Y-121479561D02*
X139731981Y-121289085D01*
X139731981Y-121289085D02*
X139731981Y-120717657D01*
X139731981Y-120717657D02*
X139827219Y-120527180D01*
X139827219Y-120527180D02*
X139922457Y-120431942D01*
X139922457Y-120431942D02*
X140112933Y-120336704D01*
X140112933Y-120336704D02*
X140493886Y-120336704D01*
X140493886Y-120336704D02*
X140684362Y-120431942D01*
X141541505Y-121670038D02*
X141541505Y-119670038D01*
X141731981Y-120908133D02*
X142303410Y-121670038D01*
X142303410Y-120336704D02*
X141541505Y-121098609D01*
X142970077Y-121670038D02*
X144017696Y-120336704D01*
X142970077Y-120336704D02*
X144017696Y-121670038D01*
X146208173Y-119860514D02*
X146303411Y-119765276D01*
X146303411Y-119765276D02*
X146493887Y-119670038D01*
X146493887Y-119670038D02*
X146970078Y-119670038D01*
X146970078Y-119670038D02*
X147160554Y-119765276D01*
X147160554Y-119765276D02*
X147255792Y-119860514D01*
X147255792Y-119860514D02*
X147351030Y-120050990D01*
X147351030Y-120050990D02*
X147351030Y-120241466D01*
X147351030Y-120241466D02*
X147255792Y-120527180D01*
X147255792Y-120527180D02*
X146112935Y-121670038D01*
X146112935Y-121670038D02*
X147351030Y-121670038D01*
X148589125Y-119670038D02*
X148779602Y-119670038D01*
X148779602Y-119670038D02*
X148970078Y-119765276D01*
X148970078Y-119765276D02*
X149065316Y-119860514D01*
X149065316Y-119860514D02*
X149160554Y-120050990D01*
X149160554Y-120050990D02*
X149255792Y-120431942D01*
X149255792Y-120431942D02*
X149255792Y-120908133D01*
X149255792Y-120908133D02*
X149160554Y-121289085D01*
X149160554Y-121289085D02*
X149065316Y-121479561D01*
X149065316Y-121479561D02*
X148970078Y-121574800D01*
X148970078Y-121574800D02*
X148779602Y-121670038D01*
X148779602Y-121670038D02*
X148589125Y-121670038D01*
X148589125Y-121670038D02*
X148398649Y-121574800D01*
X148398649Y-121574800D02*
X148303411Y-121479561D01*
X148303411Y-121479561D02*
X148208173Y-121289085D01*
X148208173Y-121289085D02*
X148112935Y-120908133D01*
X148112935Y-120908133D02*
X148112935Y-120431942D01*
X148112935Y-120431942D02*
X148208173Y-120050990D01*
X148208173Y-120050990D02*
X148303411Y-119860514D01*
X148303411Y-119860514D02*
X148398649Y-119765276D01*
X148398649Y-119765276D02*
X148589125Y-119670038D01*
X150017697Y-119860514D02*
X150112935Y-119765276D01*
X150112935Y-119765276D02*
X150303411Y-119670038D01*
X150303411Y-119670038D02*
X150779602Y-119670038D01*
X150779602Y-119670038D02*
X150970078Y-119765276D01*
X150970078Y-119765276D02*
X151065316Y-119860514D01*
X151065316Y-119860514D02*
X151160554Y-120050990D01*
X151160554Y-120050990D02*
X151160554Y-120241466D01*
X151160554Y-120241466D02*
X151065316Y-120527180D01*
X151065316Y-120527180D02*
X149922459Y-121670038D01*
X149922459Y-121670038D02*
X151160554Y-121670038D01*
X152874840Y-119670038D02*
X152493887Y-119670038D01*
X152493887Y-119670038D02*
X152303411Y-119765276D01*
X152303411Y-119765276D02*
X152208173Y-119860514D01*
X152208173Y-119860514D02*
X152017697Y-120146228D01*
X152017697Y-120146228D02*
X151922459Y-120527180D01*
X151922459Y-120527180D02*
X151922459Y-121289085D01*
X151922459Y-121289085D02*
X152017697Y-121479561D01*
X152017697Y-121479561D02*
X152112935Y-121574800D01*
X152112935Y-121574800D02*
X152303411Y-121670038D01*
X152303411Y-121670038D02*
X152684364Y-121670038D01*
X152684364Y-121670038D02*
X152874840Y-121574800D01*
X152874840Y-121574800D02*
X152970078Y-121479561D01*
X152970078Y-121479561D02*
X153065316Y-121289085D01*
X153065316Y-121289085D02*
X153065316Y-120812895D01*
X153065316Y-120812895D02*
X152970078Y-120622419D01*
X152970078Y-120622419D02*
X152874840Y-120527180D01*
X152874840Y-120527180D02*
X152684364Y-120431942D01*
X152684364Y-120431942D02*
X152303411Y-120431942D01*
X152303411Y-120431942D02*
X152112935Y-120527180D01*
X152112935Y-120527180D02*
X152017697Y-120622419D01*
X152017697Y-120622419D02*
X151922459Y-120812895D01*
X153922459Y-120908133D02*
X155446269Y-120908133D01*
X156779601Y-119670038D02*
X156970078Y-119670038D01*
X156970078Y-119670038D02*
X157160554Y-119765276D01*
X157160554Y-119765276D02*
X157255792Y-119860514D01*
X157255792Y-119860514D02*
X157351030Y-120050990D01*
X157351030Y-120050990D02*
X157446268Y-120431942D01*
X157446268Y-120431942D02*
X157446268Y-120908133D01*
X157446268Y-120908133D02*
X157351030Y-121289085D01*
X157351030Y-121289085D02*
X157255792Y-121479561D01*
X157255792Y-121479561D02*
X157160554Y-121574800D01*
X157160554Y-121574800D02*
X156970078Y-121670038D01*
X156970078Y-121670038D02*
X156779601Y-121670038D01*
X156779601Y-121670038D02*
X156589125Y-121574800D01*
X156589125Y-121574800D02*
X156493887Y-121479561D01*
X156493887Y-121479561D02*
X156398649Y-121289085D01*
X156398649Y-121289085D02*
X156303411Y-120908133D01*
X156303411Y-120908133D02*
X156303411Y-120431942D01*
X156303411Y-120431942D02*
X156398649Y-120050990D01*
X156398649Y-120050990D02*
X156493887Y-119860514D01*
X156493887Y-119860514D02*
X156589125Y-119765276D01*
X156589125Y-119765276D02*
X156779601Y-119670038D01*
X158208173Y-119860514D02*
X158303411Y-119765276D01*
X158303411Y-119765276D02*
X158493887Y-119670038D01*
X158493887Y-119670038D02*
X158970078Y-119670038D01*
X158970078Y-119670038D02*
X159160554Y-119765276D01*
X159160554Y-119765276D02*
X159255792Y-119860514D01*
X159255792Y-119860514D02*
X159351030Y-120050990D01*
X159351030Y-120050990D02*
X159351030Y-120241466D01*
X159351030Y-120241466D02*
X159255792Y-120527180D01*
X159255792Y-120527180D02*
X158112935Y-121670038D01*
X158112935Y-121670038D02*
X159351030Y-121670038D01*
X160208173Y-120908133D02*
X161731983Y-120908133D01*
X163731982Y-121670038D02*
X162589125Y-121670038D01*
X163160553Y-121670038D02*
X163160553Y-119670038D01*
X163160553Y-119670038D02*
X162970077Y-119955752D01*
X162970077Y-119955752D02*
X162779601Y-120146228D01*
X162779601Y-120146228D02*
X162589125Y-120241466D01*
X164398649Y-119670038D02*
X165636744Y-119670038D01*
X165636744Y-119670038D02*
X164970077Y-120431942D01*
X164970077Y-120431942D02*
X165255792Y-120431942D01*
X165255792Y-120431942D02*
X165446268Y-120527180D01*
X165446268Y-120527180D02*
X165541506Y-120622419D01*
X165541506Y-120622419D02*
X165636744Y-120812895D01*
X165636744Y-120812895D02*
X165636744Y-121289085D01*
X165636744Y-121289085D02*
X165541506Y-121479561D01*
X165541506Y-121479561D02*
X165446268Y-121574800D01*
X165446268Y-121574800D02*
X165255792Y-121670038D01*
X165255792Y-121670038D02*
X164684363Y-121670038D01*
X164684363Y-121670038D02*
X164493887Y-121574800D01*
X164493887Y-121574800D02*
X164398649Y-121479561D01*
X170684364Y-121479561D02*
X170589126Y-121574800D01*
X170589126Y-121574800D02*
X170303412Y-121670038D01*
X170303412Y-121670038D02*
X170112936Y-121670038D01*
X170112936Y-121670038D02*
X169827221Y-121574800D01*
X169827221Y-121574800D02*
X169636745Y-121384323D01*
X169636745Y-121384323D02*
X169541507Y-121193847D01*
X169541507Y-121193847D02*
X169446269Y-120812895D01*
X169446269Y-120812895D02*
X169446269Y-120527180D01*
X169446269Y-120527180D02*
X169541507Y-120146228D01*
X169541507Y-120146228D02*
X169636745Y-119955752D01*
X169636745Y-119955752D02*
X169827221Y-119765276D01*
X169827221Y-119765276D02*
X170112936Y-119670038D01*
X170112936Y-119670038D02*
X170303412Y-119670038D01*
X170303412Y-119670038D02*
X170589126Y-119765276D01*
X170589126Y-119765276D02*
X170684364Y-119860514D01*
X171541507Y-121670038D02*
X171541507Y-119670038D01*
X172398650Y-121670038D02*
X172398650Y-120622419D01*
X172398650Y-120622419D02*
X172303412Y-120431942D01*
X172303412Y-120431942D02*
X172112936Y-120336704D01*
X172112936Y-120336704D02*
X171827221Y-120336704D01*
X171827221Y-120336704D02*
X171636745Y-120431942D01*
X171636745Y-120431942D02*
X171541507Y-120527180D01*
X173351031Y-121670038D02*
X173351031Y-120336704D01*
X173351031Y-119670038D02*
X173255793Y-119765276D01*
X173255793Y-119765276D02*
X173351031Y-119860514D01*
X173351031Y-119860514D02*
X173446269Y-119765276D01*
X173446269Y-119765276D02*
X173351031Y-119670038D01*
X173351031Y-119670038D02*
X173351031Y-119860514D01*
X175160555Y-121574800D02*
X174970079Y-121670038D01*
X174970079Y-121670038D02*
X174589126Y-121670038D01*
X174589126Y-121670038D02*
X174398650Y-121574800D01*
X174398650Y-121574800D02*
X174303412Y-121479561D01*
X174303412Y-121479561D02*
X174208174Y-121289085D01*
X174208174Y-121289085D02*
X174208174Y-120717657D01*
X174208174Y-120717657D02*
X174303412Y-120527180D01*
X174303412Y-120527180D02*
X174398650Y-120431942D01*
X174398650Y-120431942D02*
X174589126Y-120336704D01*
X174589126Y-120336704D02*
X174970079Y-120336704D01*
X174970079Y-120336704D02*
X175160555Y-120431942D01*
X176017698Y-121670038D02*
X176017698Y-119670038D01*
X176208174Y-120908133D02*
X176779603Y-121670038D01*
X176779603Y-120336704D02*
X176017698Y-121098609D01*
X178398651Y-121574800D02*
X178208175Y-121670038D01*
X178208175Y-121670038D02*
X177827222Y-121670038D01*
X177827222Y-121670038D02*
X177636746Y-121574800D01*
X177636746Y-121574800D02*
X177541508Y-121384323D01*
X177541508Y-121384323D02*
X177541508Y-120622419D01*
X177541508Y-120622419D02*
X177636746Y-120431942D01*
X177636746Y-120431942D02*
X177827222Y-120336704D01*
X177827222Y-120336704D02*
X178208175Y-120336704D01*
X178208175Y-120336704D02*
X178398651Y-120431942D01*
X178398651Y-120431942D02*
X178493889Y-120622419D01*
X178493889Y-120622419D02*
X178493889Y-120812895D01*
X178493889Y-120812895D02*
X177541508Y-121003371D01*
X179351032Y-120336704D02*
X179351032Y-121670038D01*
X179351032Y-120527180D02*
X179446270Y-120431942D01*
X179446270Y-120431942D02*
X179636746Y-120336704D01*
X179636746Y-120336704D02*
X179922461Y-120336704D01*
X179922461Y-120336704D02*
X180112937Y-120431942D01*
X180112937Y-120431942D02*
X180208175Y-120622419D01*
X180208175Y-120622419D02*
X180208175Y-121670038D01*
X183541509Y-121574800D02*
X183351033Y-121670038D01*
X183351033Y-121670038D02*
X182970080Y-121670038D01*
X182970080Y-121670038D02*
X182779604Y-121574800D01*
X182779604Y-121574800D02*
X182684366Y-121479561D01*
X182684366Y-121479561D02*
X182589128Y-121289085D01*
X182589128Y-121289085D02*
X182589128Y-120717657D01*
X182589128Y-120717657D02*
X182684366Y-120527180D01*
X182684366Y-120527180D02*
X182779604Y-120431942D01*
X182779604Y-120431942D02*
X182970080Y-120336704D01*
X182970080Y-120336704D02*
X183351033Y-120336704D01*
X183351033Y-120336704D02*
X183541509Y-120431942D01*
X184684366Y-121670038D02*
X184493890Y-121574800D01*
X184493890Y-121574800D02*
X184398652Y-121479561D01*
X184398652Y-121479561D02*
X184303414Y-121289085D01*
X184303414Y-121289085D02*
X184303414Y-120717657D01*
X184303414Y-120717657D02*
X184398652Y-120527180D01*
X184398652Y-120527180D02*
X184493890Y-120431942D01*
X184493890Y-120431942D02*
X184684366Y-120336704D01*
X184684366Y-120336704D02*
X184970081Y-120336704D01*
X184970081Y-120336704D02*
X185160557Y-120431942D01*
X185160557Y-120431942D02*
X185255795Y-120527180D01*
X185255795Y-120527180D02*
X185351033Y-120717657D01*
X185351033Y-120717657D02*
X185351033Y-121289085D01*
X185351033Y-121289085D02*
X185255795Y-121479561D01*
X185255795Y-121479561D02*
X185160557Y-121574800D01*
X185160557Y-121574800D02*
X184970081Y-121670038D01*
X184970081Y-121670038D02*
X184684366Y-121670038D01*
X186493890Y-121670038D02*
X186303414Y-121574800D01*
X186303414Y-121574800D02*
X186208176Y-121479561D01*
X186208176Y-121479561D02*
X186112938Y-121289085D01*
X186112938Y-121289085D02*
X186112938Y-120717657D01*
X186112938Y-120717657D02*
X186208176Y-120527180D01*
X186208176Y-120527180D02*
X186303414Y-120431942D01*
X186303414Y-120431942D02*
X186493890Y-120336704D01*
X186493890Y-120336704D02*
X186779605Y-120336704D01*
X186779605Y-120336704D02*
X186970081Y-120431942D01*
X186970081Y-120431942D02*
X187065319Y-120527180D01*
X187065319Y-120527180D02*
X187160557Y-120717657D01*
X187160557Y-120717657D02*
X187160557Y-121289085D01*
X187160557Y-121289085D02*
X187065319Y-121479561D01*
X187065319Y-121479561D02*
X186970081Y-121574800D01*
X186970081Y-121574800D02*
X186779605Y-121670038D01*
X186779605Y-121670038D02*
X186493890Y-121670038D01*
X188017700Y-120336704D02*
X188017700Y-122336704D01*
X188017700Y-120431942D02*
X188208176Y-120336704D01*
X188208176Y-120336704D02*
X188589129Y-120336704D01*
X188589129Y-120336704D02*
X188779605Y-120431942D01*
X188779605Y-120431942D02*
X188874843Y-120527180D01*
X188874843Y-120527180D02*
X188970081Y-120717657D01*
X188970081Y-120717657D02*
X188970081Y-121289085D01*
X188970081Y-121289085D02*
X188874843Y-121479561D01*
X188874843Y-121479561D02*
X188779605Y-121574800D01*
X188779605Y-121574800D02*
X188589129Y-121670038D01*
X188589129Y-121670038D02*
X188208176Y-121670038D01*
X188208176Y-121670038D02*
X188017700Y-121574800D01*
D11*
X196516666Y-85604819D02*
X196516666Y-86319104D01*
X196516666Y-86319104D02*
X196469047Y-86461961D01*
X196469047Y-86461961D02*
X196373809Y-86557200D01*
X196373809Y-86557200D02*
X196230952Y-86604819D01*
X196230952Y-86604819D02*
X196135714Y-86604819D01*
X197421428Y-85938152D02*
X197421428Y-86604819D01*
X197183333Y-85557200D02*
X196945238Y-86271485D01*
X196945238Y-86271485D02*
X197564285Y-86271485D01*
X150319580Y-87664343D02*
X150367200Y-87711962D01*
X150367200Y-87711962D02*
X150414819Y-87854819D01*
X150414819Y-87854819D02*
X150414819Y-87950057D01*
X150414819Y-87950057D02*
X150367200Y-88092914D01*
X150367200Y-88092914D02*
X150271961Y-88188152D01*
X150271961Y-88188152D02*
X150176723Y-88235771D01*
X150176723Y-88235771D02*
X149986247Y-88283390D01*
X149986247Y-88283390D02*
X149843390Y-88283390D01*
X149843390Y-88283390D02*
X149652914Y-88235771D01*
X149652914Y-88235771D02*
X149557676Y-88188152D01*
X149557676Y-88188152D02*
X149462438Y-88092914D01*
X149462438Y-88092914D02*
X149414819Y-87950057D01*
X149414819Y-87950057D02*
X149414819Y-87854819D01*
X149414819Y-87854819D02*
X149462438Y-87711962D01*
X149462438Y-87711962D02*
X149510057Y-87664343D01*
X150414819Y-86711962D02*
X150414819Y-87283390D01*
X150414819Y-86997676D02*
X149414819Y-86997676D01*
X149414819Y-86997676D02*
X149557676Y-87092914D01*
X149557676Y-87092914D02*
X149652914Y-87188152D01*
X149652914Y-87188152D02*
X149700533Y-87283390D01*
X131913333Y-75214819D02*
X131580000Y-74738628D01*
X131341905Y-75214819D02*
X131341905Y-74214819D01*
X131341905Y-74214819D02*
X131722857Y-74214819D01*
X131722857Y-74214819D02*
X131818095Y-74262438D01*
X131818095Y-74262438D02*
X131865714Y-74310057D01*
X131865714Y-74310057D02*
X131913333Y-74405295D01*
X131913333Y-74405295D02*
X131913333Y-74548152D01*
X131913333Y-74548152D02*
X131865714Y-74643390D01*
X131865714Y-74643390D02*
X131818095Y-74691009D01*
X131818095Y-74691009D02*
X131722857Y-74738628D01*
X131722857Y-74738628D02*
X131341905Y-74738628D01*
X132294286Y-74310057D02*
X132341905Y-74262438D01*
X132341905Y-74262438D02*
X132437143Y-74214819D01*
X132437143Y-74214819D02*
X132675238Y-74214819D01*
X132675238Y-74214819D02*
X132770476Y-74262438D01*
X132770476Y-74262438D02*
X132818095Y-74310057D01*
X132818095Y-74310057D02*
X132865714Y-74405295D01*
X132865714Y-74405295D02*
X132865714Y-74500533D01*
X132865714Y-74500533D02*
X132818095Y-74643390D01*
X132818095Y-74643390D02*
X132246667Y-75214819D01*
X132246667Y-75214819D02*
X132865714Y-75214819D01*
X144613333Y-75214819D02*
X144280000Y-74738628D01*
X144041905Y-75214819D02*
X144041905Y-74214819D01*
X144041905Y-74214819D02*
X144422857Y-74214819D01*
X144422857Y-74214819D02*
X144518095Y-74262438D01*
X144518095Y-74262438D02*
X144565714Y-74310057D01*
X144565714Y-74310057D02*
X144613333Y-74405295D01*
X144613333Y-74405295D02*
X144613333Y-74548152D01*
X144613333Y-74548152D02*
X144565714Y-74643390D01*
X144565714Y-74643390D02*
X144518095Y-74691009D01*
X144518095Y-74691009D02*
X144422857Y-74738628D01*
X144422857Y-74738628D02*
X144041905Y-74738628D01*
X145565714Y-75214819D02*
X144994286Y-75214819D01*
X145280000Y-75214819D02*
X145280000Y-74214819D01*
X145280000Y-74214819D02*
X145184762Y-74357676D01*
X145184762Y-74357676D02*
X145089524Y-74452914D01*
X145089524Y-74452914D02*
X144994286Y-74500533D01*
X156043333Y-70249580D02*
X155995714Y-70297200D01*
X155995714Y-70297200D02*
X155852857Y-70344819D01*
X155852857Y-70344819D02*
X155757619Y-70344819D01*
X155757619Y-70344819D02*
X155614762Y-70297200D01*
X155614762Y-70297200D02*
X155519524Y-70201961D01*
X155519524Y-70201961D02*
X155471905Y-70106723D01*
X155471905Y-70106723D02*
X155424286Y-69916247D01*
X155424286Y-69916247D02*
X155424286Y-69773390D01*
X155424286Y-69773390D02*
X155471905Y-69582914D01*
X155471905Y-69582914D02*
X155519524Y-69487676D01*
X155519524Y-69487676D02*
X155614762Y-69392438D01*
X155614762Y-69392438D02*
X155757619Y-69344819D01*
X155757619Y-69344819D02*
X155852857Y-69344819D01*
X155852857Y-69344819D02*
X155995714Y-69392438D01*
X155995714Y-69392438D02*
X156043333Y-69440057D01*
X156424286Y-69440057D02*
X156471905Y-69392438D01*
X156471905Y-69392438D02*
X156567143Y-69344819D01*
X156567143Y-69344819D02*
X156805238Y-69344819D01*
X156805238Y-69344819D02*
X156900476Y-69392438D01*
X156900476Y-69392438D02*
X156948095Y-69440057D01*
X156948095Y-69440057D02*
X156995714Y-69535295D01*
X156995714Y-69535295D02*
X156995714Y-69630533D01*
X156995714Y-69630533D02*
X156948095Y-69773390D01*
X156948095Y-69773390D02*
X156376667Y-70344819D01*
X156376667Y-70344819D02*
X156995714Y-70344819D01*
X155876666Y-74594819D02*
X155876666Y-75309104D01*
X155876666Y-75309104D02*
X155829047Y-75451961D01*
X155829047Y-75451961D02*
X155733809Y-75547200D01*
X155733809Y-75547200D02*
X155590952Y-75594819D01*
X155590952Y-75594819D02*
X155495714Y-75594819D01*
X156257619Y-74594819D02*
X156876666Y-74594819D01*
X156876666Y-74594819D02*
X156543333Y-74975771D01*
X156543333Y-74975771D02*
X156686190Y-74975771D01*
X156686190Y-74975771D02*
X156781428Y-75023390D01*
X156781428Y-75023390D02*
X156829047Y-75071009D01*
X156829047Y-75071009D02*
X156876666Y-75166247D01*
X156876666Y-75166247D02*
X156876666Y-75404342D01*
X156876666Y-75404342D02*
X156829047Y-75499580D01*
X156829047Y-75499580D02*
X156781428Y-75547200D01*
X156781428Y-75547200D02*
X156686190Y-75594819D01*
X156686190Y-75594819D02*
X156400476Y-75594819D01*
X156400476Y-75594819D02*
X156305238Y-75547200D01*
X156305238Y-75547200D02*
X156257619Y-75499580D01*
X196516666Y-89834819D02*
X196516666Y-90549104D01*
X196516666Y-90549104D02*
X196469047Y-90691961D01*
X196469047Y-90691961D02*
X196373809Y-90787200D01*
X196373809Y-90787200D02*
X196230952Y-90834819D01*
X196230952Y-90834819D02*
X196135714Y-90834819D01*
X196945238Y-89930057D02*
X196992857Y-89882438D01*
X196992857Y-89882438D02*
X197088095Y-89834819D01*
X197088095Y-89834819D02*
X197326190Y-89834819D01*
X197326190Y-89834819D02*
X197421428Y-89882438D01*
X197421428Y-89882438D02*
X197469047Y-89930057D01*
X197469047Y-89930057D02*
X197516666Y-90025295D01*
X197516666Y-90025295D02*
X197516666Y-90120533D01*
X197516666Y-90120533D02*
X197469047Y-90263390D01*
X197469047Y-90263390D02*
X196897619Y-90834819D01*
X196897619Y-90834819D02*
X197516666Y-90834819D01*
X115506666Y-115634819D02*
X115173333Y-115158628D01*
X114935238Y-115634819D02*
X114935238Y-114634819D01*
X114935238Y-114634819D02*
X115316190Y-114634819D01*
X115316190Y-114634819D02*
X115411428Y-114682438D01*
X115411428Y-114682438D02*
X115459047Y-114730057D01*
X115459047Y-114730057D02*
X115506666Y-114825295D01*
X115506666Y-114825295D02*
X115506666Y-114968152D01*
X115506666Y-114968152D02*
X115459047Y-115063390D01*
X115459047Y-115063390D02*
X115411428Y-115111009D01*
X115411428Y-115111009D02*
X115316190Y-115158628D01*
X115316190Y-115158628D02*
X114935238Y-115158628D01*
X115935238Y-115111009D02*
X116268571Y-115111009D01*
X116411428Y-115634819D02*
X115935238Y-115634819D01*
X115935238Y-115634819D02*
X115935238Y-114634819D01*
X115935238Y-114634819D02*
X116411428Y-114634819D01*
X117173333Y-115111009D02*
X116840000Y-115111009D01*
X116840000Y-115634819D02*
X116840000Y-114634819D01*
X116840000Y-114634819D02*
X117316190Y-114634819D01*
X117840000Y-114634819D02*
X117840000Y-114872914D01*
X117601905Y-114777676D02*
X117840000Y-114872914D01*
X117840000Y-114872914D02*
X118078095Y-114777676D01*
X117697143Y-115063390D02*
X117840000Y-114872914D01*
X117840000Y-114872914D02*
X117982857Y-115063390D01*
X118601905Y-114634819D02*
X118601905Y-114872914D01*
X118363810Y-114777676D02*
X118601905Y-114872914D01*
X118601905Y-114872914D02*
X118840000Y-114777676D01*
X118459048Y-115063390D02*
X118601905Y-114872914D01*
X118601905Y-114872914D02*
X118744762Y-115063390D01*
X194246666Y-115634819D02*
X193913333Y-115158628D01*
X193675238Y-115634819D02*
X193675238Y-114634819D01*
X193675238Y-114634819D02*
X194056190Y-114634819D01*
X194056190Y-114634819D02*
X194151428Y-114682438D01*
X194151428Y-114682438D02*
X194199047Y-114730057D01*
X194199047Y-114730057D02*
X194246666Y-114825295D01*
X194246666Y-114825295D02*
X194246666Y-114968152D01*
X194246666Y-114968152D02*
X194199047Y-115063390D01*
X194199047Y-115063390D02*
X194151428Y-115111009D01*
X194151428Y-115111009D02*
X194056190Y-115158628D01*
X194056190Y-115158628D02*
X193675238Y-115158628D01*
X194675238Y-115111009D02*
X195008571Y-115111009D01*
X195151428Y-115634819D02*
X194675238Y-115634819D01*
X194675238Y-115634819D02*
X194675238Y-114634819D01*
X194675238Y-114634819D02*
X195151428Y-114634819D01*
X195913333Y-115111009D02*
X195580000Y-115111009D01*
X195580000Y-115634819D02*
X195580000Y-114634819D01*
X195580000Y-114634819D02*
X196056190Y-114634819D01*
X196580000Y-114634819D02*
X196580000Y-114872914D01*
X196341905Y-114777676D02*
X196580000Y-114872914D01*
X196580000Y-114872914D02*
X196818095Y-114777676D01*
X196437143Y-115063390D02*
X196580000Y-114872914D01*
X196580000Y-114872914D02*
X196722857Y-115063390D01*
X197341905Y-114634819D02*
X197341905Y-114872914D01*
X197103810Y-114777676D02*
X197341905Y-114872914D01*
X197341905Y-114872914D02*
X197580000Y-114777676D01*
X197199048Y-115063390D02*
X197341905Y-114872914D01*
X197341905Y-114872914D02*
X197484762Y-115063390D01*
X194246666Y-69914819D02*
X193913333Y-69438628D01*
X193675238Y-69914819D02*
X193675238Y-68914819D01*
X193675238Y-68914819D02*
X194056190Y-68914819D01*
X194056190Y-68914819D02*
X194151428Y-68962438D01*
X194151428Y-68962438D02*
X194199047Y-69010057D01*
X194199047Y-69010057D02*
X194246666Y-69105295D01*
X194246666Y-69105295D02*
X194246666Y-69248152D01*
X194246666Y-69248152D02*
X194199047Y-69343390D01*
X194199047Y-69343390D02*
X194151428Y-69391009D01*
X194151428Y-69391009D02*
X194056190Y-69438628D01*
X194056190Y-69438628D02*
X193675238Y-69438628D01*
X194675238Y-69391009D02*
X195008571Y-69391009D01*
X195151428Y-69914819D02*
X194675238Y-69914819D01*
X194675238Y-69914819D02*
X194675238Y-68914819D01*
X194675238Y-68914819D02*
X195151428Y-68914819D01*
X195913333Y-69391009D02*
X195580000Y-69391009D01*
X195580000Y-69914819D02*
X195580000Y-68914819D01*
X195580000Y-68914819D02*
X196056190Y-68914819D01*
X196580000Y-68914819D02*
X196580000Y-69152914D01*
X196341905Y-69057676D02*
X196580000Y-69152914D01*
X196580000Y-69152914D02*
X196818095Y-69057676D01*
X196437143Y-69343390D02*
X196580000Y-69152914D01*
X196580000Y-69152914D02*
X196722857Y-69343390D01*
X197341905Y-68914819D02*
X197341905Y-69152914D01*
X197103810Y-69057676D02*
X197341905Y-69152914D01*
X197341905Y-69152914D02*
X197580000Y-69057676D01*
X197199048Y-69343390D02*
X197341905Y-69152914D01*
X197341905Y-69152914D02*
X197484762Y-69343390D01*
X115506666Y-69914819D02*
X115173333Y-69438628D01*
X114935238Y-69914819D02*
X114935238Y-68914819D01*
X114935238Y-68914819D02*
X115316190Y-68914819D01*
X115316190Y-68914819D02*
X115411428Y-68962438D01*
X115411428Y-68962438D02*
X115459047Y-69010057D01*
X115459047Y-69010057D02*
X115506666Y-69105295D01*
X115506666Y-69105295D02*
X115506666Y-69248152D01*
X115506666Y-69248152D02*
X115459047Y-69343390D01*
X115459047Y-69343390D02*
X115411428Y-69391009D01*
X115411428Y-69391009D02*
X115316190Y-69438628D01*
X115316190Y-69438628D02*
X114935238Y-69438628D01*
X115935238Y-69391009D02*
X116268571Y-69391009D01*
X116411428Y-69914819D02*
X115935238Y-69914819D01*
X115935238Y-69914819D02*
X115935238Y-68914819D01*
X115935238Y-68914819D02*
X116411428Y-68914819D01*
X117173333Y-69391009D02*
X116840000Y-69391009D01*
X116840000Y-69914819D02*
X116840000Y-68914819D01*
X116840000Y-68914819D02*
X117316190Y-68914819D01*
X117840000Y-68914819D02*
X117840000Y-69152914D01*
X117601905Y-69057676D02*
X117840000Y-69152914D01*
X117840000Y-69152914D02*
X118078095Y-69057676D01*
X117697143Y-69343390D02*
X117840000Y-69152914D01*
X117840000Y-69152914D02*
X117982857Y-69343390D01*
X118601905Y-68914819D02*
X118601905Y-69152914D01*
X118363810Y-69057676D02*
X118601905Y-69152914D01*
X118601905Y-69152914D02*
X118840000Y-69057676D01*
X118459048Y-69343390D02*
X118601905Y-69152914D01*
X118601905Y-69152914D02*
X118744762Y-69343390D01*
D10*
X140969904Y-114080580D02*
X140969904Y-113271057D01*
X140969904Y-113271057D02*
X140922285Y-113175819D01*
X140922285Y-113175819D02*
X140874666Y-113128200D01*
X140874666Y-113128200D02*
X140779428Y-113080580D01*
X140779428Y-113080580D02*
X140588952Y-113080580D01*
X140588952Y-113080580D02*
X140493714Y-113128200D01*
X140493714Y-113128200D02*
X140446095Y-113175819D01*
X140446095Y-113175819D02*
X140398476Y-113271057D01*
X140398476Y-113271057D02*
X140398476Y-114080580D01*
X140017523Y-114080580D02*
X139398476Y-114080580D01*
X139398476Y-114080580D02*
X139731809Y-113699628D01*
X139731809Y-113699628D02*
X139588952Y-113699628D01*
X139588952Y-113699628D02*
X139493714Y-113652009D01*
X139493714Y-113652009D02*
X139446095Y-113604390D01*
X139446095Y-113604390D02*
X139398476Y-113509152D01*
X139398476Y-113509152D02*
X139398476Y-113271057D01*
X139398476Y-113271057D02*
X139446095Y-113175819D01*
X139446095Y-113175819D02*
X139493714Y-113128200D01*
X139493714Y-113128200D02*
X139588952Y-113080580D01*
X139588952Y-113080580D02*
X139874666Y-113080580D01*
X139874666Y-113080580D02*
X139969904Y-113128200D01*
X139969904Y-113128200D02*
X140017523Y-113175819D01*
D11*
X167513095Y-76289819D02*
X167513095Y-77099342D01*
X167513095Y-77099342D02*
X167560714Y-77194580D01*
X167560714Y-77194580D02*
X167608333Y-77242200D01*
X167608333Y-77242200D02*
X167703571Y-77289819D01*
X167703571Y-77289819D02*
X167894047Y-77289819D01*
X167894047Y-77289819D02*
X167989285Y-77242200D01*
X167989285Y-77242200D02*
X168036904Y-77194580D01*
X168036904Y-77194580D02*
X168084523Y-77099342D01*
X168084523Y-77099342D02*
X168084523Y-76289819D01*
X169084523Y-77289819D02*
X168513095Y-77289819D01*
X168798809Y-77289819D02*
X168798809Y-76289819D01*
X168798809Y-76289819D02*
X168703571Y-76432676D01*
X168703571Y-76432676D02*
X168608333Y-76527914D01*
X168608333Y-76527914D02*
X168513095Y-76575533D01*
X171739524Y-116216953D02*
X172312858Y-116216953D01*
X172558572Y-117117905D02*
X171739524Y-117117905D01*
X171739524Y-117117905D02*
X171739524Y-115397905D01*
X171739524Y-115397905D02*
X172558572Y-115397905D01*
X173213810Y-117036001D02*
X173459524Y-117117905D01*
X173459524Y-117117905D02*
X173869048Y-117117905D01*
X173869048Y-117117905D02*
X174032857Y-117036001D01*
X174032857Y-117036001D02*
X174114762Y-116954096D01*
X174114762Y-116954096D02*
X174196667Y-116790286D01*
X174196667Y-116790286D02*
X174196667Y-116626477D01*
X174196667Y-116626477D02*
X174114762Y-116462667D01*
X174114762Y-116462667D02*
X174032857Y-116380762D01*
X174032857Y-116380762D02*
X173869048Y-116298858D01*
X173869048Y-116298858D02*
X173541429Y-116216953D01*
X173541429Y-116216953D02*
X173377619Y-116135048D01*
X173377619Y-116135048D02*
X173295714Y-116053143D01*
X173295714Y-116053143D02*
X173213810Y-115889334D01*
X173213810Y-115889334D02*
X173213810Y-115725524D01*
X173213810Y-115725524D02*
X173295714Y-115561715D01*
X173295714Y-115561715D02*
X173377619Y-115479810D01*
X173377619Y-115479810D02*
X173541429Y-115397905D01*
X173541429Y-115397905D02*
X173950952Y-115397905D01*
X173950952Y-115397905D02*
X174196667Y-115479810D01*
X174933809Y-117117905D02*
X174933809Y-115397905D01*
X174933809Y-115397905D02*
X175589047Y-115397905D01*
X175589047Y-115397905D02*
X175752857Y-115479810D01*
X175752857Y-115479810D02*
X175834762Y-115561715D01*
X175834762Y-115561715D02*
X175916666Y-115725524D01*
X175916666Y-115725524D02*
X175916666Y-115971239D01*
X175916666Y-115971239D02*
X175834762Y-116135048D01*
X175834762Y-116135048D02*
X175752857Y-116216953D01*
X175752857Y-116216953D02*
X175589047Y-116298858D01*
X175589047Y-116298858D02*
X174933809Y-116298858D01*
X176490000Y-115397905D02*
X177554762Y-115397905D01*
X177554762Y-115397905D02*
X176981428Y-116053143D01*
X176981428Y-116053143D02*
X177227143Y-116053143D01*
X177227143Y-116053143D02*
X177390952Y-116135048D01*
X177390952Y-116135048D02*
X177472857Y-116216953D01*
X177472857Y-116216953D02*
X177554762Y-116380762D01*
X177554762Y-116380762D02*
X177554762Y-116790286D01*
X177554762Y-116790286D02*
X177472857Y-116954096D01*
X177472857Y-116954096D02*
X177390952Y-117036001D01*
X177390952Y-117036001D02*
X177227143Y-117117905D01*
X177227143Y-117117905D02*
X176735714Y-117117905D01*
X176735714Y-117117905D02*
X176571905Y-117036001D01*
X176571905Y-117036001D02*
X176490000Y-116954096D01*
X178210000Y-115561715D02*
X178291904Y-115479810D01*
X178291904Y-115479810D02*
X178455714Y-115397905D01*
X178455714Y-115397905D02*
X178865238Y-115397905D01*
X178865238Y-115397905D02*
X179029047Y-115479810D01*
X179029047Y-115479810D02*
X179110952Y-115561715D01*
X179110952Y-115561715D02*
X179192857Y-115725524D01*
X179192857Y-115725524D02*
X179192857Y-115889334D01*
X179192857Y-115889334D02*
X179110952Y-116135048D01*
X179110952Y-116135048D02*
X178128095Y-117117905D01*
X178128095Y-117117905D02*
X179192857Y-117117905D01*
X179929999Y-116462667D02*
X181240476Y-116462667D01*
X183042380Y-116954096D02*
X182960476Y-117036001D01*
X182960476Y-117036001D02*
X182714761Y-117117905D01*
X182714761Y-117117905D02*
X182550952Y-117117905D01*
X182550952Y-117117905D02*
X182305238Y-117036001D01*
X182305238Y-117036001D02*
X182141428Y-116872191D01*
X182141428Y-116872191D02*
X182059523Y-116708381D01*
X182059523Y-116708381D02*
X181977619Y-116380762D01*
X181977619Y-116380762D02*
X181977619Y-116135048D01*
X181977619Y-116135048D02*
X182059523Y-115807429D01*
X182059523Y-115807429D02*
X182141428Y-115643620D01*
X182141428Y-115643620D02*
X182305238Y-115479810D01*
X182305238Y-115479810D02*
X182550952Y-115397905D01*
X182550952Y-115397905D02*
X182714761Y-115397905D01*
X182714761Y-115397905D02*
X182960476Y-115479810D01*
X182960476Y-115479810D02*
X183042380Y-115561715D01*
X183697619Y-116626477D02*
X184516666Y-116626477D01*
X183533809Y-117117905D02*
X184107142Y-115397905D01*
X184107142Y-115397905D02*
X184680476Y-117117905D01*
X185253809Y-117117905D02*
X185253809Y-115397905D01*
X185253809Y-115397905D02*
X185827143Y-116626477D01*
X185827143Y-116626477D02*
X186400476Y-115397905D01*
X186400476Y-115397905D02*
X186400476Y-117117905D01*
D10*
X130556095Y-83277419D02*
X130556095Y-84086942D01*
X130556095Y-84086942D02*
X130603714Y-84182180D01*
X130603714Y-84182180D02*
X130651333Y-84229800D01*
X130651333Y-84229800D02*
X130746571Y-84277419D01*
X130746571Y-84277419D02*
X130937047Y-84277419D01*
X130937047Y-84277419D02*
X131032285Y-84229800D01*
X131032285Y-84229800D02*
X131079904Y-84182180D01*
X131079904Y-84182180D02*
X131127523Y-84086942D01*
X131127523Y-84086942D02*
X131127523Y-83277419D01*
X131556095Y-83372657D02*
X131603714Y-83325038D01*
X131603714Y-83325038D02*
X131698952Y-83277419D01*
X131698952Y-83277419D02*
X131937047Y-83277419D01*
X131937047Y-83277419D02*
X132032285Y-83325038D01*
X132032285Y-83325038D02*
X132079904Y-83372657D01*
X132079904Y-83372657D02*
X132127523Y-83467895D01*
X132127523Y-83467895D02*
X132127523Y-83563133D01*
X132127523Y-83563133D02*
X132079904Y-83705990D01*
X132079904Y-83705990D02*
X131508476Y-84277419D01*
X131508476Y-84277419D02*
X132127523Y-84277419D01*
X131256693Y-78041038D02*
X131161455Y-77993419D01*
X131161455Y-77993419D02*
X131018598Y-77993419D01*
X131018598Y-77993419D02*
X130875741Y-78041038D01*
X130875741Y-78041038D02*
X130780503Y-78136276D01*
X130780503Y-78136276D02*
X130732884Y-78231514D01*
X130732884Y-78231514D02*
X130685265Y-78421990D01*
X130685265Y-78421990D02*
X130685265Y-78564847D01*
X130685265Y-78564847D02*
X130732884Y-78755323D01*
X130732884Y-78755323D02*
X130780503Y-78850561D01*
X130780503Y-78850561D02*
X130875741Y-78945800D01*
X130875741Y-78945800D02*
X131018598Y-78993419D01*
X131018598Y-78993419D02*
X131113836Y-78993419D01*
X131113836Y-78993419D02*
X131256693Y-78945800D01*
X131256693Y-78945800D02*
X131304312Y-78898180D01*
X131304312Y-78898180D02*
X131304312Y-78564847D01*
X131304312Y-78564847D02*
X131113836Y-78564847D01*
X131732884Y-78993419D02*
X131732884Y-77993419D01*
X131732884Y-77993419D02*
X132304312Y-78993419D01*
X132304312Y-78993419D02*
X132304312Y-77993419D01*
X132780503Y-78993419D02*
X132780503Y-77993419D01*
X132780503Y-77993419D02*
X133018598Y-77993419D01*
X133018598Y-77993419D02*
X133161455Y-78041038D01*
X133161455Y-78041038D02*
X133256693Y-78136276D01*
X133256693Y-78136276D02*
X133304312Y-78231514D01*
X133304312Y-78231514D02*
X133351931Y-78421990D01*
X133351931Y-78421990D02*
X133351931Y-78564847D01*
X133351931Y-78564847D02*
X133304312Y-78755323D01*
X133304312Y-78755323D02*
X133256693Y-78850561D01*
X133256693Y-78850561D02*
X133161455Y-78945800D01*
X133161455Y-78945800D02*
X133018598Y-78993419D01*
X133018598Y-78993419D02*
X132780503Y-78993419D01*
X134542408Y-78993419D02*
X134542408Y-78326752D01*
X134542408Y-77993419D02*
X134494789Y-78041038D01*
X134494789Y-78041038D02*
X134542408Y-78088657D01*
X134542408Y-78088657D02*
X134590027Y-78041038D01*
X134590027Y-78041038D02*
X134542408Y-77993419D01*
X134542408Y-77993419D02*
X134542408Y-78088657D01*
X135018598Y-78326752D02*
X135018598Y-78993419D01*
X135018598Y-78421990D02*
X135066217Y-78374371D01*
X135066217Y-78374371D02*
X135161455Y-78326752D01*
X135161455Y-78326752D02*
X135304312Y-78326752D01*
X135304312Y-78326752D02*
X135399550Y-78374371D01*
X135399550Y-78374371D02*
X135447169Y-78469609D01*
X135447169Y-78469609D02*
X135447169Y-78993419D01*
X130844027Y-90058419D02*
X131177360Y-91058419D01*
X131177360Y-91058419D02*
X131510693Y-90058419D01*
X132272598Y-91010800D02*
X132177360Y-91058419D01*
X132177360Y-91058419D02*
X131986884Y-91058419D01*
X131986884Y-91058419D02*
X131891646Y-91010800D01*
X131891646Y-91010800D02*
X131844027Y-90963180D01*
X131844027Y-90963180D02*
X131796408Y-90867942D01*
X131796408Y-90867942D02*
X131796408Y-90582228D01*
X131796408Y-90582228D02*
X131844027Y-90486990D01*
X131844027Y-90486990D02*
X131891646Y-90439371D01*
X131891646Y-90439371D02*
X131986884Y-90391752D01*
X131986884Y-90391752D02*
X132177360Y-90391752D01*
X132177360Y-90391752D02*
X132272598Y-90439371D01*
X133129741Y-91010800D02*
X133034503Y-91058419D01*
X133034503Y-91058419D02*
X132844027Y-91058419D01*
X132844027Y-91058419D02*
X132748789Y-91010800D01*
X132748789Y-91010800D02*
X132701170Y-90963180D01*
X132701170Y-90963180D02*
X132653551Y-90867942D01*
X132653551Y-90867942D02*
X132653551Y-90582228D01*
X132653551Y-90582228D02*
X132701170Y-90486990D01*
X132701170Y-90486990D02*
X132748789Y-90439371D01*
X132748789Y-90439371D02*
X132844027Y-90391752D01*
X132844027Y-90391752D02*
X133034503Y-90391752D01*
X133034503Y-90391752D02*
X133129741Y-90439371D01*
X134320218Y-91058419D02*
X134320218Y-90058419D01*
X134796408Y-90391752D02*
X134796408Y-91058419D01*
X134796408Y-90486990D02*
X134844027Y-90439371D01*
X134844027Y-90439371D02*
X134939265Y-90391752D01*
X134939265Y-90391752D02*
X135082122Y-90391752D01*
X135082122Y-90391752D02*
X135177360Y-90439371D01*
X135177360Y-90439371D02*
X135224979Y-90534609D01*
X135224979Y-90534609D02*
X135224979Y-91058419D01*
X140369027Y-90185419D02*
X140702360Y-91185419D01*
X140702360Y-91185419D02*
X141035693Y-90185419D01*
X141797598Y-91137800D02*
X141702360Y-91185419D01*
X141702360Y-91185419D02*
X141511884Y-91185419D01*
X141511884Y-91185419D02*
X141416646Y-91137800D01*
X141416646Y-91137800D02*
X141369027Y-91090180D01*
X141369027Y-91090180D02*
X141321408Y-90994942D01*
X141321408Y-90994942D02*
X141321408Y-90709228D01*
X141321408Y-90709228D02*
X141369027Y-90613990D01*
X141369027Y-90613990D02*
X141416646Y-90566371D01*
X141416646Y-90566371D02*
X141511884Y-90518752D01*
X141511884Y-90518752D02*
X141702360Y-90518752D01*
X141702360Y-90518752D02*
X141797598Y-90566371D01*
X142654741Y-91137800D02*
X142559503Y-91185419D01*
X142559503Y-91185419D02*
X142369027Y-91185419D01*
X142369027Y-91185419D02*
X142273789Y-91137800D01*
X142273789Y-91137800D02*
X142226170Y-91090180D01*
X142226170Y-91090180D02*
X142178551Y-90994942D01*
X142178551Y-90994942D02*
X142178551Y-90709228D01*
X142178551Y-90709228D02*
X142226170Y-90613990D01*
X142226170Y-90613990D02*
X142273789Y-90566371D01*
X142273789Y-90566371D02*
X142369027Y-90518752D01*
X142369027Y-90518752D02*
X142559503Y-90518752D01*
X142559503Y-90518752D02*
X142654741Y-90566371D01*
X144035694Y-90185419D02*
X144226170Y-90185419D01*
X144226170Y-90185419D02*
X144321408Y-90233038D01*
X144321408Y-90233038D02*
X144416646Y-90328276D01*
X144416646Y-90328276D02*
X144464265Y-90518752D01*
X144464265Y-90518752D02*
X144464265Y-90852085D01*
X144464265Y-90852085D02*
X144416646Y-91042561D01*
X144416646Y-91042561D02*
X144321408Y-91137800D01*
X144321408Y-91137800D02*
X144226170Y-91185419D01*
X144226170Y-91185419D02*
X144035694Y-91185419D01*
X144035694Y-91185419D02*
X143940456Y-91137800D01*
X143940456Y-91137800D02*
X143845218Y-91042561D01*
X143845218Y-91042561D02*
X143797599Y-90852085D01*
X143797599Y-90852085D02*
X143797599Y-90518752D01*
X143797599Y-90518752D02*
X143845218Y-90328276D01*
X143845218Y-90328276D02*
X143940456Y-90233038D01*
X143940456Y-90233038D02*
X144035694Y-90185419D01*
X145321408Y-90518752D02*
X145321408Y-91185419D01*
X144892837Y-90518752D02*
X144892837Y-91042561D01*
X144892837Y-91042561D02*
X144940456Y-91137800D01*
X144940456Y-91137800D02*
X145035694Y-91185419D01*
X145035694Y-91185419D02*
X145178551Y-91185419D01*
X145178551Y-91185419D02*
X145273789Y-91137800D01*
X145273789Y-91137800D02*
X145321408Y-91090180D01*
X145654742Y-90518752D02*
X146035694Y-90518752D01*
X145797599Y-90185419D02*
X145797599Y-91042561D01*
X145797599Y-91042561D02*
X145845218Y-91137800D01*
X145845218Y-91137800D02*
X145940456Y-91185419D01*
X145940456Y-91185419D02*
X146035694Y-91185419D01*
X142337455Y-82644752D02*
X142337455Y-83311419D01*
X142099360Y-82263800D02*
X141861265Y-82978085D01*
X141861265Y-82978085D02*
X142480312Y-82978085D01*
X143432693Y-83311419D02*
X143099360Y-82835228D01*
X142861265Y-83311419D02*
X142861265Y-82311419D01*
X142861265Y-82311419D02*
X143242217Y-82311419D01*
X143242217Y-82311419D02*
X143337455Y-82359038D01*
X143337455Y-82359038D02*
X143385074Y-82406657D01*
X143385074Y-82406657D02*
X143432693Y-82501895D01*
X143432693Y-82501895D02*
X143432693Y-82644752D01*
X143432693Y-82644752D02*
X143385074Y-82739990D01*
X143385074Y-82739990D02*
X143337455Y-82787609D01*
X143337455Y-82787609D02*
X143242217Y-82835228D01*
X143242217Y-82835228D02*
X142861265Y-82835228D01*
X143766027Y-82311419D02*
X144432693Y-82311419D01*
X144432693Y-82311419D02*
X144004122Y-83311419D01*
X141035693Y-78041038D02*
X140940455Y-77993419D01*
X140940455Y-77993419D02*
X140797598Y-77993419D01*
X140797598Y-77993419D02*
X140654741Y-78041038D01*
X140654741Y-78041038D02*
X140559503Y-78136276D01*
X140559503Y-78136276D02*
X140511884Y-78231514D01*
X140511884Y-78231514D02*
X140464265Y-78421990D01*
X140464265Y-78421990D02*
X140464265Y-78564847D01*
X140464265Y-78564847D02*
X140511884Y-78755323D01*
X140511884Y-78755323D02*
X140559503Y-78850561D01*
X140559503Y-78850561D02*
X140654741Y-78945800D01*
X140654741Y-78945800D02*
X140797598Y-78993419D01*
X140797598Y-78993419D02*
X140892836Y-78993419D01*
X140892836Y-78993419D02*
X141035693Y-78945800D01*
X141035693Y-78945800D02*
X141083312Y-78898180D01*
X141083312Y-78898180D02*
X141083312Y-78564847D01*
X141083312Y-78564847D02*
X140892836Y-78564847D01*
X141511884Y-78993419D02*
X141511884Y-77993419D01*
X141511884Y-77993419D02*
X142083312Y-78993419D01*
X142083312Y-78993419D02*
X142083312Y-77993419D01*
X142559503Y-78993419D02*
X142559503Y-77993419D01*
X142559503Y-77993419D02*
X142797598Y-77993419D01*
X142797598Y-77993419D02*
X142940455Y-78041038D01*
X142940455Y-78041038D02*
X143035693Y-78136276D01*
X143035693Y-78136276D02*
X143083312Y-78231514D01*
X143083312Y-78231514D02*
X143130931Y-78421990D01*
X143130931Y-78421990D02*
X143130931Y-78564847D01*
X143130931Y-78564847D02*
X143083312Y-78755323D01*
X143083312Y-78755323D02*
X143035693Y-78850561D01*
X143035693Y-78850561D02*
X142940455Y-78945800D01*
X142940455Y-78945800D02*
X142797598Y-78993419D01*
X142797598Y-78993419D02*
X142559503Y-78993419D01*
X144464265Y-78993419D02*
X144369027Y-78945800D01*
X144369027Y-78945800D02*
X144321408Y-78898180D01*
X144321408Y-78898180D02*
X144273789Y-78802942D01*
X144273789Y-78802942D02*
X144273789Y-78517228D01*
X144273789Y-78517228D02*
X144321408Y-78421990D01*
X144321408Y-78421990D02*
X144369027Y-78374371D01*
X144369027Y-78374371D02*
X144464265Y-78326752D01*
X144464265Y-78326752D02*
X144607122Y-78326752D01*
X144607122Y-78326752D02*
X144702360Y-78374371D01*
X144702360Y-78374371D02*
X144749979Y-78421990D01*
X144749979Y-78421990D02*
X144797598Y-78517228D01*
X144797598Y-78517228D02*
X144797598Y-78802942D01*
X144797598Y-78802942D02*
X144749979Y-78898180D01*
X144749979Y-78898180D02*
X144702360Y-78945800D01*
X144702360Y-78945800D02*
X144607122Y-78993419D01*
X144607122Y-78993419D02*
X144464265Y-78993419D01*
X145654741Y-78326752D02*
X145654741Y-78993419D01*
X145226170Y-78326752D02*
X145226170Y-78850561D01*
X145226170Y-78850561D02*
X145273789Y-78945800D01*
X145273789Y-78945800D02*
X145369027Y-78993419D01*
X145369027Y-78993419D02*
X145511884Y-78993419D01*
X145511884Y-78993419D02*
X145607122Y-78945800D01*
X145607122Y-78945800D02*
X145654741Y-78898180D01*
X145988075Y-78326752D02*
X146369027Y-78326752D01*
X146130932Y-77993419D02*
X146130932Y-78850561D01*
X146130932Y-78850561D02*
X146178551Y-78945800D01*
X146178551Y-78945800D02*
X146273789Y-78993419D01*
X146273789Y-78993419D02*
X146369027Y-78993419D01*
D11*
X122554819Y-96973333D02*
X123269104Y-96973333D01*
X123269104Y-96973333D02*
X123411961Y-97020952D01*
X123411961Y-97020952D02*
X123507200Y-97116190D01*
X123507200Y-97116190D02*
X123554819Y-97259047D01*
X123554819Y-97259047D02*
X123554819Y-97354285D01*
X123554819Y-95973333D02*
X123554819Y-96544761D01*
X123554819Y-96259047D02*
X122554819Y-96259047D01*
X122554819Y-96259047D02*
X122697676Y-96354285D01*
X122697676Y-96354285D02*
X122792914Y-96449523D01*
X122792914Y-96449523D02*
X122840533Y-96544761D01*
D12*
%TO.C,J4*%
X198180000Y-83820000D02*
X198180000Y-85150000D01*
X198180000Y-79950000D02*
X195520000Y-79950000D01*
X198180000Y-82550000D02*
X198180000Y-79950000D01*
X198180000Y-82550000D02*
X195520000Y-82550000D01*
X198180000Y-85150000D02*
X196850000Y-85150000D01*
X195520000Y-82550000D02*
X195520000Y-79950000D01*
%TO.C,C1*%
X157451000Y-85136677D02*
X160714000Y-85136677D01*
X152732000Y-83776677D02*
X154969000Y-83776677D01*
X157451000Y-85496677D02*
X160884000Y-85496677D01*
X152221000Y-84336677D02*
X154969000Y-84336677D01*
X151442000Y-85736677D02*
X154969000Y-85736677D01*
X153921000Y-82936677D02*
X158499000Y-82936677D01*
X157451000Y-84256677D02*
X160135000Y-84256677D01*
X154700000Y-82616677D02*
X157720000Y-82616677D01*
X151148000Y-87057677D02*
X161272000Y-87057677D01*
X157451000Y-86016677D02*
X161072000Y-86016677D01*
X151348000Y-86016677D02*
X154969000Y-86016677D01*
X151303000Y-86176677D02*
X154969000Y-86176677D01*
X154173000Y-82816677D02*
X158247000Y-82816677D01*
X154364000Y-82736677D02*
X158056000Y-82736677D01*
X157451000Y-83896677D02*
X159811000Y-83896677D01*
X152044000Y-84576677D02*
X154969000Y-84576677D01*
X151140000Y-87177677D02*
X161280000Y-87177677D01*
X157451000Y-85896677D02*
X161034000Y-85896677D01*
X157451000Y-84376677D02*
X160230000Y-84376677D01*
X153004000Y-83536677D02*
X159416000Y-83536677D01*
X151989000Y-84656677D02*
X154969000Y-84656677D01*
X157451000Y-85416677D02*
X160849000Y-85416677D01*
X157451000Y-84536677D02*
X160348000Y-84536677D01*
X153771000Y-83016677D02*
X158649000Y-83016677D01*
X151360000Y-85976677D02*
X154969000Y-85976677D01*
X151607000Y-85336677D02*
X154969000Y-85336677D01*
X151130000Y-87457677D02*
X161290000Y-87457677D01*
X151589000Y-85376677D02*
X154969000Y-85376677D01*
X153335000Y-92977323D02*
X153335000Y-91977323D01*
X151536000Y-85496677D02*
X154969000Y-85496677D01*
X154980000Y-82536677D02*
X157440000Y-82536677D01*
X152016000Y-84616677D02*
X154969000Y-84616677D01*
X152818000Y-83696677D02*
X159602000Y-83696677D01*
X157451000Y-85976677D02*
X161060000Y-85976677D01*
X151487000Y-85616677D02*
X154969000Y-85616677D01*
X151213000Y-86576677D02*
X161207000Y-86576677D01*
X151245000Y-86416677D02*
X161175000Y-86416677D01*
X154832000Y-82576677D02*
X157588000Y-82576677D01*
X152690000Y-83816677D02*
X154969000Y-83816677D01*
X151685000Y-85176677D02*
X154969000Y-85176677D01*
X151180000Y-86776677D02*
X161240000Y-86776677D01*
X157451000Y-85816677D02*
X161007000Y-85816677D01*
X157451000Y-84176677D02*
X160068000Y-84176677D01*
X151263000Y-86336677D02*
X161157000Y-86336677D01*
X157451000Y-85336677D02*
X160813000Y-85336677D01*
X152421000Y-84096677D02*
X154969000Y-84096677D01*
X157451000Y-84056677D02*
X159963000Y-84056677D01*
X154468000Y-82696677D02*
X157952000Y-82696677D01*
X153440000Y-83216677D02*
X158980000Y-83216677D01*
X157451000Y-86216677D02*
X161128000Y-86216677D01*
X151220000Y-86536677D02*
X161200000Y-86536677D01*
X154085000Y-82856677D02*
X158335000Y-82856677D01*
X152190000Y-84376677D02*
X154969000Y-84376677D01*
X151456000Y-85696677D02*
X154969000Y-85696677D01*
X157451000Y-85736677D02*
X160978000Y-85736677D01*
X157451000Y-85096677D02*
X160693000Y-85096677D01*
X157451000Y-85296677D02*
X160794000Y-85296677D01*
X152531000Y-83976677D02*
X154969000Y-83976677D01*
X151170000Y-86857677D02*
X161250000Y-86857677D01*
X153501000Y-83176677D02*
X158919000Y-83176677D01*
X151937000Y-84736677D02*
X154969000Y-84736677D01*
X154580000Y-82656677D02*
X157840000Y-82656677D01*
X151152000Y-87017677D02*
X161268000Y-87017677D01*
X153210000Y-83376677D02*
X159210000Y-83376677D01*
X151373000Y-85936677D02*
X154969000Y-85936677D01*
X152253000Y-84296677D02*
X154969000Y-84296677D01*
X153565000Y-83136677D02*
X158855000Y-83136677D01*
X151887000Y-84816677D02*
X154969000Y-84816677D01*
X151272000Y-86296677D02*
X161148000Y-86296677D01*
X157451000Y-85576677D02*
X160917000Y-85576677D01*
X152072000Y-84536677D02*
X154969000Y-84536677D01*
X151130000Y-87417677D02*
X161290000Y-87417677D01*
X157451000Y-85616677D02*
X160933000Y-85616677D01*
X152774000Y-83736677D02*
X159646000Y-83736677D01*
X157451000Y-85776677D02*
X160993000Y-85776677D01*
X151228000Y-86496677D02*
X161192000Y-86496677D01*
X157451000Y-84656677D02*
X160431000Y-84656677D01*
X151199000Y-86656677D02*
X161221000Y-86656677D01*
X157451000Y-84616677D02*
X160404000Y-84616677D01*
X153321000Y-83296677D02*
X159099000Y-83296677D01*
X151793000Y-84976677D02*
X154969000Y-84976677D01*
X152649000Y-83856677D02*
X154969000Y-83856677D01*
X152318000Y-84216677D02*
X154969000Y-84216677D01*
X151131000Y-87377677D02*
X161289000Y-87377677D01*
X155148000Y-82496677D02*
X157272000Y-82496677D01*
X151186000Y-86736677D02*
X161234000Y-86736677D01*
X157451000Y-84496677D02*
X160320000Y-84496677D01*
X152160000Y-84416677D02*
X154969000Y-84416677D01*
X157451000Y-84456677D02*
X160290000Y-84456677D01*
X157451000Y-85256677D02*
X160774000Y-85256677D01*
X157451000Y-86056677D02*
X161084000Y-86056677D01*
X157451000Y-83776677D02*
X159688000Y-83776677D01*
X151192000Y-86696677D02*
X161228000Y-86696677D01*
X157451000Y-86176677D02*
X161117000Y-86176677D01*
X155611000Y-82416677D02*
X156809000Y-82416677D01*
X151770000Y-85016677D02*
X154969000Y-85016677D01*
X151503000Y-85576677D02*
X154969000Y-85576677D01*
X151963000Y-84696677D02*
X154969000Y-84696677D01*
X157451000Y-84816677D02*
X160533000Y-84816677D01*
X151646000Y-85256677D02*
X154969000Y-85256677D01*
X157451000Y-83816677D02*
X159730000Y-83816677D01*
X152100000Y-84496677D02*
X154969000Y-84496677D01*
X153156000Y-83416677D02*
X159264000Y-83416677D01*
X151727000Y-85096677D02*
X154969000Y-85096677D01*
X151815000Y-84936677D02*
X154969000Y-84936677D01*
X153845000Y-82976677D02*
X158575000Y-82976677D01*
X153265000Y-83336677D02*
X159155000Y-83336677D01*
X157451000Y-85376677D02*
X160831000Y-85376677D01*
X157451000Y-85656677D02*
X160948000Y-85656677D01*
X157451000Y-85696677D02*
X160964000Y-85696677D01*
X152457000Y-84056677D02*
X154969000Y-84056677D01*
X152570000Y-83936677D02*
X154969000Y-83936677D01*
X151839000Y-84896677D02*
X154969000Y-84896677D01*
X157451000Y-83936677D02*
X159850000Y-83936677D01*
X157451000Y-85216677D02*
X160755000Y-85216677D01*
X151282000Y-86256677D02*
X161138000Y-86256677D01*
X151626000Y-85296677D02*
X154969000Y-85296677D01*
X151132000Y-87337677D02*
X161288000Y-87337677D01*
X152835000Y-92477323D02*
X153835000Y-92477323D01*
X157451000Y-84096677D02*
X159999000Y-84096677D01*
X153631000Y-83096677D02*
X158789000Y-83096677D01*
X151292000Y-86216677D02*
X154969000Y-86216677D01*
X151135000Y-87257677D02*
X161285000Y-87257677D01*
X157451000Y-85056677D02*
X160672000Y-85056677D01*
X157451000Y-85536677D02*
X160900000Y-85536677D01*
X157451000Y-84296677D02*
X160167000Y-84296677D01*
X153104000Y-83456677D02*
X159316000Y-83456677D01*
X151145000Y-87097677D02*
X161275000Y-87097677D01*
X157451000Y-85856677D02*
X161021000Y-85856677D01*
X151863000Y-84856677D02*
X154969000Y-84856677D01*
X153700000Y-83056677D02*
X158720000Y-83056677D01*
X157451000Y-84936677D02*
X160605000Y-84936677D01*
X151137000Y-87217677D02*
X161283000Y-87217677D01*
X152386000Y-84136677D02*
X154969000Y-84136677D01*
X152909000Y-83616677D02*
X159511000Y-83616677D01*
X152956000Y-83576677D02*
X159464000Y-83576677D01*
X157451000Y-84736677D02*
X160483000Y-84736677D01*
X157451000Y-84136677D02*
X160034000Y-84136677D01*
X151665000Y-85216677D02*
X154969000Y-85216677D01*
X157451000Y-84416677D02*
X160260000Y-84416677D01*
X151236000Y-86456677D02*
X161184000Y-86456677D01*
X152285000Y-84256677D02*
X154969000Y-84256677D01*
X151386000Y-85896677D02*
X154969000Y-85896677D01*
X152863000Y-83656677D02*
X159557000Y-83656677D01*
X157451000Y-86096677D02*
X161095000Y-86096677D01*
X151472000Y-85656677D02*
X154969000Y-85656677D01*
X157451000Y-85016677D02*
X160650000Y-85016677D01*
X152352000Y-84176677D02*
X154969000Y-84176677D01*
X157451000Y-83976677D02*
X159889000Y-83976677D01*
X151553000Y-85456677D02*
X154969000Y-85456677D01*
X157451000Y-85936677D02*
X161047000Y-85936677D01*
X151427000Y-85776677D02*
X154969000Y-85776677D01*
X157451000Y-84976677D02*
X160627000Y-84976677D01*
X151156000Y-86977677D02*
X161264000Y-86977677D01*
X151254000Y-86376677D02*
X161166000Y-86376677D01*
X157451000Y-84016677D02*
X159926000Y-84016677D01*
X151133000Y-87297677D02*
X161287000Y-87297677D01*
X151336000Y-86056677D02*
X154969000Y-86056677D01*
X151206000Y-86616677D02*
X161214000Y-86616677D01*
X154001000Y-82896677D02*
X158419000Y-82896677D01*
X157451000Y-84216677D02*
X160102000Y-84216677D01*
X157451000Y-84696677D02*
X160457000Y-84696677D01*
X151399000Y-85856677D02*
X154969000Y-85856677D01*
X151706000Y-85136677D02*
X154969000Y-85136677D01*
X157451000Y-86136677D02*
X161107000Y-86136677D01*
X151175000Y-86817677D02*
X161245000Y-86817677D01*
X152494000Y-84016677D02*
X154969000Y-84016677D01*
X151912000Y-84776677D02*
X154969000Y-84776677D01*
X157451000Y-84336677D02*
X160199000Y-84336677D01*
X157451000Y-83856677D02*
X159771000Y-83856677D01*
X151571000Y-85416677D02*
X154969000Y-85416677D01*
X157451000Y-85176677D02*
X160735000Y-85176677D01*
X153054000Y-83496677D02*
X159366000Y-83496677D01*
X151160000Y-86937677D02*
X161260000Y-86937677D01*
X151142000Y-87137677D02*
X161278000Y-87137677D01*
X154266000Y-82776677D02*
X158154000Y-82776677D01*
X151413000Y-85816677D02*
X154969000Y-85816677D01*
X152609000Y-83896677D02*
X154969000Y-83896677D01*
X151313000Y-86136677D02*
X154969000Y-86136677D01*
X155348000Y-82456677D02*
X157072000Y-82456677D01*
X151325000Y-86096677D02*
X154969000Y-86096677D01*
X151520000Y-85536677D02*
X154969000Y-85536677D01*
X152130000Y-84456677D02*
X154969000Y-84456677D01*
X153380000Y-83256677D02*
X159040000Y-83256677D01*
X157451000Y-85456677D02*
X160867000Y-85456677D01*
X157451000Y-84856677D02*
X160557000Y-84856677D01*
X151748000Y-85056677D02*
X154969000Y-85056677D01*
X157451000Y-84776677D02*
X160508000Y-84776677D01*
X157451000Y-84576677D02*
X160376000Y-84576677D01*
X157451000Y-84896677D02*
X160581000Y-84896677D01*
X151130000Y-87497677D02*
X161290000Y-87497677D01*
X151165000Y-86897677D02*
X161255000Y-86897677D01*
X161330000Y-87497677D02*
G75*
G03*
X151090000Y-87497677I-5120000J0D01*
G01*
X151090000Y-87497677D02*
G75*
G03*
X161330000Y-87497677I5120000J0D01*
G01*
%TO.C,R2*%
X128810000Y-71020000D02*
X128810000Y-71350000D01*
X135350000Y-73760000D02*
X128810000Y-73760000D01*
X135350000Y-71020000D02*
X128810000Y-71020000D01*
X135350000Y-71350000D02*
X135350000Y-71020000D01*
X135350000Y-73430000D02*
X135350000Y-73760000D01*
X128810000Y-73760000D02*
X128810000Y-73430000D01*
%TO.C,R1*%
X141510000Y-71020000D02*
X141510000Y-71350000D01*
X148050000Y-73760000D02*
X141510000Y-73760000D01*
X148050000Y-71020000D02*
X141510000Y-71020000D01*
X148050000Y-71350000D02*
X148050000Y-71020000D01*
X148050000Y-73430000D02*
X148050000Y-73760000D01*
X141510000Y-73760000D02*
X141510000Y-73430000D01*
%TO.C,C2*%
X152090000Y-73760000D02*
X160330000Y-73760000D01*
X152090000Y-71020000D02*
X152090000Y-73760000D01*
X152090000Y-71020000D02*
X160330000Y-71020000D01*
X160330000Y-71020000D02*
X160330000Y-73760000D01*
%TO.C,J3*%
X154880000Y-76140000D02*
X156210000Y-76140000D01*
X154880000Y-78740000D02*
X157540000Y-78740000D01*
X154880000Y-78800000D02*
X157540000Y-78800000D01*
X157540000Y-78740000D02*
X157540000Y-78800000D01*
X154880000Y-78740000D02*
X154880000Y-78800000D01*
X154880000Y-77470000D02*
X154880000Y-76140000D01*
%TO.C,J2*%
X198180000Y-93980000D02*
X198180000Y-101660000D01*
X195520000Y-92710000D02*
X195520000Y-91380000D01*
X195520000Y-101660000D02*
X198180000Y-101660000D01*
X195520000Y-93980000D02*
X198180000Y-93980000D01*
X195520000Y-91380000D02*
X196850000Y-91380000D01*
X195520000Y-93980000D02*
X195520000Y-101660000D01*
D10*
%TO.C,U3*%
X151130000Y-97790000D02*
X127000000Y-97790000D01*
X127000000Y-97790000D02*
X127000000Y-118110000D01*
X127000000Y-118110000D02*
X151130000Y-118110000D01*
X151130000Y-118110000D02*
X151130000Y-97790000D01*
D13*
%TO.C,U1*%
X164640000Y-78550000D02*
X190960000Y-78550000D01*
X164640000Y-118550000D02*
X164640000Y-78550000D01*
X190960000Y-78550000D02*
X190960000Y-118550000D01*
X190960000Y-118550000D02*
X164640000Y-118550000D01*
D10*
%TO.C,U2*%
X127381000Y-76835000D02*
X149479000Y-76835000D01*
X127381000Y-93599000D02*
X127381000Y-76835000D01*
X137541000Y-88392000D02*
X138811000Y-89789000D01*
X138176000Y-89090500D02*
X138811000Y-88392000D01*
X138811000Y-88392000D02*
X137541000Y-89789000D01*
X138811000Y-89789000D02*
X138176000Y-89090500D01*
X149479000Y-76835000D02*
X149479000Y-93599000D01*
X149479000Y-93599000D02*
X127381000Y-93599000D01*
X140716000Y-81153000D02*
X145161000Y-81153000D01*
X145161000Y-81153000D02*
X145161000Y-84836000D01*
X145161000Y-84836000D02*
X140716000Y-84836000D01*
X140716000Y-84836000D02*
X140716000Y-81153000D01*
X139143203Y-89154000D02*
G75*
G03*
X137208797Y-89154000I-967203J0D01*
G01*
X137208797Y-89154000D02*
G75*
G03*
X139143203Y-89154000I967203J0D01*
G01*
D12*
%TO.C,J1*%
X112680000Y-86340000D02*
X111940000Y-86340000D01*
X111940000Y-86340000D02*
X111940000Y-86840000D01*
X122101000Y-86580000D02*
X112180000Y-86580000D01*
X122101000Y-86580000D02*
X122101000Y-106701000D01*
X119141000Y-86580000D02*
X119141000Y-106701000D01*
X114240000Y-86580000D02*
X114240000Y-106701000D01*
X112740000Y-86580000D02*
X112740000Y-106701000D01*
X112180000Y-86580000D02*
X112180000Y-106701000D01*
X115817000Y-92913000D02*
X115771000Y-92866000D01*
X115601000Y-93106000D02*
X115566000Y-93071000D01*
X118115000Y-95210000D02*
X118079000Y-95175000D01*
X117909000Y-95415000D02*
X117863000Y-95368000D01*
X115817000Y-97913000D02*
X115771000Y-97866000D01*
X115601000Y-98106000D02*
X115566000Y-98071000D01*
X118115000Y-100210000D02*
X118079000Y-100175000D01*
X117909000Y-100415000D02*
X117863000Y-100368000D01*
X115817000Y-102913000D02*
X115771000Y-102866000D01*
X115601000Y-103106000D02*
X115566000Y-103071000D01*
X118115000Y-105210000D02*
X118079000Y-105175000D01*
X117909000Y-105415000D02*
X117863000Y-105368000D01*
X122101000Y-106701000D02*
X112180000Y-106701000D01*
X117523999Y-87605001D02*
G75*
G03*
X116156958Y-87604574I-684000J-1534992D01*
G01*
X118374999Y-89823999D02*
G75*
G03*
X118375426Y-88456958I-1534992J684000D01*
G01*
X115305001Y-88456000D02*
G75*
G03*
X115159748Y-89168805I1535000J-683999D01*
G01*
X115160001Y-89140000D02*
G75*
G03*
X115305245Y-89823318I1679999J0D01*
G01*
X116156000Y-90675000D02*
G75*
G03*
X117523042Y-90675426I684000J1535000D01*
G01*
X118520000Y-94140000D02*
G75*
G03*
X115160000Y-94140000I-1680000J0D01*
G01*
X115160000Y-94140000D02*
G75*
G03*
X118520000Y-94140000I1680000J0D01*
G01*
X118520000Y-99140000D02*
G75*
G03*
X115160000Y-99140000I-1680000J0D01*
G01*
X115160000Y-99140000D02*
G75*
G03*
X118520000Y-99140000I1680000J0D01*
G01*
X118520000Y-104140000D02*
G75*
G03*
X115160000Y-104140000I-1680000J0D01*
G01*
X115160000Y-104140000D02*
G75*
G03*
X118520000Y-104140000I1680000J0D01*
G01*
%TD*%
M02*
