%TF.GenerationSoftware,KiCad,Pcbnew,7.0.11+dfsg-1build4*%
%TF.CreationDate,2026-02-13T16:56:01+01:00*%
%TF.ProjectId,chicken_coop,63686963-6b65-46e5-9f63-6f6f702e6b69,rev?*%
%TF.SameCoordinates,Original*%
%TF.FileFunction,Copper,L2,Bot*%
%TF.FilePolarity,Positive*%
%FSLAX46Y46*%
G04 Gerber Fmt 4.6, Leading zero omitted, Abs format (unit mm)*
G04 Created by KiCad (PCBNEW 7.0.11+dfsg-1build4) date 2026-02-13 16:56:01*
%MOMM*%
%LPD*%
G01*
G04 APERTURE LIST*
%TA.AperFunction,ComponentPad*%
%ADD10R,1.700000X1.700000*%
%TD*%
%TA.AperFunction,ComponentPad*%
%ADD11O,1.700000X1.700000*%
%TD*%
%TA.AperFunction,ComponentPad*%
%ADD12R,2.000000X2.000000*%
%TD*%
%TA.AperFunction,ComponentPad*%
%ADD13C,2.000000*%
%TD*%
%TA.AperFunction,ComponentPad*%
%ADD14C,1.600000*%
%TD*%
%TA.AperFunction,ComponentPad*%
%ADD15O,1.600000X1.600000*%
%TD*%
%TA.AperFunction,ComponentPad*%
%ADD16C,1.524000*%
%TD*%
%TA.AperFunction,ComponentPad*%
%ADD17C,3.000000*%
%TD*%
%TA.AperFunction,ComponentPad*%
%ADD18O,2.844800X1.422400*%
%TD*%
%TA.AperFunction,ComponentPad*%
%ADD19R,2.600000X2.600000*%
%TD*%
%TA.AperFunction,ComponentPad*%
%ADD20C,2.600000*%
%TD*%
%TA.AperFunction,Conductor*%
%ADD21C,1.000000*%
%TD*%
%TA.AperFunction,Conductor*%
%ADD22C,2.000000*%
%TD*%
%TA.AperFunction,Conductor*%
%ADD23C,0.200000*%
%TD*%
G04 APERTURE END LIST*
D10*
%TO.P,J4,1,Pin_1*%
%TO.N,GND*%
X196850000Y-83820000D03*
D11*
%TO.P,J4,2,Pin_2*%
%TO.N,Net-(J4-Pin_2)*%
X196850000Y-81280000D03*
%TD*%
D12*
%TO.P,C1,1*%
%TO.N,+3.3V*%
X156210000Y-89997677D03*
D13*
%TO.P,C1,2*%
%TO.N,GND*%
X156210000Y-84997677D03*
%TD*%
D14*
%TO.P,R2,1*%
%TO.N,Net-(J3-Pin_1)*%
X135890000Y-72390000D03*
D15*
%TO.P,R2,2*%
%TO.N,GND*%
X128270000Y-72390000D03*
%TD*%
D14*
%TO.P,R1,1*%
%TO.N,+12V*%
X148590000Y-72390000D03*
D15*
%TO.P,R1,2*%
%TO.N,Net-(J3-Pin_1)*%
X140970000Y-72390000D03*
%TD*%
D14*
%TO.P,C2,1*%
%TO.N,Net-(J3-Pin_1)*%
X153710000Y-72390000D03*
%TO.P,C2,2*%
%TO.N,GND*%
X158710000Y-72390000D03*
%TD*%
D10*
%TO.P,J3,1,Pin_1*%
%TO.N,Net-(J3-Pin_1)*%
X156210000Y-77470000D03*
%TD*%
%TO.P,J2,1,Pin_1*%
%TO.N,+3.3V*%
X196850000Y-92710000D03*
D11*
%TO.P,J2,2,Pin_2*%
%TO.N,GND*%
X196850000Y-95250000D03*
%TO.P,J2,3,Pin_3*%
%TO.N,RXD*%
X196850000Y-97790000D03*
%TO.P,J2,4,Pin_4*%
%TO.N,TXD*%
X196850000Y-100330000D03*
%TD*%
D16*
%TO.P,U3,1,IN2*%
%TO.N,IN2*%
X148590000Y-106680000D03*
%TO.P,U3,2,IN1*%
%TO.N,IN1*%
X148590000Y-104140000D03*
%TO.P,U3,3,VM*%
%TO.N,+12V*%
X148590000Y-109220000D03*
%TO.P,U3,4,GND*%
%TO.N,GND*%
X148590000Y-111760000D03*
D17*
%TO.P,U3,5,M1*%
%TO.N,M1*%
X130810000Y-114046000D03*
%TO.P,U3,6,M2*%
%TO.N,M2*%
X130810000Y-110490000D03*
%TO.P,U3,7,PWR_VM*%
%TO.N,+12V*%
X130810000Y-105283000D03*
%TO.P,U3,8,PWR_GND*%
%TO.N,GND*%
X130810000Y-101790000D03*
%TD*%
D18*
%TO.P,U1,P$1,5V*%
%TO.N,unconnected-(U1-5V-PadP$1)*%
X166370000Y-83820000D03*
%TO.P,U1,P$2,GND*%
%TO.N,GND*%
X166370000Y-86360000D03*
%TO.P,U1,P$3,IO12*%
%TO.N,IN1*%
X166370000Y-88900000D03*
%TO.P,U1,P$4,IO13*%
%TO.N,IN2*%
X166370000Y-91440000D03*
%TO.P,U1,P$5,IO15*%
%TO.N,unconnected-(U1-IO15-PadP$5)*%
X166370000Y-93980000D03*
%TO.P,U1,P$6,IO14*%
%TO.N,unconnected-(U1-IO14-PadP$6)*%
X166370000Y-96520000D03*
%TO.P,U1,P$7,IO2*%
%TO.N,unconnected-(U1-IO2-PadP$7)*%
X166370000Y-99060000D03*
%TO.P,U1,P$8,IO4*%
%TO.N,unconnected-(U1-IO4-PadP$8)*%
X166370000Y-101600000D03*
%TO.P,U1,P$9,.GND*%
%TO.N,GND*%
X189230000Y-101600000D03*
%TO.P,U1,P$10,IO1/U0T*%
%TO.N,TXD*%
X189230000Y-99060000D03*
%TO.P,U1,P$11,IO3/U0R*%
%TO.N,RXD*%
X189230000Y-96520000D03*
%TO.P,U1,P$12,3V3.*%
%TO.N,+3.3V*%
X189230000Y-93980000D03*
%TO.P,U1,P$13,GND.*%
%TO.N,GND*%
X189230000Y-91440000D03*
%TO.P,U1,P$14,IO0*%
%TO.N,Net-(J4-Pin_2)*%
X189230000Y-88900000D03*
%TO.P,U1,P$15,IO16*%
%TO.N,unconnected-(U1-IO16-PadP$15)*%
X189230000Y-86360000D03*
%TO.P,U1,P$16,3V3*%
%TO.N,+3.3V*%
X189230000Y-83820000D03*
%TD*%
D16*
%TO.P,U2,1,Vcc_in*%
%TO.N,+12V*%
X129159000Y-91948000D03*
%TO.P,U2,2,Vcc_in*%
X129159000Y-89408000D03*
%TO.P,U2,3,GND_in*%
%TO.N,GND*%
X129159000Y-81280000D03*
%TO.P,U2,4,GND_in*%
X129159000Y-78740000D03*
%TO.P,U2,5,GND_Out*%
X147701000Y-78740000D03*
%TO.P,U2,6,GND_out*%
X147701000Y-81280000D03*
%TO.P,U2,7,Vcc_out*%
%TO.N,+3.3V*%
X147701000Y-89408000D03*
%TO.P,U2,8,Vcc_out*%
X147701000Y-92075000D03*
%TD*%
D19*
%TO.P,J1,1,Pin_1*%
%TO.N,+12V*%
X116840000Y-89140000D03*
D20*
%TO.P,J1,2,Pin_2*%
%TO.N,GND*%
X116840000Y-94140000D03*
%TO.P,J1,3,Pin_3*%
%TO.N,M1*%
X116840000Y-99140000D03*
%TO.P,J1,4,Pin_4*%
%TO.N,M2*%
X116840000Y-104140000D03*
%TD*%
D21*
%TO.N,GND*%
X158710000Y-72390000D02*
X158710000Y-82497677D01*
X158710000Y-82497677D02*
X156210000Y-84997677D01*
%TO.N,Net-(J3-Pin_1)*%
X153710000Y-72390000D02*
X153710000Y-76240000D01*
X153710000Y-76240000D02*
X156210000Y-78740000D01*
%TO.N,GND*%
X189230000Y-101600000D02*
X193040000Y-101600000D01*
X193040000Y-101600000D02*
X193040000Y-95250000D01*
X196285000Y-95250000D02*
X193040000Y-95250000D01*
X193040000Y-95250000D02*
X193040000Y-91440000D01*
%TO.N,Net-(J4-Pin_2)*%
X193040000Y-86360000D02*
X193040000Y-81280000D01*
X189230000Y-88900000D02*
X190500000Y-88900000D01*
X190500000Y-88900000D02*
X193040000Y-86360000D01*
X193040000Y-81280000D02*
X195580000Y-81280000D01*
%TO.N,GND*%
X193040000Y-88900000D02*
X193040000Y-91440000D01*
X195580000Y-86360000D02*
X193040000Y-88900000D01*
X195580000Y-83820000D02*
X195580000Y-86360000D01*
X193040000Y-91440000D02*
X189230000Y-91440000D01*
%TO.N,IN2*%
X148590000Y-106680000D02*
X156210000Y-106680000D01*
X156210000Y-106680000D02*
X162560000Y-100330000D01*
X162560000Y-100330000D02*
X162560000Y-91440000D01*
X162560000Y-91440000D02*
X165100000Y-91440000D01*
%TO.N,IN1*%
X165100000Y-88900000D02*
X160020000Y-88900000D01*
X160020000Y-88900000D02*
X160020000Y-100330000D01*
X160020000Y-100330000D02*
X156210000Y-104140000D01*
X156210000Y-104140000D02*
X148590000Y-104140000D01*
%TO.N,+12V*%
X148590000Y-109220000D02*
X143510000Y-109220000D01*
X143510000Y-109220000D02*
X137160000Y-102870000D01*
%TO.N,GND*%
X156210000Y-84997677D02*
X157572323Y-86360000D01*
X157572323Y-86360000D02*
X165100000Y-86360000D01*
X147701000Y-84201000D02*
X148590000Y-85090000D01*
X147701000Y-81280000D02*
X147701000Y-84201000D01*
X148590000Y-85090000D02*
X148682323Y-84997677D01*
X148682323Y-84997677D02*
X156210000Y-84997677D01*
%TO.N,+3.3V*%
X147701000Y-89408000D02*
X155620323Y-89408000D01*
X155620323Y-89408000D02*
X156210000Y-89997677D01*
X147701000Y-89408000D02*
X147701000Y-92075000D01*
%TO.N,GND*%
X172720000Y-86360000D02*
X177800000Y-91440000D01*
X165100000Y-86360000D02*
X172720000Y-86360000D01*
X177800000Y-91440000D02*
X187960000Y-91440000D01*
%TO.N,Net-(J3-Pin_1)*%
X140970000Y-72390000D02*
X143510000Y-69850000D01*
X143510000Y-69850000D02*
X151170000Y-69850000D01*
X151170000Y-69850000D02*
X153710000Y-72390000D01*
%TO.N,GND*%
X147701000Y-78740000D02*
X147701000Y-81280000D01*
X129159000Y-78740000D02*
X147701000Y-78740000D01*
%TO.N,Net-(J3-Pin_1)*%
X135890000Y-72390000D02*
X140970000Y-72390000D01*
%TO.N,GND*%
X128270000Y-72390000D02*
X128270000Y-77851000D01*
X128270000Y-77851000D02*
X129159000Y-78740000D01*
D22*
%TO.N,M1*%
X118110000Y-110490000D02*
X121920000Y-114300000D01*
X113260000Y-110490000D02*
X118110000Y-110490000D01*
X114450000Y-99140000D02*
X113260000Y-100330000D01*
X113260000Y-100330000D02*
X113260000Y-110490000D01*
X116840000Y-99140000D02*
X114450000Y-99140000D01*
X122174000Y-114046000D02*
X130810000Y-114046000D01*
X121920000Y-114300000D02*
X122174000Y-114046000D01*
%TO.N,M2*%
X130810000Y-110490000D02*
X123190000Y-110490000D01*
X123190000Y-110490000D02*
X116840000Y-104140000D01*
%TO.N,GND*%
X122080000Y-94140000D02*
X127000000Y-99060000D01*
X116840000Y-94140000D02*
X122080000Y-94140000D01*
X127000000Y-99060000D02*
X128080000Y-99060000D01*
X128080000Y-99060000D02*
X130810000Y-101790000D01*
%TO.N,+12V*%
X129159000Y-91948000D02*
X136398000Y-91948000D01*
X134747000Y-105283000D02*
X130810000Y-105283000D01*
X136398000Y-91948000D02*
X137160000Y-92710000D01*
X137160000Y-92710000D02*
X137160000Y-102870000D01*
X137160000Y-102870000D02*
X134747000Y-105283000D01*
%TO.N,GND*%
X129159000Y-81280000D02*
X129159000Y-78740000D01*
X113260000Y-84860000D02*
X116840000Y-81280000D01*
X113260000Y-91440000D02*
X113260000Y-84860000D01*
X116840000Y-94140000D02*
X114140000Y-91440000D01*
X116840000Y-81280000D02*
X129159000Y-81280000D01*
X114140000Y-91440000D02*
X113260000Y-91440000D01*
%TO.N,+12V*%
X129159000Y-89408000D02*
X129159000Y-91948000D01*
X116840000Y-89140000D02*
X128891000Y-89140000D01*
X128891000Y-89140000D02*
X129159000Y-89408000D01*
D23*
X116840000Y-89140000D02*
X116840000Y-88900000D01*
%TD*%
M02*
