%TF.GenerationSoftware,KiCad,Pcbnew,7.0.11+dfsg-1build4*%
%TF.CreationDate,2026-03-07T00:39:47+01:00*%
%TF.ProjectId,chicken_coop,63686963-6b65-46e5-9f63-6f6f702e6b69,rev?*%
%TF.SameCoordinates,Original*%
%TF.FileFunction,Copper,L2,Bot*%
%TF.FilePolarity,Positive*%
%FSLAX46Y46*%
G04 Gerber Fmt 4.6, Leading zero omitted, Abs format (unit mm)*
G04 Created by KiCad (PCBNEW 7.0.11+dfsg-1build4) date 2026-03-07 00:39:47*
%MOMM*%
%LPD*%
G01*
G04 APERTURE LIST*
%ADD10C,0.300000*%
%TA.AperFunction,NonConductor*%
%ADD11C,0.300000*%
%TD*%
%TA.AperFunction,NonConductor*%
%ADD12C,0.200000*%
%TD*%
%TA.AperFunction,ComponentPad*%
%ADD13C,1.600000*%
%TD*%
%TA.AperFunction,ComponentPad*%
%ADD14O,1.600000X1.600000*%
%TD*%
%TA.AperFunction,ComponentPad*%
%ADD15R,1.800000X1.800000*%
%TD*%
%TA.AperFunction,ComponentPad*%
%ADD16C,1.800000*%
%TD*%
%TA.AperFunction,ComponentPad*%
%ADD17R,2.000000X2.000000*%
%TD*%
%TA.AperFunction,ComponentPad*%
%ADD18C,2.000000*%
%TD*%
%TA.AperFunction,ComponentPad*%
%ADD19R,1.700000X1.700000*%
%TD*%
%TA.AperFunction,ComponentPad*%
%ADD20C,1.524000*%
%TD*%
%TA.AperFunction,ComponentPad*%
%ADD21R,2.600000X2.600000*%
%TD*%
%TA.AperFunction,ComponentPad*%
%ADD22C,2.600000*%
%TD*%
%TA.AperFunction,ComponentPad*%
%ADD23O,1.700000X1.700000*%
%TD*%
%TA.AperFunction,ComponentPad*%
%ADD24C,3.000000*%
%TD*%
%TA.AperFunction,ComponentPad*%
%ADD25O,2.844800X1.422400*%
%TD*%
%TA.AperFunction,Conductor*%
%ADD26C,2.000000*%
%TD*%
%TA.AperFunction,Conductor*%
%ADD27C,1.000000*%
%TD*%
%TA.AperFunction,Conductor*%
%ADD28C,0.200000*%
%TD*%
G04 APERTURE END LIST*
D10*
D11*
X94398328Y-102734284D02*
X95398328Y-102734284D01*
X93826900Y-103091426D02*
X94898328Y-103448569D01*
X94898328Y-103448569D02*
X94898328Y-102519998D01*
X93898328Y-101234284D02*
X93898328Y-101948570D01*
X93898328Y-101948570D02*
X94612614Y-102019998D01*
X94612614Y-102019998D02*
X94541185Y-101948570D01*
X94541185Y-101948570D02*
X94469757Y-101805713D01*
X94469757Y-101805713D02*
X94469757Y-101448570D01*
X94469757Y-101448570D02*
X94541185Y-101305713D01*
X94541185Y-101305713D02*
X94612614Y-101234284D01*
X94612614Y-101234284D02*
X94755471Y-101162855D01*
X94755471Y-101162855D02*
X95112614Y-101162855D01*
X95112614Y-101162855D02*
X95255471Y-101234284D01*
X95255471Y-101234284D02*
X95326900Y-101305713D01*
X95326900Y-101305713D02*
X95398328Y-101448570D01*
X95398328Y-101448570D02*
X95398328Y-101805713D01*
X95398328Y-101805713D02*
X95326900Y-101948570D01*
X95326900Y-101948570D02*
X95255471Y-102019998D01*
X95255471Y-100519999D02*
X95326900Y-100448570D01*
X95326900Y-100448570D02*
X95398328Y-100519999D01*
X95398328Y-100519999D02*
X95326900Y-100591427D01*
X95326900Y-100591427D02*
X95255471Y-100519999D01*
X95255471Y-100519999D02*
X95398328Y-100519999D01*
X93898328Y-99948570D02*
X93898328Y-98948570D01*
X93898328Y-98948570D02*
X95398328Y-99591427D01*
X94041185Y-98448570D02*
X93969757Y-98377142D01*
X93969757Y-98377142D02*
X93898328Y-98234285D01*
X93898328Y-98234285D02*
X93898328Y-97877142D01*
X93898328Y-97877142D02*
X93969757Y-97734285D01*
X93969757Y-97734285D02*
X94041185Y-97662856D01*
X94041185Y-97662856D02*
X94184042Y-97591427D01*
X94184042Y-97591427D02*
X94326900Y-97591427D01*
X94326900Y-97591427D02*
X94541185Y-97662856D01*
X94541185Y-97662856D02*
X95398328Y-98519999D01*
X95398328Y-98519999D02*
X95398328Y-97591427D01*
X93898328Y-96662856D02*
X93898328Y-96519999D01*
X93898328Y-96519999D02*
X93969757Y-96377142D01*
X93969757Y-96377142D02*
X94041185Y-96305714D01*
X94041185Y-96305714D02*
X94184042Y-96234285D01*
X94184042Y-96234285D02*
X94469757Y-96162856D01*
X94469757Y-96162856D02*
X94826900Y-96162856D01*
X94826900Y-96162856D02*
X95112614Y-96234285D01*
X95112614Y-96234285D02*
X95255471Y-96305714D01*
X95255471Y-96305714D02*
X95326900Y-96377142D01*
X95326900Y-96377142D02*
X95398328Y-96519999D01*
X95398328Y-96519999D02*
X95398328Y-96662856D01*
X95398328Y-96662856D02*
X95326900Y-96805714D01*
X95326900Y-96805714D02*
X95255471Y-96877142D01*
X95255471Y-96877142D02*
X95112614Y-96948571D01*
X95112614Y-96948571D02*
X94826900Y-97019999D01*
X94826900Y-97019999D02*
X94469757Y-97019999D01*
X94469757Y-97019999D02*
X94184042Y-96948571D01*
X94184042Y-96948571D02*
X94041185Y-96877142D01*
X94041185Y-96877142D02*
X93969757Y-96805714D01*
X93969757Y-96805714D02*
X93898328Y-96662856D01*
X93898328Y-95234285D02*
X93898328Y-95091428D01*
X93898328Y-95091428D02*
X93969757Y-94948571D01*
X93969757Y-94948571D02*
X94041185Y-94877143D01*
X94041185Y-94877143D02*
X94184042Y-94805714D01*
X94184042Y-94805714D02*
X94469757Y-94734285D01*
X94469757Y-94734285D02*
X94826900Y-94734285D01*
X94826900Y-94734285D02*
X95112614Y-94805714D01*
X95112614Y-94805714D02*
X95255471Y-94877143D01*
X95255471Y-94877143D02*
X95326900Y-94948571D01*
X95326900Y-94948571D02*
X95398328Y-95091428D01*
X95398328Y-95091428D02*
X95398328Y-95234285D01*
X95398328Y-95234285D02*
X95326900Y-95377143D01*
X95326900Y-95377143D02*
X95255471Y-95448571D01*
X95255471Y-95448571D02*
X95112614Y-95520000D01*
X95112614Y-95520000D02*
X94826900Y-95591428D01*
X94826900Y-95591428D02*
X94469757Y-95591428D01*
X94469757Y-95591428D02*
X94184042Y-95520000D01*
X94184042Y-95520000D02*
X94041185Y-95448571D01*
X94041185Y-95448571D02*
X93969757Y-95377143D01*
X93969757Y-95377143D02*
X93898328Y-95234285D01*
X95398328Y-92948572D02*
X94398328Y-92948572D01*
X94541185Y-92948572D02*
X94469757Y-92877143D01*
X94469757Y-92877143D02*
X94398328Y-92734286D01*
X94398328Y-92734286D02*
X94398328Y-92520000D01*
X94398328Y-92520000D02*
X94469757Y-92377143D01*
X94469757Y-92377143D02*
X94612614Y-92305715D01*
X94612614Y-92305715D02*
X95398328Y-92305715D01*
X94612614Y-92305715D02*
X94469757Y-92234286D01*
X94469757Y-92234286D02*
X94398328Y-92091429D01*
X94398328Y-92091429D02*
X94398328Y-91877143D01*
X94398328Y-91877143D02*
X94469757Y-91734286D01*
X94469757Y-91734286D02*
X94612614Y-91662857D01*
X94612614Y-91662857D02*
X95398328Y-91662857D01*
X95398328Y-90948572D02*
X94398328Y-90948572D01*
X94541185Y-90948572D02*
X94469757Y-90877143D01*
X94469757Y-90877143D02*
X94398328Y-90734286D01*
X94398328Y-90734286D02*
X94398328Y-90520000D01*
X94398328Y-90520000D02*
X94469757Y-90377143D01*
X94469757Y-90377143D02*
X94612614Y-90305715D01*
X94612614Y-90305715D02*
X95398328Y-90305715D01*
X94612614Y-90305715D02*
X94469757Y-90234286D01*
X94469757Y-90234286D02*
X94398328Y-90091429D01*
X94398328Y-90091429D02*
X94398328Y-89877143D01*
X94398328Y-89877143D02*
X94469757Y-89734286D01*
X94469757Y-89734286D02*
X94612614Y-89662857D01*
X94612614Y-89662857D02*
X95398328Y-89662857D01*
D12*
X116340000Y-73660000D02*
X95933580Y-73660000D01*
X116340000Y-119380000D02*
X95933580Y-119380000D01*
X96520000Y-73660000D02*
X96520000Y-119380000D01*
X96520000Y-73660000D02*
X96520000Y-119380000D01*
X96520000Y-73660000D02*
X97106421Y-74786504D01*
X96520000Y-73660000D02*
X95933579Y-74786504D01*
X96520000Y-119380000D02*
X95933579Y-118253496D01*
X96520000Y-119380000D02*
X97106421Y-118253496D01*
D10*
D11*
X149210001Y-55798328D02*
X150210001Y-55798328D01*
X150210001Y-55798328D02*
X149567144Y-57298328D01*
X150995715Y-56441185D02*
X150852858Y-56369757D01*
X150852858Y-56369757D02*
X150781429Y-56298328D01*
X150781429Y-56298328D02*
X150710001Y-56155471D01*
X150710001Y-56155471D02*
X150710001Y-56084042D01*
X150710001Y-56084042D02*
X150781429Y-55941185D01*
X150781429Y-55941185D02*
X150852858Y-55869757D01*
X150852858Y-55869757D02*
X150995715Y-55798328D01*
X150995715Y-55798328D02*
X151281429Y-55798328D01*
X151281429Y-55798328D02*
X151424287Y-55869757D01*
X151424287Y-55869757D02*
X151495715Y-55941185D01*
X151495715Y-55941185D02*
X151567144Y-56084042D01*
X151567144Y-56084042D02*
X151567144Y-56155471D01*
X151567144Y-56155471D02*
X151495715Y-56298328D01*
X151495715Y-56298328D02*
X151424287Y-56369757D01*
X151424287Y-56369757D02*
X151281429Y-56441185D01*
X151281429Y-56441185D02*
X150995715Y-56441185D01*
X150995715Y-56441185D02*
X150852858Y-56512614D01*
X150852858Y-56512614D02*
X150781429Y-56584042D01*
X150781429Y-56584042D02*
X150710001Y-56726900D01*
X150710001Y-56726900D02*
X150710001Y-57012614D01*
X150710001Y-57012614D02*
X150781429Y-57155471D01*
X150781429Y-57155471D02*
X150852858Y-57226900D01*
X150852858Y-57226900D02*
X150995715Y-57298328D01*
X150995715Y-57298328D02*
X151281429Y-57298328D01*
X151281429Y-57298328D02*
X151424287Y-57226900D01*
X151424287Y-57226900D02*
X151495715Y-57155471D01*
X151495715Y-57155471D02*
X151567144Y-57012614D01*
X151567144Y-57012614D02*
X151567144Y-56726900D01*
X151567144Y-56726900D02*
X151495715Y-56584042D01*
X151495715Y-56584042D02*
X151424287Y-56512614D01*
X151424287Y-56512614D02*
X151281429Y-56441185D01*
X152210000Y-57155471D02*
X152281429Y-57226900D01*
X152281429Y-57226900D02*
X152210000Y-57298328D01*
X152210000Y-57298328D02*
X152138572Y-57226900D01*
X152138572Y-57226900D02*
X152210000Y-57155471D01*
X152210000Y-57155471D02*
X152210000Y-57298328D01*
X152781429Y-55798328D02*
X153781429Y-55798328D01*
X153781429Y-55798328D02*
X153138572Y-57298328D01*
X154995715Y-56298328D02*
X154995715Y-57298328D01*
X154638572Y-55726900D02*
X154281429Y-56798328D01*
X154281429Y-56798328D02*
X155210000Y-56798328D01*
X156067143Y-55798328D02*
X156210000Y-55798328D01*
X156210000Y-55798328D02*
X156352857Y-55869757D01*
X156352857Y-55869757D02*
X156424286Y-55941185D01*
X156424286Y-55941185D02*
X156495714Y-56084042D01*
X156495714Y-56084042D02*
X156567143Y-56369757D01*
X156567143Y-56369757D02*
X156567143Y-56726900D01*
X156567143Y-56726900D02*
X156495714Y-57012614D01*
X156495714Y-57012614D02*
X156424286Y-57155471D01*
X156424286Y-57155471D02*
X156352857Y-57226900D01*
X156352857Y-57226900D02*
X156210000Y-57298328D01*
X156210000Y-57298328D02*
X156067143Y-57298328D01*
X156067143Y-57298328D02*
X155924286Y-57226900D01*
X155924286Y-57226900D02*
X155852857Y-57155471D01*
X155852857Y-57155471D02*
X155781428Y-57012614D01*
X155781428Y-57012614D02*
X155710000Y-56726900D01*
X155710000Y-56726900D02*
X155710000Y-56369757D01*
X155710000Y-56369757D02*
X155781428Y-56084042D01*
X155781428Y-56084042D02*
X155852857Y-55941185D01*
X155852857Y-55941185D02*
X155924286Y-55869757D01*
X155924286Y-55869757D02*
X156067143Y-55798328D01*
X157495714Y-55798328D02*
X157638571Y-55798328D01*
X157638571Y-55798328D02*
X157781428Y-55869757D01*
X157781428Y-55869757D02*
X157852857Y-55941185D01*
X157852857Y-55941185D02*
X157924285Y-56084042D01*
X157924285Y-56084042D02*
X157995714Y-56369757D01*
X157995714Y-56369757D02*
X157995714Y-56726900D01*
X157995714Y-56726900D02*
X157924285Y-57012614D01*
X157924285Y-57012614D02*
X157852857Y-57155471D01*
X157852857Y-57155471D02*
X157781428Y-57226900D01*
X157781428Y-57226900D02*
X157638571Y-57298328D01*
X157638571Y-57298328D02*
X157495714Y-57298328D01*
X157495714Y-57298328D02*
X157352857Y-57226900D01*
X157352857Y-57226900D02*
X157281428Y-57155471D01*
X157281428Y-57155471D02*
X157209999Y-57012614D01*
X157209999Y-57012614D02*
X157138571Y-56726900D01*
X157138571Y-56726900D02*
X157138571Y-56369757D01*
X157138571Y-56369757D02*
X157209999Y-56084042D01*
X157209999Y-56084042D02*
X157281428Y-55941185D01*
X157281428Y-55941185D02*
X157352857Y-55869757D01*
X157352857Y-55869757D02*
X157495714Y-55798328D01*
X159781427Y-57298328D02*
X159781427Y-56298328D01*
X159781427Y-56441185D02*
X159852856Y-56369757D01*
X159852856Y-56369757D02*
X159995713Y-56298328D01*
X159995713Y-56298328D02*
X160209999Y-56298328D01*
X160209999Y-56298328D02*
X160352856Y-56369757D01*
X160352856Y-56369757D02*
X160424285Y-56512614D01*
X160424285Y-56512614D02*
X160424285Y-57298328D01*
X160424285Y-56512614D02*
X160495713Y-56369757D01*
X160495713Y-56369757D02*
X160638570Y-56298328D01*
X160638570Y-56298328D02*
X160852856Y-56298328D01*
X160852856Y-56298328D02*
X160995713Y-56369757D01*
X160995713Y-56369757D02*
X161067142Y-56512614D01*
X161067142Y-56512614D02*
X161067142Y-57298328D01*
X161781427Y-57298328D02*
X161781427Y-56298328D01*
X161781427Y-56441185D02*
X161852856Y-56369757D01*
X161852856Y-56369757D02*
X161995713Y-56298328D01*
X161995713Y-56298328D02*
X162209999Y-56298328D01*
X162209999Y-56298328D02*
X162352856Y-56369757D01*
X162352856Y-56369757D02*
X162424285Y-56512614D01*
X162424285Y-56512614D02*
X162424285Y-57298328D01*
X162424285Y-56512614D02*
X162495713Y-56369757D01*
X162495713Y-56369757D02*
X162638570Y-56298328D01*
X162638570Y-56298328D02*
X162852856Y-56298328D01*
X162852856Y-56298328D02*
X162995713Y-56369757D01*
X162995713Y-56369757D02*
X163067142Y-56512614D01*
X163067142Y-56512614D02*
X163067142Y-57298328D01*
D12*
X116840000Y-73160000D02*
X116840000Y-57833580D01*
X195580000Y-73160000D02*
X195580000Y-57833580D01*
X116840000Y-58420000D02*
X195580000Y-58420000D01*
X116840000Y-58420000D02*
X195580000Y-58420000D01*
X116840000Y-58420000D02*
X117966504Y-57833579D01*
X116840000Y-58420000D02*
X117966504Y-59006421D01*
X195580000Y-58420000D02*
X194453496Y-59006421D01*
X195580000Y-58420000D02*
X194453496Y-57833579D01*
D10*
D11*
X208198328Y-102662855D02*
X208198328Y-103377141D01*
X208198328Y-103377141D02*
X208912614Y-103448569D01*
X208912614Y-103448569D02*
X208841185Y-103377141D01*
X208841185Y-103377141D02*
X208769757Y-103234284D01*
X208769757Y-103234284D02*
X208769757Y-102877141D01*
X208769757Y-102877141D02*
X208841185Y-102734284D01*
X208841185Y-102734284D02*
X208912614Y-102662855D01*
X208912614Y-102662855D02*
X209055471Y-102591426D01*
X209055471Y-102591426D02*
X209412614Y-102591426D01*
X209412614Y-102591426D02*
X209555471Y-102662855D01*
X209555471Y-102662855D02*
X209626900Y-102734284D01*
X209626900Y-102734284D02*
X209698328Y-102877141D01*
X209698328Y-102877141D02*
X209698328Y-103234284D01*
X209698328Y-103234284D02*
X209626900Y-103377141D01*
X209626900Y-103377141D02*
X209555471Y-103448569D01*
X208198328Y-101234284D02*
X208198328Y-101948570D01*
X208198328Y-101948570D02*
X208912614Y-102019998D01*
X208912614Y-102019998D02*
X208841185Y-101948570D01*
X208841185Y-101948570D02*
X208769757Y-101805713D01*
X208769757Y-101805713D02*
X208769757Y-101448570D01*
X208769757Y-101448570D02*
X208841185Y-101305713D01*
X208841185Y-101305713D02*
X208912614Y-101234284D01*
X208912614Y-101234284D02*
X209055471Y-101162855D01*
X209055471Y-101162855D02*
X209412614Y-101162855D01*
X209412614Y-101162855D02*
X209555471Y-101234284D01*
X209555471Y-101234284D02*
X209626900Y-101305713D01*
X209626900Y-101305713D02*
X209698328Y-101448570D01*
X209698328Y-101448570D02*
X209698328Y-101805713D01*
X209698328Y-101805713D02*
X209626900Y-101948570D01*
X209626900Y-101948570D02*
X209555471Y-102019998D01*
X209555471Y-100519999D02*
X209626900Y-100448570D01*
X209626900Y-100448570D02*
X209698328Y-100519999D01*
X209698328Y-100519999D02*
X209626900Y-100591427D01*
X209626900Y-100591427D02*
X209555471Y-100519999D01*
X209555471Y-100519999D02*
X209698328Y-100519999D01*
X208841185Y-99591427D02*
X208769757Y-99734284D01*
X208769757Y-99734284D02*
X208698328Y-99805713D01*
X208698328Y-99805713D02*
X208555471Y-99877141D01*
X208555471Y-99877141D02*
X208484042Y-99877141D01*
X208484042Y-99877141D02*
X208341185Y-99805713D01*
X208341185Y-99805713D02*
X208269757Y-99734284D01*
X208269757Y-99734284D02*
X208198328Y-99591427D01*
X208198328Y-99591427D02*
X208198328Y-99305713D01*
X208198328Y-99305713D02*
X208269757Y-99162856D01*
X208269757Y-99162856D02*
X208341185Y-99091427D01*
X208341185Y-99091427D02*
X208484042Y-99019998D01*
X208484042Y-99019998D02*
X208555471Y-99019998D01*
X208555471Y-99019998D02*
X208698328Y-99091427D01*
X208698328Y-99091427D02*
X208769757Y-99162856D01*
X208769757Y-99162856D02*
X208841185Y-99305713D01*
X208841185Y-99305713D02*
X208841185Y-99591427D01*
X208841185Y-99591427D02*
X208912614Y-99734284D01*
X208912614Y-99734284D02*
X208984042Y-99805713D01*
X208984042Y-99805713D02*
X209126900Y-99877141D01*
X209126900Y-99877141D02*
X209412614Y-99877141D01*
X209412614Y-99877141D02*
X209555471Y-99805713D01*
X209555471Y-99805713D02*
X209626900Y-99734284D01*
X209626900Y-99734284D02*
X209698328Y-99591427D01*
X209698328Y-99591427D02*
X209698328Y-99305713D01*
X209698328Y-99305713D02*
X209626900Y-99162856D01*
X209626900Y-99162856D02*
X209555471Y-99091427D01*
X209555471Y-99091427D02*
X209412614Y-99019998D01*
X209412614Y-99019998D02*
X209126900Y-99019998D01*
X209126900Y-99019998D02*
X208984042Y-99091427D01*
X208984042Y-99091427D02*
X208912614Y-99162856D01*
X208912614Y-99162856D02*
X208841185Y-99305713D01*
X208841185Y-98162856D02*
X208769757Y-98305713D01*
X208769757Y-98305713D02*
X208698328Y-98377142D01*
X208698328Y-98377142D02*
X208555471Y-98448570D01*
X208555471Y-98448570D02*
X208484042Y-98448570D01*
X208484042Y-98448570D02*
X208341185Y-98377142D01*
X208341185Y-98377142D02*
X208269757Y-98305713D01*
X208269757Y-98305713D02*
X208198328Y-98162856D01*
X208198328Y-98162856D02*
X208198328Y-97877142D01*
X208198328Y-97877142D02*
X208269757Y-97734285D01*
X208269757Y-97734285D02*
X208341185Y-97662856D01*
X208341185Y-97662856D02*
X208484042Y-97591427D01*
X208484042Y-97591427D02*
X208555471Y-97591427D01*
X208555471Y-97591427D02*
X208698328Y-97662856D01*
X208698328Y-97662856D02*
X208769757Y-97734285D01*
X208769757Y-97734285D02*
X208841185Y-97877142D01*
X208841185Y-97877142D02*
X208841185Y-98162856D01*
X208841185Y-98162856D02*
X208912614Y-98305713D01*
X208912614Y-98305713D02*
X208984042Y-98377142D01*
X208984042Y-98377142D02*
X209126900Y-98448570D01*
X209126900Y-98448570D02*
X209412614Y-98448570D01*
X209412614Y-98448570D02*
X209555471Y-98377142D01*
X209555471Y-98377142D02*
X209626900Y-98305713D01*
X209626900Y-98305713D02*
X209698328Y-98162856D01*
X209698328Y-98162856D02*
X209698328Y-97877142D01*
X209698328Y-97877142D02*
X209626900Y-97734285D01*
X209626900Y-97734285D02*
X209555471Y-97662856D01*
X209555471Y-97662856D02*
X209412614Y-97591427D01*
X209412614Y-97591427D02*
X209126900Y-97591427D01*
X209126900Y-97591427D02*
X208984042Y-97662856D01*
X208984042Y-97662856D02*
X208912614Y-97734285D01*
X208912614Y-97734285D02*
X208841185Y-97877142D01*
X208198328Y-96662856D02*
X208198328Y-96519999D01*
X208198328Y-96519999D02*
X208269757Y-96377142D01*
X208269757Y-96377142D02*
X208341185Y-96305714D01*
X208341185Y-96305714D02*
X208484042Y-96234285D01*
X208484042Y-96234285D02*
X208769757Y-96162856D01*
X208769757Y-96162856D02*
X209126900Y-96162856D01*
X209126900Y-96162856D02*
X209412614Y-96234285D01*
X209412614Y-96234285D02*
X209555471Y-96305714D01*
X209555471Y-96305714D02*
X209626900Y-96377142D01*
X209626900Y-96377142D02*
X209698328Y-96519999D01*
X209698328Y-96519999D02*
X209698328Y-96662856D01*
X209698328Y-96662856D02*
X209626900Y-96805714D01*
X209626900Y-96805714D02*
X209555471Y-96877142D01*
X209555471Y-96877142D02*
X209412614Y-96948571D01*
X209412614Y-96948571D02*
X209126900Y-97019999D01*
X209126900Y-97019999D02*
X208769757Y-97019999D01*
X208769757Y-97019999D02*
X208484042Y-96948571D01*
X208484042Y-96948571D02*
X208341185Y-96877142D01*
X208341185Y-96877142D02*
X208269757Y-96805714D01*
X208269757Y-96805714D02*
X208198328Y-96662856D01*
X208198328Y-95234285D02*
X208198328Y-95091428D01*
X208198328Y-95091428D02*
X208269757Y-94948571D01*
X208269757Y-94948571D02*
X208341185Y-94877143D01*
X208341185Y-94877143D02*
X208484042Y-94805714D01*
X208484042Y-94805714D02*
X208769757Y-94734285D01*
X208769757Y-94734285D02*
X209126900Y-94734285D01*
X209126900Y-94734285D02*
X209412614Y-94805714D01*
X209412614Y-94805714D02*
X209555471Y-94877143D01*
X209555471Y-94877143D02*
X209626900Y-94948571D01*
X209626900Y-94948571D02*
X209698328Y-95091428D01*
X209698328Y-95091428D02*
X209698328Y-95234285D01*
X209698328Y-95234285D02*
X209626900Y-95377143D01*
X209626900Y-95377143D02*
X209555471Y-95448571D01*
X209555471Y-95448571D02*
X209412614Y-95520000D01*
X209412614Y-95520000D02*
X209126900Y-95591428D01*
X209126900Y-95591428D02*
X208769757Y-95591428D01*
X208769757Y-95591428D02*
X208484042Y-95520000D01*
X208484042Y-95520000D02*
X208341185Y-95448571D01*
X208341185Y-95448571D02*
X208269757Y-95377143D01*
X208269757Y-95377143D02*
X208198328Y-95234285D01*
X209698328Y-92948572D02*
X208698328Y-92948572D01*
X208841185Y-92948572D02*
X208769757Y-92877143D01*
X208769757Y-92877143D02*
X208698328Y-92734286D01*
X208698328Y-92734286D02*
X208698328Y-92520000D01*
X208698328Y-92520000D02*
X208769757Y-92377143D01*
X208769757Y-92377143D02*
X208912614Y-92305715D01*
X208912614Y-92305715D02*
X209698328Y-92305715D01*
X208912614Y-92305715D02*
X208769757Y-92234286D01*
X208769757Y-92234286D02*
X208698328Y-92091429D01*
X208698328Y-92091429D02*
X208698328Y-91877143D01*
X208698328Y-91877143D02*
X208769757Y-91734286D01*
X208769757Y-91734286D02*
X208912614Y-91662857D01*
X208912614Y-91662857D02*
X209698328Y-91662857D01*
X209698328Y-90948572D02*
X208698328Y-90948572D01*
X208841185Y-90948572D02*
X208769757Y-90877143D01*
X208769757Y-90877143D02*
X208698328Y-90734286D01*
X208698328Y-90734286D02*
X208698328Y-90520000D01*
X208698328Y-90520000D02*
X208769757Y-90377143D01*
X208769757Y-90377143D02*
X208912614Y-90305715D01*
X208912614Y-90305715D02*
X209698328Y-90305715D01*
X208912614Y-90305715D02*
X208769757Y-90234286D01*
X208769757Y-90234286D02*
X208698328Y-90091429D01*
X208698328Y-90091429D02*
X208698328Y-89877143D01*
X208698328Y-89877143D02*
X208769757Y-89734286D01*
X208769757Y-89734286D02*
X208912614Y-89662857D01*
X208912614Y-89662857D02*
X209698328Y-89662857D01*
D12*
X201160000Y-68580000D02*
X211406420Y-68580000D01*
X201160000Y-124460000D02*
X211406420Y-124460000D01*
X210820000Y-68580000D02*
X210820000Y-124460000D01*
X210820000Y-68580000D02*
X210820000Y-124460000D01*
X210820000Y-68580000D02*
X211406421Y-69706504D01*
X210820000Y-68580000D02*
X210233579Y-69706504D01*
X210820000Y-124460000D02*
X210233579Y-123333496D01*
X210820000Y-124460000D02*
X211406421Y-123333496D01*
D10*
D11*
X149567144Y-140261185D02*
X149424287Y-140189757D01*
X149424287Y-140189757D02*
X149352858Y-140118328D01*
X149352858Y-140118328D02*
X149281430Y-139975471D01*
X149281430Y-139975471D02*
X149281430Y-139904042D01*
X149281430Y-139904042D02*
X149352858Y-139761185D01*
X149352858Y-139761185D02*
X149424287Y-139689757D01*
X149424287Y-139689757D02*
X149567144Y-139618328D01*
X149567144Y-139618328D02*
X149852858Y-139618328D01*
X149852858Y-139618328D02*
X149995716Y-139689757D01*
X149995716Y-139689757D02*
X150067144Y-139761185D01*
X150067144Y-139761185D02*
X150138573Y-139904042D01*
X150138573Y-139904042D02*
X150138573Y-139975471D01*
X150138573Y-139975471D02*
X150067144Y-140118328D01*
X150067144Y-140118328D02*
X149995716Y-140189757D01*
X149995716Y-140189757D02*
X149852858Y-140261185D01*
X149852858Y-140261185D02*
X149567144Y-140261185D01*
X149567144Y-140261185D02*
X149424287Y-140332614D01*
X149424287Y-140332614D02*
X149352858Y-140404042D01*
X149352858Y-140404042D02*
X149281430Y-140546900D01*
X149281430Y-140546900D02*
X149281430Y-140832614D01*
X149281430Y-140832614D02*
X149352858Y-140975471D01*
X149352858Y-140975471D02*
X149424287Y-141046900D01*
X149424287Y-141046900D02*
X149567144Y-141118328D01*
X149567144Y-141118328D02*
X149852858Y-141118328D01*
X149852858Y-141118328D02*
X149995716Y-141046900D01*
X149995716Y-141046900D02*
X150067144Y-140975471D01*
X150067144Y-140975471D02*
X150138573Y-140832614D01*
X150138573Y-140832614D02*
X150138573Y-140546900D01*
X150138573Y-140546900D02*
X150067144Y-140404042D01*
X150067144Y-140404042D02*
X149995716Y-140332614D01*
X149995716Y-140332614D02*
X149852858Y-140261185D01*
X150995715Y-140261185D02*
X150852858Y-140189757D01*
X150852858Y-140189757D02*
X150781429Y-140118328D01*
X150781429Y-140118328D02*
X150710001Y-139975471D01*
X150710001Y-139975471D02*
X150710001Y-139904042D01*
X150710001Y-139904042D02*
X150781429Y-139761185D01*
X150781429Y-139761185D02*
X150852858Y-139689757D01*
X150852858Y-139689757D02*
X150995715Y-139618328D01*
X150995715Y-139618328D02*
X151281429Y-139618328D01*
X151281429Y-139618328D02*
X151424287Y-139689757D01*
X151424287Y-139689757D02*
X151495715Y-139761185D01*
X151495715Y-139761185D02*
X151567144Y-139904042D01*
X151567144Y-139904042D02*
X151567144Y-139975471D01*
X151567144Y-139975471D02*
X151495715Y-140118328D01*
X151495715Y-140118328D02*
X151424287Y-140189757D01*
X151424287Y-140189757D02*
X151281429Y-140261185D01*
X151281429Y-140261185D02*
X150995715Y-140261185D01*
X150995715Y-140261185D02*
X150852858Y-140332614D01*
X150852858Y-140332614D02*
X150781429Y-140404042D01*
X150781429Y-140404042D02*
X150710001Y-140546900D01*
X150710001Y-140546900D02*
X150710001Y-140832614D01*
X150710001Y-140832614D02*
X150781429Y-140975471D01*
X150781429Y-140975471D02*
X150852858Y-141046900D01*
X150852858Y-141046900D02*
X150995715Y-141118328D01*
X150995715Y-141118328D02*
X151281429Y-141118328D01*
X151281429Y-141118328D02*
X151424287Y-141046900D01*
X151424287Y-141046900D02*
X151495715Y-140975471D01*
X151495715Y-140975471D02*
X151567144Y-140832614D01*
X151567144Y-140832614D02*
X151567144Y-140546900D01*
X151567144Y-140546900D02*
X151495715Y-140404042D01*
X151495715Y-140404042D02*
X151424287Y-140332614D01*
X151424287Y-140332614D02*
X151281429Y-140261185D01*
X152210000Y-140975471D02*
X152281429Y-141046900D01*
X152281429Y-141046900D02*
X152210000Y-141118328D01*
X152210000Y-141118328D02*
X152138572Y-141046900D01*
X152138572Y-141046900D02*
X152210000Y-140975471D01*
X152210000Y-140975471D02*
X152210000Y-141118328D01*
X152995715Y-141118328D02*
X153281429Y-141118328D01*
X153281429Y-141118328D02*
X153424286Y-141046900D01*
X153424286Y-141046900D02*
X153495715Y-140975471D01*
X153495715Y-140975471D02*
X153638572Y-140761185D01*
X153638572Y-140761185D02*
X153710001Y-140475471D01*
X153710001Y-140475471D02*
X153710001Y-139904042D01*
X153710001Y-139904042D02*
X153638572Y-139761185D01*
X153638572Y-139761185D02*
X153567144Y-139689757D01*
X153567144Y-139689757D02*
X153424286Y-139618328D01*
X153424286Y-139618328D02*
X153138572Y-139618328D01*
X153138572Y-139618328D02*
X152995715Y-139689757D01*
X152995715Y-139689757D02*
X152924286Y-139761185D01*
X152924286Y-139761185D02*
X152852858Y-139904042D01*
X152852858Y-139904042D02*
X152852858Y-140261185D01*
X152852858Y-140261185D02*
X152924286Y-140404042D01*
X152924286Y-140404042D02*
X152995715Y-140475471D01*
X152995715Y-140475471D02*
X153138572Y-140546900D01*
X153138572Y-140546900D02*
X153424286Y-140546900D01*
X153424286Y-140546900D02*
X153567144Y-140475471D01*
X153567144Y-140475471D02*
X153638572Y-140404042D01*
X153638572Y-140404042D02*
X153710001Y-140261185D01*
X154638572Y-139618328D02*
X154781429Y-139618328D01*
X154781429Y-139618328D02*
X154924286Y-139689757D01*
X154924286Y-139689757D02*
X154995715Y-139761185D01*
X154995715Y-139761185D02*
X155067143Y-139904042D01*
X155067143Y-139904042D02*
X155138572Y-140189757D01*
X155138572Y-140189757D02*
X155138572Y-140546900D01*
X155138572Y-140546900D02*
X155067143Y-140832614D01*
X155067143Y-140832614D02*
X154995715Y-140975471D01*
X154995715Y-140975471D02*
X154924286Y-141046900D01*
X154924286Y-141046900D02*
X154781429Y-141118328D01*
X154781429Y-141118328D02*
X154638572Y-141118328D01*
X154638572Y-141118328D02*
X154495715Y-141046900D01*
X154495715Y-141046900D02*
X154424286Y-140975471D01*
X154424286Y-140975471D02*
X154352857Y-140832614D01*
X154352857Y-140832614D02*
X154281429Y-140546900D01*
X154281429Y-140546900D02*
X154281429Y-140189757D01*
X154281429Y-140189757D02*
X154352857Y-139904042D01*
X154352857Y-139904042D02*
X154424286Y-139761185D01*
X154424286Y-139761185D02*
X154495715Y-139689757D01*
X154495715Y-139689757D02*
X154638572Y-139618328D01*
X156067143Y-139618328D02*
X156210000Y-139618328D01*
X156210000Y-139618328D02*
X156352857Y-139689757D01*
X156352857Y-139689757D02*
X156424286Y-139761185D01*
X156424286Y-139761185D02*
X156495714Y-139904042D01*
X156495714Y-139904042D02*
X156567143Y-140189757D01*
X156567143Y-140189757D02*
X156567143Y-140546900D01*
X156567143Y-140546900D02*
X156495714Y-140832614D01*
X156495714Y-140832614D02*
X156424286Y-140975471D01*
X156424286Y-140975471D02*
X156352857Y-141046900D01*
X156352857Y-141046900D02*
X156210000Y-141118328D01*
X156210000Y-141118328D02*
X156067143Y-141118328D01*
X156067143Y-141118328D02*
X155924286Y-141046900D01*
X155924286Y-141046900D02*
X155852857Y-140975471D01*
X155852857Y-140975471D02*
X155781428Y-140832614D01*
X155781428Y-140832614D02*
X155710000Y-140546900D01*
X155710000Y-140546900D02*
X155710000Y-140189757D01*
X155710000Y-140189757D02*
X155781428Y-139904042D01*
X155781428Y-139904042D02*
X155852857Y-139761185D01*
X155852857Y-139761185D02*
X155924286Y-139689757D01*
X155924286Y-139689757D02*
X156067143Y-139618328D01*
X157495714Y-139618328D02*
X157638571Y-139618328D01*
X157638571Y-139618328D02*
X157781428Y-139689757D01*
X157781428Y-139689757D02*
X157852857Y-139761185D01*
X157852857Y-139761185D02*
X157924285Y-139904042D01*
X157924285Y-139904042D02*
X157995714Y-140189757D01*
X157995714Y-140189757D02*
X157995714Y-140546900D01*
X157995714Y-140546900D02*
X157924285Y-140832614D01*
X157924285Y-140832614D02*
X157852857Y-140975471D01*
X157852857Y-140975471D02*
X157781428Y-141046900D01*
X157781428Y-141046900D02*
X157638571Y-141118328D01*
X157638571Y-141118328D02*
X157495714Y-141118328D01*
X157495714Y-141118328D02*
X157352857Y-141046900D01*
X157352857Y-141046900D02*
X157281428Y-140975471D01*
X157281428Y-140975471D02*
X157209999Y-140832614D01*
X157209999Y-140832614D02*
X157138571Y-140546900D01*
X157138571Y-140546900D02*
X157138571Y-140189757D01*
X157138571Y-140189757D02*
X157209999Y-139904042D01*
X157209999Y-139904042D02*
X157281428Y-139761185D01*
X157281428Y-139761185D02*
X157352857Y-139689757D01*
X157352857Y-139689757D02*
X157495714Y-139618328D01*
X159781427Y-141118328D02*
X159781427Y-140118328D01*
X159781427Y-140261185D02*
X159852856Y-140189757D01*
X159852856Y-140189757D02*
X159995713Y-140118328D01*
X159995713Y-140118328D02*
X160209999Y-140118328D01*
X160209999Y-140118328D02*
X160352856Y-140189757D01*
X160352856Y-140189757D02*
X160424285Y-140332614D01*
X160424285Y-140332614D02*
X160424285Y-141118328D01*
X160424285Y-140332614D02*
X160495713Y-140189757D01*
X160495713Y-140189757D02*
X160638570Y-140118328D01*
X160638570Y-140118328D02*
X160852856Y-140118328D01*
X160852856Y-140118328D02*
X160995713Y-140189757D01*
X160995713Y-140189757D02*
X161067142Y-140332614D01*
X161067142Y-140332614D02*
X161067142Y-141118328D01*
X161781427Y-141118328D02*
X161781427Y-140118328D01*
X161781427Y-140261185D02*
X161852856Y-140189757D01*
X161852856Y-140189757D02*
X161995713Y-140118328D01*
X161995713Y-140118328D02*
X162209999Y-140118328D01*
X162209999Y-140118328D02*
X162352856Y-140189757D01*
X162352856Y-140189757D02*
X162424285Y-140332614D01*
X162424285Y-140332614D02*
X162424285Y-141118328D01*
X162424285Y-140332614D02*
X162495713Y-140189757D01*
X162495713Y-140189757D02*
X162638570Y-140118328D01*
X162638570Y-140118328D02*
X162852856Y-140118328D01*
X162852856Y-140118328D02*
X162995713Y-140189757D01*
X162995713Y-140189757D02*
X163067142Y-140332614D01*
X163067142Y-140332614D02*
X163067142Y-141118328D01*
D12*
X111760000Y-124960000D02*
X111760000Y-142826420D01*
X200660000Y-124960000D02*
X200660000Y-142826420D01*
X111760000Y-142240000D02*
X200660000Y-142240000D01*
X111760000Y-142240000D02*
X200660000Y-142240000D01*
X111760000Y-142240000D02*
X112886504Y-141653579D01*
X111760000Y-142240000D02*
X112886504Y-142826421D01*
X200660000Y-142240000D02*
X199533496Y-142826421D01*
X200660000Y-142240000D02*
X199533496Y-141653579D01*
D13*
%TO.P,R1,1*%
%TO.N,+12V*%
X148590000Y-72390000D03*
D14*
%TO.P,R1,2*%
%TO.N,Net-(J3-Pin_1)*%
X140970000Y-72390000D03*
%TD*%
D15*
%TO.P,D1,1,K*%
%TO.N,STATUS*%
X196850000Y-107950000D03*
D16*
%TO.P,D1,2,A*%
%TO.N,Net-(D1-A)*%
X196850000Y-110490000D03*
%TD*%
D17*
%TO.P,C1,1*%
%TO.N,+3.3V*%
X156210000Y-89997677D03*
D18*
%TO.P,C1,2*%
%TO.N,GND*%
X156210000Y-84997677D03*
%TD*%
D19*
%TO.P,J3,1,Pin_1*%
%TO.N,Net-(J3-Pin_1)*%
X156210000Y-77470000D03*
%TD*%
D20*
%TO.P,U2,1,Vcc_in*%
%TO.N,+12V*%
X129159000Y-91948000D03*
%TO.P,U2,2,Vcc_in*%
X129159000Y-89408000D03*
%TO.P,U2,3,GND_in*%
%TO.N,GND*%
X129159000Y-81280000D03*
%TO.P,U2,4,GND_in*%
X129159000Y-78740000D03*
%TO.P,U2,5,GND_Out*%
X147701000Y-78740000D03*
%TO.P,U2,6,GND_out*%
X147701000Y-81280000D03*
%TO.P,U2,7,Vcc_out*%
%TO.N,+3.3V*%
X147701000Y-89408000D03*
%TO.P,U2,8,Vcc_out*%
X147701000Y-92075000D03*
%TD*%
D13*
%TO.P,R2,1*%
%TO.N,Net-(J3-Pin_1)*%
X135890000Y-72390000D03*
D14*
%TO.P,R2,2*%
%TO.N,GND*%
X128270000Y-72390000D03*
%TD*%
D21*
%TO.P,J1,1,Pin_1*%
%TO.N,+12V*%
X116840000Y-89140000D03*
D22*
%TO.P,J1,2,Pin_2*%
%TO.N,GND*%
X116840000Y-94140000D03*
%TO.P,J1,3,Pin_3*%
%TO.N,M1*%
X116840000Y-99140000D03*
%TO.P,J1,4,Pin_4*%
%TO.N,M2*%
X116840000Y-104140000D03*
%TD*%
D13*
%TO.P,R3,1*%
%TO.N,+3.3V*%
X158750000Y-109220000D03*
D14*
%TO.P,R3,2*%
%TO.N,Net-(D1-A)*%
X158750000Y-116840000D03*
%TD*%
D19*
%TO.P,J2,1,Pin_1*%
%TO.N,+3.3V*%
X196850000Y-92710000D03*
D23*
%TO.P,J2,2,Pin_2*%
%TO.N,GND*%
X196850000Y-95250000D03*
%TO.P,J2,3,Pin_3*%
%TO.N,RXD*%
X196850000Y-97790000D03*
%TO.P,J2,4,Pin_4*%
%TO.N,TXD*%
X196850000Y-100330000D03*
%TD*%
D19*
%TO.P,J4,1,Pin_1*%
%TO.N,GND*%
X196850000Y-83820000D03*
D23*
%TO.P,J4,2,Pin_2*%
%TO.N,Net-(J4-Pin_2)*%
X196850000Y-81280000D03*
%TD*%
D20*
%TO.P,U3,1,GND*%
%TO.N,GND*%
X148590000Y-104140000D03*
%TO.P,U3,2,VM*%
%TO.N,+12V*%
X148590000Y-106680000D03*
%TO.P,U3,3,IN1*%
%TO.N,IN1*%
X148590000Y-109220000D03*
%TO.P,U3,4,IN2*%
%TO.N,IN2*%
X148590000Y-111760000D03*
D24*
%TO.P,U3,5,M1*%
%TO.N,M1*%
X130810000Y-114046000D03*
%TO.P,U3,6,M2*%
%TO.N,M2*%
X130810000Y-110490000D03*
%TO.P,U3,7,PWR_VM*%
%TO.N,+12V*%
X130810000Y-105283000D03*
%TO.P,U3,8,PWR_GND*%
%TO.N,GND*%
X130810000Y-101790000D03*
%TD*%
D13*
%TO.P,C2,1*%
%TO.N,Net-(J3-Pin_1)*%
X153710000Y-72390000D03*
%TO.P,C2,2*%
%TO.N,GND*%
X158710000Y-72390000D03*
%TD*%
D25*
%TO.P,U1,P$1,5V*%
%TO.N,unconnected-(U1-5V-PadP$1)*%
X166370000Y-83820000D03*
%TO.P,U1,P$2,GND*%
%TO.N,GND*%
X166370000Y-86360000D03*
%TO.P,U1,P$3,IO12*%
%TO.N,IN1*%
X166370000Y-88900000D03*
%TO.P,U1,P$4,IO13*%
%TO.N,IN2*%
X166370000Y-91440000D03*
%TO.P,U1,P$5,IO15*%
%TO.N,STATUS*%
X166370000Y-93980000D03*
%TO.P,U1,P$6,IO14*%
%TO.N,unconnected-(U1-IO14-PadP$6)*%
X166370000Y-96520000D03*
%TO.P,U1,P$7,IO2*%
%TO.N,unconnected-(U1-IO2-PadP$7)*%
X166370000Y-99060000D03*
%TO.P,U1,P$8,IO4*%
%TO.N,unconnected-(U1-IO4-PadP$8)*%
X166370000Y-101600000D03*
%TO.P,U1,P$9,.GND*%
%TO.N,unconnected-(U1-.GND-PadP$9)*%
X189230000Y-101600000D03*
%TO.P,U1,P$10,IO1/U0T*%
%TO.N,TXD*%
X189230000Y-99060000D03*
%TO.P,U1,P$11,IO3/U0R*%
%TO.N,RXD*%
X189230000Y-96520000D03*
%TO.P,U1,P$12,3V3.*%
%TO.N,+3.3V*%
X189230000Y-93980000D03*
%TO.P,U1,P$13,GND.*%
%TO.N,GND*%
X189230000Y-91440000D03*
%TO.P,U1,P$14,IO0*%
%TO.N,Net-(J4-Pin_2)*%
X189230000Y-88900000D03*
%TO.P,U1,P$15,IO16*%
%TO.N,unconnected-(U1-IO16-PadP$15)*%
X189230000Y-86360000D03*
%TO.P,U1,P$16,3V3*%
%TO.N,+3.3V*%
X189230000Y-83820000D03*
%TD*%
D26*
%TO.N,+12V*%
X137160000Y-102870000D02*
X135255000Y-104775000D01*
X135255000Y-104775000D02*
X134747000Y-105283000D01*
D27*
X148590000Y-106680000D02*
X137160000Y-106680000D01*
X137160000Y-106680000D02*
X135255000Y-104775000D01*
%TO.N,IN2*%
X151130000Y-111760000D02*
X161290000Y-101600000D01*
X148590000Y-111760000D02*
X151130000Y-111760000D01*
X161290000Y-101600000D02*
X161290000Y-93980000D01*
X161290000Y-93980000D02*
X163830000Y-91440000D01*
X163830000Y-91440000D02*
X166370000Y-91440000D01*
%TO.N,IN1*%
X158750000Y-101600000D02*
X151130000Y-109220000D01*
X158750000Y-92710000D02*
X158750000Y-101600000D01*
X166370000Y-88900000D02*
X162560000Y-88900000D01*
X162560000Y-88900000D02*
X158750000Y-92710000D01*
X151130000Y-109220000D02*
X148590000Y-109220000D01*
%TO.N,GND*%
X148590000Y-85090000D02*
X148682323Y-84997677D01*
X195580000Y-83820000D02*
X195580000Y-86360000D01*
X189230000Y-101600000D02*
X193040000Y-101600000D01*
X147701000Y-78740000D02*
X147701000Y-81280000D01*
X158710000Y-72390000D02*
X158710000Y-82497677D01*
X148682323Y-84997677D02*
X156210000Y-84997677D01*
D26*
X116840000Y-81280000D02*
X129159000Y-81280000D01*
X129159000Y-81280000D02*
X129159000Y-78740000D01*
X113260000Y-91440000D02*
X113260000Y-84860000D01*
X116840000Y-94140000D02*
X122080000Y-94140000D01*
X113260000Y-84860000D02*
X116840000Y-81280000D01*
D27*
X157572323Y-86360000D02*
X165100000Y-86360000D01*
X196285000Y-95250000D02*
X193040000Y-95250000D01*
D26*
X122080000Y-94140000D02*
X127000000Y-99060000D01*
X127000000Y-99060000D02*
X128080000Y-99060000D01*
D27*
X165100000Y-86360000D02*
X172720000Y-86360000D01*
X128270000Y-72390000D02*
X128270000Y-77851000D01*
X156210000Y-84997677D02*
X157572323Y-86360000D01*
D26*
X128080000Y-99060000D02*
X130810000Y-101790000D01*
D27*
X172720000Y-86360000D02*
X177800000Y-91440000D01*
X195580000Y-86360000D02*
X193040000Y-88900000D01*
X193040000Y-95250000D02*
X193040000Y-91440000D01*
D26*
X114140000Y-91440000D02*
X113260000Y-91440000D01*
D27*
X129159000Y-78740000D02*
X147701000Y-78740000D01*
X193040000Y-88900000D02*
X193040000Y-91440000D01*
X177800000Y-91440000D02*
X187960000Y-91440000D01*
X147701000Y-84201000D02*
X148590000Y-85090000D01*
X147701000Y-81280000D02*
X147701000Y-84201000D01*
D26*
X116840000Y-94140000D02*
X114140000Y-91440000D01*
D27*
X193040000Y-91440000D02*
X189230000Y-91440000D01*
X193040000Y-101600000D02*
X193040000Y-95250000D01*
X158710000Y-82497677D02*
X156210000Y-84997677D01*
X128270000Y-77851000D02*
X129159000Y-78740000D01*
%TO.N,Net-(D1-A)*%
X182880000Y-110490000D02*
X196850000Y-110490000D01*
X158750000Y-116840000D02*
X176530000Y-116840000D01*
X176530000Y-116840000D02*
X182880000Y-110490000D01*
D26*
%TO.N,+12V*%
X134747000Y-105283000D02*
X130810000Y-105283000D01*
X116840000Y-89140000D02*
X128891000Y-89140000D01*
X128891000Y-89140000D02*
X129159000Y-89408000D01*
X137160000Y-92710000D02*
X137160000Y-102870000D01*
X129159000Y-89408000D02*
X129159000Y-91948000D01*
X129159000Y-91948000D02*
X136398000Y-91948000D01*
D28*
X116840000Y-89140000D02*
X116840000Y-88900000D01*
D26*
X136398000Y-91948000D02*
X137160000Y-92710000D01*
%TO.N,M1*%
X114450000Y-99140000D02*
X113260000Y-100330000D01*
X113260000Y-110490000D02*
X118110000Y-110490000D01*
X116840000Y-99140000D02*
X114450000Y-99140000D01*
X118110000Y-110490000D02*
X121920000Y-114300000D01*
X122174000Y-114046000D02*
X130810000Y-114046000D01*
X121920000Y-114300000D02*
X122174000Y-114046000D01*
X113260000Y-100330000D02*
X113260000Y-110490000D01*
%TO.N,M2*%
X130810000Y-110490000D02*
X123190000Y-110490000D01*
X123190000Y-110490000D02*
X116840000Y-104140000D01*
D27*
%TO.N,+3.3V*%
X155620323Y-89408000D02*
X156210000Y-89997677D01*
X147701000Y-89408000D02*
X155620323Y-89408000D01*
X147701000Y-89408000D02*
X147701000Y-92075000D01*
%TO.N,Net-(J3-Pin_1)*%
X153710000Y-76240000D02*
X156210000Y-78740000D01*
X151170000Y-69850000D02*
X153710000Y-72390000D01*
X140970000Y-72390000D02*
X143510000Y-69850000D01*
X143510000Y-69850000D02*
X151170000Y-69850000D01*
X135890000Y-72390000D02*
X140970000Y-72390000D01*
X153710000Y-72390000D02*
X153710000Y-76240000D01*
%TO.N,Net-(J4-Pin_2)*%
X189230000Y-88900000D02*
X190500000Y-88900000D01*
X193040000Y-81280000D02*
X195580000Y-81280000D01*
X193040000Y-86360000D02*
X193040000Y-81280000D01*
X190500000Y-88900000D02*
X193040000Y-86360000D01*
%TO.N,STATUS*%
X184150000Y-107950000D02*
X196850000Y-107950000D01*
X166370000Y-93980000D02*
X170180000Y-93980000D01*
X170180000Y-93980000D02*
X184150000Y-107950000D01*
%TD*%
M02*
