%TF.GenerationSoftware,KiCad,Pcbnew,7.0.11+dfsg-1build4*%
%TF.CreationDate,2026-02-13T16:56:01+01:00*%
%TF.ProjectId,chicken_coop,63686963-6b65-46e5-9f63-6f6f702e6b69,rev?*%
%TF.SameCoordinates,Original*%
%TF.FileFunction,Soldermask,Bot*%
%TF.FilePolarity,Negative*%
%FSLAX46Y46*%
G04 Gerber Fmt 4.6, Leading zero omitted, Abs format (unit mm)*
G04 Created by KiCad (PCBNEW 7.0.11+dfsg-1build4) date 2026-02-13 16:56:01*
%MOMM*%
%LPD*%
G01*
G04 APERTURE LIST*
%ADD10R,1.700000X1.700000*%
%ADD11O,1.700000X1.700000*%
%ADD12R,2.000000X2.000000*%
%ADD13C,2.000000*%
%ADD14C,1.600000*%
%ADD15O,1.600000X1.600000*%
%ADD16C,3.200000*%
%ADD17C,1.524000*%
%ADD18C,3.000000*%
%ADD19O,3.048800X1.626400*%
%ADD20R,2.600000X2.600000*%
%ADD21C,2.600000*%
G04 APERTURE END LIST*
D10*
%TO.C,J4*%
X196850000Y-83820000D03*
D11*
X196850000Y-81280000D03*
%TD*%
D12*
%TO.C,C1*%
X156210000Y-89997677D03*
D13*
X156210000Y-84997677D03*
%TD*%
D14*
%TO.C,R2*%
X135890000Y-72390000D03*
D15*
X128270000Y-72390000D03*
%TD*%
D14*
%TO.C,R1*%
X148590000Y-72390000D03*
D15*
X140970000Y-72390000D03*
%TD*%
D14*
%TO.C,C2*%
X153710000Y-72390000D03*
X158710000Y-72390000D03*
%TD*%
D10*
%TO.C,J3*%
X156210000Y-77470000D03*
%TD*%
%TO.C,J2*%
X196850000Y-92710000D03*
D11*
X196850000Y-95250000D03*
X196850000Y-97790000D03*
X196850000Y-100330000D03*
%TD*%
D16*
%TO.C,REF\u002A\u002A*%
X116840000Y-119380000D03*
%TD*%
%TO.C,REF\u002A\u002A*%
X195580000Y-119380000D03*
%TD*%
%TO.C,REF\u002A\u002A*%
X195580000Y-73660000D03*
%TD*%
%TO.C,REF\u002A\u002A*%
X116840000Y-73660000D03*
%TD*%
D17*
%TO.C,U3*%
X148590000Y-106680000D03*
X148590000Y-104140000D03*
X148590000Y-109220000D03*
X148590000Y-111760000D03*
D18*
X130810000Y-114046000D03*
X130810000Y-110490000D03*
X130810000Y-105283000D03*
X130810000Y-101790000D03*
%TD*%
D19*
%TO.C,U1*%
X166370000Y-83820000D03*
X166370000Y-86360000D03*
X166370000Y-88900000D03*
X166370000Y-91440000D03*
X166370000Y-93980000D03*
X166370000Y-96520000D03*
X166370000Y-99060000D03*
X166370000Y-101600000D03*
X189230000Y-101600000D03*
X189230000Y-99060000D03*
X189230000Y-96520000D03*
X189230000Y-93980000D03*
X189230000Y-91440000D03*
X189230000Y-88900000D03*
X189230000Y-86360000D03*
X189230000Y-83820000D03*
%TD*%
D17*
%TO.C,U2*%
X129159000Y-91948000D03*
X129159000Y-89408000D03*
X129159000Y-81280000D03*
X129159000Y-78740000D03*
X147701000Y-78740000D03*
X147701000Y-81280000D03*
X147701000Y-89408000D03*
X147701000Y-92075000D03*
%TD*%
D20*
%TO.C,J1*%
X116840000Y-89140000D03*
D21*
X116840000Y-94140000D03*
X116840000Y-99140000D03*
X116840000Y-104140000D03*
%TD*%
M02*
