M48
; DRILL file {KiCad 7.0.11+dfsg-1build4} date Fri 13 Feb 2026 04:58:48 PM CET
; FORMAT={-:-/ absolute / metric / decimal}
; #@! TF.CreationDate,2026-02-13T16:58:48+01:00
; #@! TF.GenerationSoftware,Kicad,Pcbnew,7.0.11+dfsg-1build4
; #@! TF.FileFunction,Plated,1,2,PTH
FMAT,2
METRIC
; #@! TA.AperFunction,Plated,PTH,ComponentDrill
T1C0.762
; #@! TA.AperFunction,Plated,PTH,ComponentDrill
T2C0.800
; #@! TA.AperFunction,Plated,PTH,ComponentDrill
T3C1.000
; #@! TA.AperFunction,Plated,PTH,ComponentDrill
T4C1.300
%
G90
G05
T1
X129.159Y-78.74
X129.159Y-81.28
X129.159Y-89.408
X129.159Y-91.948
X147.701Y-78.74
X147.701Y-81.28
X147.701Y-89.408
X147.701Y-92.075
X148.59Y-104.14
X148.59Y-106.68
X148.59Y-109.22
X148.59Y-111.76
T2
X128.27Y-72.39
X135.89Y-72.39
X140.97Y-72.39
X148.59Y-72.39
X153.71Y-72.39
X158.71Y-72.39
T3
X130.81Y-101.79
X130.81Y-105.283
X130.81Y-110.49
X130.81Y-114.046
X156.21Y-77.47
X156.21Y-84.998
X156.21Y-89.998
X166.37Y-83.82
X166.37Y-86.36
X166.37Y-88.9
X166.37Y-91.44
X166.37Y-93.98
X166.37Y-96.52
X166.37Y-99.06
X166.37Y-101.6
X189.23Y-83.82
X189.23Y-86.36
X189.23Y-88.9
X189.23Y-91.44
X189.23Y-93.98
X189.23Y-96.52
X189.23Y-99.06
X189.23Y-101.6
X196.85Y-81.28
X196.85Y-83.82
X196.85Y-92.71
X196.85Y-95.25
X196.85Y-97.79
X196.85Y-100.33
T4
X116.84Y-89.14
X116.84Y-94.14
X116.84Y-99.14
X116.84Y-104.14
M30
