<?xml version="1.0" standalone="no"?>
 <!DOCTYPE svg PUBLIC "-//W3C//DTD SVG 1.1//EN" 
 "http://www.w3.org/Graphics/SVG/1.1/DTD/svg11.dtd"> 
<svg
  xmlns:svg="http://www.w3.org/2000/svg"
  xmlns="http://www.w3.org/2000/svg"
  xmlns:xlink="http://www.w3.org/1999/xlink"
  version="1.1"
  width="297.0022mm" height="210.0072mm" viewBox="0.0000 0.0000 297.0022 210.0072">
<title>SVG Image created as chicken_coop-B_Cu.svg date 2026/02/20 19:48:40 </title>
  <desc>Image generated by PCBNEW </desc>
<g style="fill:#000000; fill-opacity:1.0000;stroke:#000000; stroke-opacity:1.0000;
stroke-linecap:round; stroke-linejoin:round;"
 transform="translate(0 0) scale(1 1)">
</g>
<g style="fill:#000000; fill-opacity:1.0000; stroke:none;">
<circle cx="148.5900" cy="72.3900" r="0.8000" /> 
</g>
<g style="fill:#000000; fill-opacity:1.0000; stroke:none;">
<circle cx="140.9700" cy="72.3900" r="0.8000" /> 
</g>
<g style="fill:none; 
stroke:#000000; stroke-width:1.4224; stroke-opacity:1; 
stroke-linecap:round; stroke-linejoin:round;">
<path d="M165.6588 83.8200
L167.0812 83.8200
" />
<path d="M165.6588 86.3600
L167.0812 86.3600
" />
<path d="M165.6588 88.9000
L167.0812 88.9000
" />
<path d="M165.6588 91.4400
L167.0812 91.4400
" />
<path d="M165.6588 93.9800
L167.0812 93.9800
" />
<path d="M165.6588 96.5200
L167.0812 96.5200
" />
<path d="M165.6588 99.0600
L167.0812 99.0600
" />
<path d="M165.6588 101.6000
L167.0812 101.6000
" />
<path d="M188.5188 101.6000
L189.9412 101.6000
" />
<path d="M188.5188 99.0600
L189.9412 99.0600
" />
<path d="M188.5188 96.5200
L189.9412 96.5200
" />
<path d="M188.5188 93.9800
L189.9412 93.9800
" />
<path d="M188.5188 91.4400
L189.9412 91.4400
" />
<path d="M188.5188 88.9000
L189.9412 88.9000
" />
<path d="M188.5188 86.3600
L189.9412 86.3600
" />
<path d="M188.5188 83.8200
L189.9412 83.8200
" />
<path style="fill:#000000; fill-opacity:1.0000; stroke:none;fill-rule:evenodd;"
d="M 157.2100,90.9977
155.2100,90.9977
155.2100,88.9977
157.2100,88.9977
Z" /> 
</g>
<g style="fill:#000000; fill-opacity:1.0000; stroke:none;">
<circle cx="156.2100" cy="84.9977" r="1.0000" /> 
<path style="fill:#000000; fill-opacity:1.0000; stroke:none;fill-rule:evenodd;"
d="M 155.3600,78.3200
155.3600,76.6200
157.0600,76.6200
157.0600,78.3200
Z" /> 
</g>
<g style="fill:#000000; fill-opacity:1.0000; stroke:none;">
<circle cx="129.1590" cy="91.9480" r="0.7620" /> 
</g>
<g style="fill:#000000; fill-opacity:1.0000; stroke:none;">
<circle cx="129.1590" cy="89.4080" r="0.7620" /> 
</g>
<g style="fill:#000000; fill-opacity:1.0000; stroke:none;">
<circle cx="129.1590" cy="81.2800" r="0.7620" /> 
</g>
<g style="fill:#000000; fill-opacity:1.0000; stroke:none;">
<circle cx="129.1590" cy="78.7400" r="0.7620" /> 
</g>
<g style="fill:#000000; fill-opacity:1.0000; stroke:none;">
<circle cx="147.7010" cy="78.7400" r="0.7620" /> 
</g>
<g style="fill:#000000; fill-opacity:1.0000; stroke:none;">
<circle cx="147.7010" cy="81.2800" r="0.7620" /> 
</g>
<g style="fill:#000000; fill-opacity:1.0000; stroke:none;">
<circle cx="147.7010" cy="89.4080" r="0.7620" /> 
</g>
<g style="fill:#000000; fill-opacity:1.0000; stroke:none;">
<circle cx="147.7010" cy="92.0750" r="0.7620" /> 
</g>
<g style="fill:#000000; fill-opacity:1.0000; stroke:none;">
<circle cx="135.8900" cy="72.3900" r="0.8000" /> 
</g>
<g style="fill:#000000; fill-opacity:1.0000; stroke:none;">
<circle cx="128.2700" cy="72.3900" r="0.8000" /> 
<path style="fill:#000000; fill-opacity:1.0000; stroke:none;fill-rule:evenodd;"
d="M 115.5400,87.8400
118.1400,87.8400
118.1400,90.4400
115.5400,90.4400
Z" /> 
<circle cx="116.8400" cy="94.1400" r="1.3000" /> 
</g>
<g style="fill:#000000; fill-opacity:1.0000; stroke:none;">
<circle cx="116.8400" cy="99.1400" r="1.3000" /> 
</g>
<g style="fill:#000000; fill-opacity:1.0000; stroke:none;">
<circle cx="116.8400" cy="104.1400" r="1.3000" /> 
<path style="fill:#000000; fill-opacity:1.0000; stroke:none;fill-rule:evenodd;"
d="M 196.0000,93.5600
196.0000,91.8600
197.7000,91.8600
197.7000,93.5600
Z" /> 
</g>
<g style="fill:#000000; fill-opacity:1.0000; stroke:none;">
<circle cx="196.8500" cy="95.2500" r="0.8500" /> 
<circle cx="196.8500" cy="97.7900" r="0.8500" /> 
<circle cx="196.8500" cy="100.3300" r="0.8500" /> 
<path style="fill:#000000; fill-opacity:1.0000; stroke:none;fill-rule:evenodd;"
d="M 197.7000,82.9700
197.7000,84.6700
196.0000,84.6700
196.0000,82.9700
Z" /> 
<circle cx="196.8500" cy="81.2800" r="0.8500" /> 
<circle cx="148.5900" cy="106.6800" r="0.7620" /> 
</g>
<g style="fill:#000000; fill-opacity:1.0000; stroke:none;">
<circle cx="148.5900" cy="104.1400" r="0.7620" /> 
</g>
<g style="fill:#000000; fill-opacity:1.0000; stroke:none;">
<circle cx="148.5900" cy="109.2200" r="0.7620" /> 
</g>
<g style="fill:#000000; fill-opacity:1.0000; stroke:none;">
<circle cx="148.5900" cy="111.7600" r="0.7620" /> 
</g>
<g style="fill:#000000; fill-opacity:1.0000; stroke:none;">
<circle cx="130.8100" cy="114.0460" r="1.5000" /> 
</g>
<g style="fill:#000000; fill-opacity:1.0000; stroke:none;">
<circle cx="130.8100" cy="110.4900" r="1.5000" /> 
</g>
<g style="fill:#000000; fill-opacity:1.0000; stroke:none;">
<circle cx="130.8100" cy="105.2830" r="1.5000" /> 
</g>
<g style="fill:#000000; fill-opacity:1.0000; stroke:none;">
<circle cx="130.8100" cy="101.7900" r="1.5000" /> 
</g>
<g style="fill:#000000; fill-opacity:1.0000; stroke:none;">
<circle cx="153.7100" cy="72.3900" r="0.8000" /> 
</g>
<g style="fill:#000000; fill-opacity:1.0000; stroke:none;">
<circle cx="158.7100" cy="72.3900" r="0.8000" /> 
</g>
<g style="fill:none; 
stroke:#000000; stroke-width:1.0000; stroke-opacity:1; 
stroke-linecap:round; stroke-linejoin:round;">
<path d="M148.5900 85.0900
L148.6823 84.9977
" />
<path d="M195.5800 83.8200
L195.5800 86.3600
" />
<path d="M189.2300 101.6000
L193.0400 101.6000
" />
<path d="M147.7010 78.7400
L147.7010 81.2800
" />
<path d="M158.7100 72.3900
L158.7100 82.4977
" />
<path d="M148.6823 84.9977
L156.2100 84.9977
" />
</g>
<g style="fill:none; 
stroke:#000000; stroke-width:2.0000; stroke-opacity:1; 
stroke-linecap:round; stroke-linejoin:round;">
<path d="M116.8400 81.2800
L129.1590 81.2800
" />
<path d="M129.1590 81.2800
L129.1590 78.7400
" />
<path d="M113.2600 91.4400
L113.2600 84.8600
" />
<path d="M116.8400 94.1400
L122.0800 94.1400
" />
<path d="M113.2600 84.8600
L116.8400 81.2800
" />
</g>
<g style="fill:none; 
stroke:#000000; stroke-width:1.0000; stroke-opacity:1; 
stroke-linecap:round; stroke-linejoin:round;">
<path d="M157.5723 86.3600
L165.1000 86.3600
" />
<path d="M196.2850 95.2500
L193.0400 95.2500
" />
</g>
<g style="fill:none; 
stroke:#000000; stroke-width:2.0000; stroke-opacity:1; 
stroke-linecap:round; stroke-linejoin:round;">
<path d="M122.0800 94.1400
L127.0000 99.0600
" />
<path d="M127.0000 99.0600
L128.0800 99.0600
" />
</g>
<g style="fill:none; 
stroke:#000000; stroke-width:1.0000; stroke-opacity:1; 
stroke-linecap:round; stroke-linejoin:round;">
<path d="M165.1000 86.3600
L172.7200 86.3600
" />
<path d="M128.2700 72.3900
L128.2700 77.8510
" />
<path d="M156.2100 84.9977
L157.5723 86.3600
" />
</g>
<g style="fill:none; 
stroke:#000000; stroke-width:2.0000; stroke-opacity:1; 
stroke-linecap:round; stroke-linejoin:round;">
<path d="M128.0800 99.0600
L130.8100 101.7900
" />
</g>
<g style="fill:none; 
stroke:#000000; stroke-width:1.0000; stroke-opacity:1; 
stroke-linecap:round; stroke-linejoin:round;">
<path d="M172.7200 86.3600
L177.8000 91.4400
" />
<path d="M195.5800 86.3600
L193.0400 88.9000
" />
<path d="M193.0400 95.2500
L193.0400 91.4400
" />
</g>
<g style="fill:none; 
stroke:#000000; stroke-width:2.0000; stroke-opacity:1; 
stroke-linecap:round; stroke-linejoin:round;">
<path d="M114.1400 91.4400
L113.2600 91.4400
" />
</g>
<g style="fill:none; 
stroke:#000000; stroke-width:1.0000; stroke-opacity:1; 
stroke-linecap:round; stroke-linejoin:round;">
<path d="M129.1590 78.7400
L147.7010 78.7400
" />
<path d="M193.0400 88.9000
L193.0400 91.4400
" />
<path d="M177.8000 91.4400
L187.9600 91.4400
" />
<path d="M147.7010 84.2010
L148.5900 85.0900
" />
<path d="M147.7010 81.2800
L147.7010 84.2010
" />
</g>
<g style="fill:none; 
stroke:#000000; stroke-width:2.0000; stroke-opacity:1; 
stroke-linecap:round; stroke-linejoin:round;">
<path d="M116.8400 94.1400
L114.1400 91.4400
" />
</g>
<g style="fill:none; 
stroke:#000000; stroke-width:1.0000; stroke-opacity:1; 
stroke-linecap:round; stroke-linejoin:round;">
<path d="M193.0400 91.4400
L189.2300 91.4400
" />
<path d="M193.0400 101.6000
L193.0400 95.2500
" />
<path d="M158.7100 82.4977
L156.2100 84.9977
" />
<path d="M128.2700 77.8510
L129.1590 78.7400
" />
</g>
<g style="fill:none; 
stroke:#000000; stroke-width:2.0000; stroke-opacity:1; 
stroke-linecap:round; stroke-linejoin:round;">
<path d="M137.1600 102.8700
L134.7470 105.2830
" />
<path d="M134.7470 105.2830
L130.8100 105.2830
" />
<path d="M116.8400 89.1400
L128.8910 89.1400
" />
<path d="M128.8910 89.1400
L129.1590 89.4080
" />
<path d="M137.1600 92.7100
L137.1600 102.8700
" />
<path d="M129.1590 89.4080
L129.1590 91.9480
" />
</g>
<g style="fill:none; 
stroke:#000000; stroke-width:1.0000; stroke-opacity:1; 
stroke-linecap:round; stroke-linejoin:round;">
<path d="M148.5900 109.2200
L143.5100 109.2200
" />
<path d="M143.5100 109.2200
L137.1600 102.8700
" />
</g>
<g style="fill:none; 
stroke:#000000; stroke-width:2.0000; stroke-opacity:1; 
stroke-linecap:round; stroke-linejoin:round;">
<path d="M129.1590 91.9480
L136.3980 91.9480
" />
</g>
<g style="fill:none; 
stroke:#000000; stroke-width:0.2000; stroke-opacity:1; 
stroke-linecap:round; stroke-linejoin:round;">
<path d="M116.8400 89.1400
L116.8400 88.9000
" />
</g>
<g style="fill:none; 
stroke:#000000; stroke-width:2.0000; stroke-opacity:1; 
stroke-linecap:round; stroke-linejoin:round;">
<path d="M136.3980 91.9480
L137.1600 92.7100
" />
</g>
<g style="fill:none; 
stroke:#000000; stroke-width:1.0000; stroke-opacity:1; 
stroke-linecap:round; stroke-linejoin:round;">
<path d="M160.0200 100.3300
L156.2100 104.1400
" />
<path d="M160.0200 88.9000
L160.0200 100.3300
" />
<path d="M165.1000 88.9000
L160.0200 88.9000
" />
<path d="M156.2100 104.1400
L148.5900 104.1400
" />
<path d="M162.5600 100.3300
L162.5600 91.4400
" />
<path d="M148.5900 106.6800
L156.2100 106.6800
" />
<path d="M156.2100 106.6800
L162.5600 100.3300
" />
<path d="M162.5600 91.4400
L165.1000 91.4400
" />
</g>
<g style="fill:none; 
stroke:#000000; stroke-width:2.0000; stroke-opacity:1; 
stroke-linecap:round; stroke-linejoin:round;">
<path d="M114.4500 99.1400
L113.2600 100.3300
" />
<path d="M113.2600 110.4900
L118.1100 110.4900
" />
<path d="M116.8400 99.1400
L114.4500 99.1400
" />
<path d="M118.1100 110.4900
L121.9200 114.3000
" />
<path d="M122.1740 114.0460
L130.8100 114.0460
" />
<path d="M121.9200 114.3000
L122.1740 114.0460
" />
<path d="M113.2600 100.3300
L113.2600 110.4900
" />
<path d="M130.8100 110.4900
L123.1900 110.4900
" />
<path d="M123.1900 110.4900
L116.8400 104.1400
" />
</g>
<g style="fill:none; 
stroke:#000000; stroke-width:1.0000; stroke-opacity:1; 
stroke-linecap:round; stroke-linejoin:round;">
<path d="M155.6203 89.4080
L156.2100 89.9977
" />
<path d="M147.7010 89.4080
L155.6203 89.4080
" />
<path d="M147.7010 89.4080
L147.7010 92.0750
" />
<path d="M153.7100 76.2400
L156.2100 78.7400
" />
<path d="M151.1700 69.8500
L153.7100 72.3900
" />
<path d="M140.9700 72.3900
L143.5100 69.8500
" />
<path d="M143.5100 69.8500
L151.1700 69.8500
" />
<path d="M135.8900 72.3900
L140.9700 72.3900
" />
<path d="M153.7100 72.3900
L153.7100 76.2400
" />
<path d="M189.2300 88.9000
L190.5000 88.9000
" />
<path d="M193.0400 81.2800
L195.5800 81.2800
" />
<path d="M193.0400 86.3600
L193.0400 81.2800
" />
<path d="M190.5000 88.9000
L193.0400 86.3600
" />
</g> 
</svg>
