<?xml version="1.0" standalone="no"?>
 <!DOCTYPE svg PUBLIC "-//W3C//DTD SVG 1.1//EN" 
 "http://www.w3.org/Graphics/SVG/1.1/DTD/svg11.dtd"> 
<svg
  xmlns:svg="http://www.w3.org/2000/svg"
  xmlns="http://www.w3.org/2000/svg"
  xmlns:xlink="http://www.w3.org/1999/xlink"
  version="1.1"
  width="297.0022mm" height="210.0072mm" viewBox="0.0000 0.0000 297.0022 210.0072">
<title>SVG Image created as chicken_coop-F_Silkscreen.svg date 2026/02/20 19:48:41 </title>
  <desc>Image generated by PCBNEW </desc>
<g style="fill:#000000; fill-opacity:1.0000;stroke:#000000; stroke-opacity:1.0000;
stroke-linecap:round; stroke-linejoin:round;"
 transform="translate(0 0) scale(1 1)">
</g>
<g style="fill:none; 
stroke:#000000; stroke-width:0.1000; stroke-opacity:1; 
stroke-linecap:round; stroke-linejoin:round;">
<text x="123.1900" y="121.9200"
textLength="65.9952" font-size="2.6667" lengthAdjust="spacingAndGlyphs"
text-anchor="start" opacity="0" stroke-opacity="0">Lieven Merckx 2026-02-13  Chicken coop</text>
<g class="stroked-text"><desc>Lieven Merckx 2026-02-13  Chicken coop</desc>
<path d="M124.6844 121.6700
L123.7320 121.6700
" />
<path d="M123.7320 121.6700
L123.7320 119.6700
" />
<path d="M125.3510 121.6700
L125.3510 120.3367
" />
<path d="M125.3510 119.6700
L125.2558 119.7653
" />
<path d="M125.2558 119.7653
L125.3510 119.8605
" />
<path d="M125.3510 119.8605
L125.4463 119.7653
" />
<path d="M125.4463 119.7653
L125.3510 119.6700
" />
<path d="M125.3510 119.6700
L125.3510 119.8605
" />
<path d="M127.0653 121.5748
L126.8748 121.6700
" />
<path d="M126.8748 121.6700
L126.4939 121.6700
" />
<path d="M126.4939 121.6700
L126.3034 121.5748
" />
<path d="M126.3034 121.5748
L126.2082 121.3843
" />
<path d="M126.2082 121.3843
L126.2082 120.6224
" />
<path d="M126.2082 120.6224
L126.3034 120.4319
" />
<path d="M126.3034 120.4319
L126.4939 120.3367
" />
<path d="M126.4939 120.3367
L126.8748 120.3367
" />
<path d="M126.8748 120.3367
L127.0653 120.4319
" />
<path d="M127.0653 120.4319
L127.1606 120.6224
" />
<path d="M127.1606 120.6224
L127.1606 120.8129
" />
<path d="M127.1606 120.8129
L126.2082 121.0034
" />
<path d="M127.8272 120.3367
L128.3034 121.6700
" />
<path d="M128.3034 121.6700
L128.7796 120.3367
" />
<path d="M130.3034 121.5748
L130.1129 121.6700
" />
<path d="M130.1129 121.6700
L129.7320 121.6700
" />
<path d="M129.7320 121.6700
L129.5415 121.5748
" />
<path d="M129.5415 121.5748
L129.4463 121.3843
" />
<path d="M129.4463 121.3843
L129.4463 120.6224
" />
<path d="M129.4463 120.6224
L129.5415 120.4319
" />
<path d="M129.5415 120.4319
L129.7320 120.3367
" />
<path d="M129.7320 120.3367
L130.1129 120.3367
" />
<path d="M130.1129 120.3367
L130.3034 120.4319
" />
<path d="M130.3034 120.4319
L130.3986 120.6224
" />
<path d="M130.3986 120.6224
L130.3986 120.8129
" />
<path d="M130.3986 120.8129
L129.4463 121.0034
" />
<path d="M131.2558 120.3367
L131.2558 121.6700
" />
<path d="M131.2558 120.5272
L131.3510 120.4319
" />
<path d="M131.3510 120.4319
L131.5415 120.3367
" />
<path d="M131.5415 120.3367
L131.8272 120.3367
" />
<path d="M131.8272 120.3367
L132.0177 120.4319
" />
<path d="M132.0177 120.4319
L132.1129 120.6224
" />
<path d="M132.1129 120.6224
L132.1129 121.6700
" />
<path d="M134.5891 121.6700
L134.5891 119.6700
" />
<path d="M134.5891 119.6700
L135.2558 121.0986
" />
<path d="M135.2558 121.0986
L135.9225 119.6700
" />
<path d="M135.9225 119.6700
L135.9225 121.6700
" />
<path d="M137.6367 121.5748
L137.4463 121.6700
" />
<path d="M137.4463 121.6700
L137.0653 121.6700
" />
<path d="M137.0653 121.6700
L136.8748 121.5748
" />
<path d="M136.8748 121.5748
L136.7796 121.3843
" />
<path d="M136.7796 121.3843
L136.7796 120.6224
" />
<path d="M136.7796 120.6224
L136.8748 120.4319
" />
<path d="M136.8748 120.4319
L137.0653 120.3367
" />
<path d="M137.0653 120.3367
L137.4463 120.3367
" />
<path d="M137.4463 120.3367
L137.6367 120.4319
" />
<path d="M137.6367 120.4319
L137.7320 120.6224
" />
<path d="M137.7320 120.6224
L137.7320 120.8129
" />
<path d="M137.7320 120.8129
L136.7796 121.0034
" />
<path d="M138.5891 121.6700
L138.5891 120.3367
" />
<path d="M138.5891 120.7177
L138.6844 120.5272
" />
<path d="M138.6844 120.5272
L138.7796 120.4319
" />
<path d="M138.7796 120.4319
L138.9701 120.3367
" />
<path d="M138.9701 120.3367
L139.1606 120.3367
" />
<path d="M140.6844 121.5748
L140.4939 121.6700
" />
<path d="M140.4939 121.6700
L140.1129 121.6700
" />
<path d="M140.1129 121.6700
L139.9225 121.5748
" />
<path d="M139.9225 121.5748
L139.8272 121.4796
" />
<path d="M139.8272 121.4796
L139.7320 121.2891
" />
<path d="M139.7320 121.2891
L139.7320 120.7177
" />
<path d="M139.7320 120.7177
L139.8272 120.5272
" />
<path d="M139.8272 120.5272
L139.9225 120.4319
" />
<path d="M139.9225 120.4319
L140.1129 120.3367
" />
<path d="M140.1129 120.3367
L140.4939 120.3367
" />
<path d="M140.4939 120.3367
L140.6844 120.4319
" />
<path d="M141.5415 121.6700
L141.5415 119.6700
" />
<path d="M141.7320 120.9081
L142.3034 121.6700
" />
<path d="M142.3034 120.3367
L141.5415 121.0986
" />
<path d="M142.9701 121.6700
L144.0177 120.3367
" />
<path d="M142.9701 120.3367
L144.0177 121.6700
" />
<path d="M146.2082 119.8605
L146.3034 119.7653
" />
<path d="M146.3034 119.7653
L146.4939 119.6700
" />
<path d="M146.4939 119.6700
L146.9701 119.6700
" />
<path d="M146.9701 119.6700
L147.1606 119.7653
" />
<path d="M147.1606 119.7653
L147.2558 119.8605
" />
<path d="M147.2558 119.8605
L147.3510 120.0510
" />
<path d="M147.3510 120.0510
L147.3510 120.2415
" />
<path d="M147.3510 120.2415
L147.2558 120.5272
" />
<path d="M147.2558 120.5272
L146.1129 121.6700
" />
<path d="M146.1129 121.6700
L147.3510 121.6700
" />
<path d="M148.5891 119.6700
L148.7796 119.6700
" />
<path d="M148.7796 119.6700
L148.9701 119.7653
" />
<path d="M148.9701 119.7653
L149.0653 119.8605
" />
<path d="M149.0653 119.8605
L149.1606 120.0510
" />
<path d="M149.1606 120.0510
L149.2558 120.4319
" />
<path d="M149.2558 120.4319
L149.2558 120.9081
" />
<path d="M149.2558 120.9081
L149.1606 121.2891
" />
<path d="M149.1606 121.2891
L149.0653 121.4796
" />
<path d="M149.0653 121.4796
L148.9701 121.5748
" />
<path d="M148.9701 121.5748
L148.7796 121.6700
" />
<path d="M148.7796 121.6700
L148.5891 121.6700
" />
<path d="M148.5891 121.6700
L148.3986 121.5748
" />
<path d="M148.3986 121.5748
L148.3034 121.4796
" />
<path d="M148.3034 121.4796
L148.2082 121.2891
" />
<path d="M148.2082 121.2891
L148.1129 120.9081
" />
<path d="M148.1129 120.9081
L148.1129 120.4319
" />
<path d="M148.1129 120.4319
L148.2082 120.0510
" />
<path d="M148.2082 120.0510
L148.3034 119.8605
" />
<path d="M148.3034 119.8605
L148.3986 119.7653
" />
<path d="M148.3986 119.7653
L148.5891 119.6700
" />
<path d="M150.0177 119.8605
L150.1129 119.7653
" />
<path d="M150.1129 119.7653
L150.3034 119.6700
" />
<path d="M150.3034 119.6700
L150.7796 119.6700
" />
<path d="M150.7796 119.6700
L150.9701 119.7653
" />
<path d="M150.9701 119.7653
L151.0653 119.8605
" />
<path d="M151.0653 119.8605
L151.1606 120.0510
" />
<path d="M151.1606 120.0510
L151.1606 120.2415
" />
<path d="M151.1606 120.2415
L151.0653 120.5272
" />
<path d="M151.0653 120.5272
L149.9225 121.6700
" />
<path d="M149.9225 121.6700
L151.1606 121.6700
" />
<path d="M152.8748 119.6700
L152.4939 119.6700
" />
<path d="M152.4939 119.6700
L152.3034 119.7653
" />
<path d="M152.3034 119.7653
L152.2082 119.8605
" />
<path d="M152.2082 119.8605
L152.0177 120.1462
" />
<path d="M152.0177 120.1462
L151.9225 120.5272
" />
<path d="M151.9225 120.5272
L151.9225 121.2891
" />
<path d="M151.9225 121.2891
L152.0177 121.4796
" />
<path d="M152.0177 121.4796
L152.1129 121.5748
" />
<path d="M152.1129 121.5748
L152.3034 121.6700
" />
<path d="M152.3034 121.6700
L152.6844 121.6700
" />
<path d="M152.6844 121.6700
L152.8748 121.5748
" />
<path d="M152.8748 121.5748
L152.9701 121.4796
" />
<path d="M152.9701 121.4796
L153.0653 121.2891
" />
<path d="M153.0653 121.2891
L153.0653 120.8129
" />
<path d="M153.0653 120.8129
L152.9701 120.6224
" />
<path d="M152.9701 120.6224
L152.8748 120.5272
" />
<path d="M152.8748 120.5272
L152.6844 120.4319
" />
<path d="M152.6844 120.4319
L152.3034 120.4319
" />
<path d="M152.3034 120.4319
L152.1129 120.5272
" />
<path d="M152.1129 120.5272
L152.0177 120.6224
" />
<path d="M152.0177 120.6224
L151.9225 120.8129
" />
<path d="M153.9225 120.9081
L155.4463 120.9081
" />
<path d="M156.7796 119.6700
L156.9701 119.6700
" />
<path d="M156.9701 119.6700
L157.1606 119.7653
" />
<path d="M157.1606 119.7653
L157.2558 119.8605
" />
<path d="M157.2558 119.8605
L157.3510 120.0510
" />
<path d="M157.3510 120.0510
L157.4463 120.4319
" />
<path d="M157.4463 120.4319
L157.4463 120.9081
" />
<path d="M157.4463 120.9081
L157.3510 121.2891
" />
<path d="M157.3510 121.2891
L157.2558 121.4796
" />
<path d="M157.2558 121.4796
L157.1606 121.5748
" />
<path d="M157.1606 121.5748
L156.9701 121.6700
" />
<path d="M156.9701 121.6700
L156.7796 121.6700
" />
<path d="M156.7796 121.6700
L156.5891 121.5748
" />
<path d="M156.5891 121.5748
L156.4939 121.4796
" />
<path d="M156.4939 121.4796
L156.3986 121.2891
" />
<path d="M156.3986 121.2891
L156.3034 120.9081
" />
<path d="M156.3034 120.9081
L156.3034 120.4319
" />
<path d="M156.3034 120.4319
L156.3986 120.0510
" />
<path d="M156.3986 120.0510
L156.4939 119.8605
" />
<path d="M156.4939 119.8605
L156.5891 119.7653
" />
<path d="M156.5891 119.7653
L156.7796 119.6700
" />
<path d="M158.2082 119.8605
L158.3034 119.7653
" />
<path d="M158.3034 119.7653
L158.4939 119.6700
" />
<path d="M158.4939 119.6700
L158.9701 119.6700
" />
<path d="M158.9701 119.6700
L159.1606 119.7653
" />
<path d="M159.1606 119.7653
L159.2558 119.8605
" />
<path d="M159.2558 119.8605
L159.3510 120.0510
" />
<path d="M159.3510 120.0510
L159.3510 120.2415
" />
<path d="M159.3510 120.2415
L159.2558 120.5272
" />
<path d="M159.2558 120.5272
L158.1129 121.6700
" />
<path d="M158.1129 121.6700
L159.3510 121.6700
" />
<path d="M160.2082 120.9081
L161.7320 120.9081
" />
<path d="M163.7320 121.6700
L162.5891 121.6700
" />
<path d="M163.1606 121.6700
L163.1606 119.6700
" />
<path d="M163.1606 119.6700
L162.9701 119.9558
" />
<path d="M162.9701 119.9558
L162.7796 120.1462
" />
<path d="M162.7796 120.1462
L162.5891 120.2415
" />
<path d="M164.3986 119.6700
L165.6367 119.6700
" />
<path d="M165.6367 119.6700
L164.9701 120.4319
" />
<path d="M164.9701 120.4319
L165.2558 120.4319
" />
<path d="M165.2558 120.4319
L165.4463 120.5272
" />
<path d="M165.4463 120.5272
L165.5415 120.6224
" />
<path d="M165.5415 120.6224
L165.6367 120.8129
" />
<path d="M165.6367 120.8129
L165.6367 121.2891
" />
<path d="M165.6367 121.2891
L165.5415 121.4796
" />
<path d="M165.5415 121.4796
L165.4463 121.5748
" />
<path d="M165.4463 121.5748
L165.2558 121.6700
" />
<path d="M165.2558 121.6700
L164.6844 121.6700
" />
<path d="M164.6844 121.6700
L164.4939 121.5748
" />
<path d="M164.4939 121.5748
L164.3986 121.4796
" />
<path d="M170.6844 121.4796
L170.5891 121.5748
" />
<path d="M170.5891 121.5748
L170.3034 121.6700
" />
<path d="M170.3034 121.6700
L170.1129 121.6700
" />
<path d="M170.1129 121.6700
L169.8272 121.5748
" />
<path d="M169.8272 121.5748
L169.6367 121.3843
" />
<path d="M169.6367 121.3843
L169.5415 121.1938
" />
<path d="M169.5415 121.1938
L169.4463 120.8129
" />
<path d="M169.4463 120.8129
L169.4463 120.5272
" />
<path d="M169.4463 120.5272
L169.5415 120.1462
" />
<path d="M169.5415 120.1462
L169.6367 119.9558
" />
<path d="M169.6367 119.9558
L169.8272 119.7653
" />
<path d="M169.8272 119.7653
L170.1129 119.6700
" />
<path d="M170.1129 119.6700
L170.3034 119.6700
" />
<path d="M170.3034 119.6700
L170.5891 119.7653
" />
<path d="M170.5891 119.7653
L170.6844 119.8605
" />
<path d="M171.5415 121.6700
L171.5415 119.6700
" />
<path d="M172.3987 121.6700
L172.3987 120.6224
" />
<path d="M172.3987 120.6224
L172.3034 120.4319
" />
<path d="M172.3034 120.4319
L172.1129 120.3367
" />
<path d="M172.1129 120.3367
L171.8272 120.3367
" />
<path d="M171.8272 120.3367
L171.6367 120.4319
" />
<path d="M171.6367 120.4319
L171.5415 120.5272
" />
<path d="M173.3510 121.6700
L173.3510 120.3367
" />
<path d="M173.3510 119.6700
L173.2558 119.7653
" />
<path d="M173.2558 119.7653
L173.3510 119.8605
" />
<path d="M173.3510 119.8605
L173.4463 119.7653
" />
<path d="M173.4463 119.7653
L173.3510 119.6700
" />
<path d="M173.3510 119.6700
L173.3510 119.8605
" />
<path d="M175.1606 121.5748
L174.9701 121.6700
" />
<path d="M174.9701 121.6700
L174.5891 121.6700
" />
<path d="M174.5891 121.6700
L174.3987 121.5748
" />
<path d="M174.3987 121.5748
L174.3034 121.4796
" />
<path d="M174.3034 121.4796
L174.2082 121.2891
" />
<path d="M174.2082 121.2891
L174.2082 120.7177
" />
<path d="M174.2082 120.7177
L174.3034 120.5272
" />
<path d="M174.3034 120.5272
L174.3987 120.4319
" />
<path d="M174.3987 120.4319
L174.5891 120.3367
" />
<path d="M174.5891 120.3367
L174.9701 120.3367
" />
<path d="M174.9701 120.3367
L175.1606 120.4319
" />
<path d="M176.0177 121.6700
L176.0177 119.6700
" />
<path d="M176.2082 120.9081
L176.7796 121.6700
" />
<path d="M176.7796 120.3367
L176.0177 121.0986
" />
<path d="M178.3987 121.5748
L178.2082 121.6700
" />
<path d="M178.2082 121.6700
L177.8272 121.6700
" />
<path d="M177.8272 121.6700
L177.6367 121.5748
" />
<path d="M177.6367 121.5748
L177.5415 121.3843
" />
<path d="M177.5415 121.3843
L177.5415 120.6224
" />
<path d="M177.5415 120.6224
L177.6367 120.4319
" />
<path d="M177.6367 120.4319
L177.8272 120.3367
" />
<path d="M177.8272 120.3367
L178.2082 120.3367
" />
<path d="M178.2082 120.3367
L178.3987 120.4319
" />
<path d="M178.3987 120.4319
L178.4939 120.6224
" />
<path d="M178.4939 120.6224
L178.4939 120.8129
" />
<path d="M178.4939 120.8129
L177.5415 121.0034
" />
<path d="M179.3510 120.3367
L179.3510 121.6700
" />
<path d="M179.3510 120.5272
L179.4463 120.4319
" />
<path d="M179.4463 120.4319
L179.6367 120.3367
" />
<path d="M179.6367 120.3367
L179.9225 120.3367
" />
<path d="M179.9225 120.3367
L180.1129 120.4319
" />
<path d="M180.1129 120.4319
L180.2082 120.6224
" />
<path d="M180.2082 120.6224
L180.2082 121.6700
" />
<path d="M183.5415 121.5748
L183.3510 121.6700
" />
<path d="M183.3510 121.6700
L182.9701 121.6700
" />
<path d="M182.9701 121.6700
L182.7796 121.5748
" />
<path d="M182.7796 121.5748
L182.6844 121.4796
" />
<path d="M182.6844 121.4796
L182.5891 121.2891
" />
<path d="M182.5891 121.2891
L182.5891 120.7177
" />
<path d="M182.5891 120.7177
L182.6844 120.5272
" />
<path d="M182.6844 120.5272
L182.7796 120.4319
" />
<path d="M182.7796 120.4319
L182.9701 120.3367
" />
<path d="M182.9701 120.3367
L183.3510 120.3367
" />
<path d="M183.3510 120.3367
L183.5415 120.4319
" />
<path d="M184.6844 121.6700
L184.4939 121.5748
" />
<path d="M184.4939 121.5748
L184.3987 121.4796
" />
<path d="M184.3987 121.4796
L184.3034 121.2891
" />
<path d="M184.3034 121.2891
L184.3034 120.7177
" />
<path d="M184.3034 120.7177
L184.3987 120.5272
" />
<path d="M184.3987 120.5272
L184.4939 120.4319
" />
<path d="M184.4939 120.4319
L184.6844 120.3367
" />
<path d="M184.6844 120.3367
L184.9701 120.3367
" />
<path d="M184.9701 120.3367
L185.1606 120.4319
" />
<path d="M185.1606 120.4319
L185.2558 120.5272
" />
<path d="M185.2558 120.5272
L185.3510 120.7177
" />
<path d="M185.3510 120.7177
L185.3510 121.2891
" />
<path d="M185.3510 121.2891
L185.2558 121.4796
" />
<path d="M185.2558 121.4796
L185.1606 121.5748
" />
<path d="M185.1606 121.5748
L184.9701 121.6700
" />
<path d="M184.9701 121.6700
L184.6844 121.6700
" />
<path d="M186.4939 121.6700
L186.3034 121.5748
" />
<path d="M186.3034 121.5748
L186.2082 121.4796
" />
<path d="M186.2082 121.4796
L186.1129 121.2891
" />
<path d="M186.1129 121.2891
L186.1129 120.7177
" />
<path d="M186.1129 120.7177
L186.2082 120.5272
" />
<path d="M186.2082 120.5272
L186.3034 120.4319
" />
<path d="M186.3034 120.4319
L186.4939 120.3367
" />
<path d="M186.4939 120.3367
L186.7796 120.3367
" />
<path d="M186.7796 120.3367
L186.9701 120.4319
" />
<path d="M186.9701 120.4319
L187.0653 120.5272
" />
<path d="M187.0653 120.5272
L187.1606 120.7177
" />
<path d="M187.1606 120.7177
L187.1606 121.2891
" />
<path d="M187.1606 121.2891
L187.0653 121.4796
" />
<path d="M187.0653 121.4796
L186.9701 121.5748
" />
<path d="M186.9701 121.5748
L186.7796 121.6700
" />
<path d="M186.7796 121.6700
L186.4939 121.6700
" />
<path d="M188.0177 120.3367
L188.0177 122.3367
" />
<path d="M188.0177 120.4319
L188.2082 120.3367
" />
<path d="M188.2082 120.3367
L188.5891 120.3367
" />
<path d="M188.5891 120.3367
L188.7796 120.4319
" />
<path d="M188.7796 120.4319
L188.8748 120.5272
" />
<path d="M188.8748 120.5272
L188.9701 120.7177
" />
<path d="M188.9701 120.7177
L188.9701 121.2891
" />
<path d="M188.9701 121.2891
L188.8748 121.4796
" />
<path d="M188.8748 121.4796
L188.7796 121.5748
" />
<path d="M188.7796 121.5748
L188.5891 121.6700
" />
<path d="M188.5891 121.6700
L188.2082 121.6700
" />
<path d="M188.2082 121.6700
L188.0177 121.5748
" />
</g></g>
<g style="fill:none; 
stroke:#000000; stroke-width:0.1500; stroke-opacity:1; 
stroke-linecap:round; stroke-linejoin:round;">
<text x="144.7800" y="75.2600"
textLength="2.2024" font-size="1.3333" lengthAdjust="spacingAndGlyphs"
text-anchor="middle" opacity="0" stroke-opacity="0">R1</text>
<g class="stroked-text"><desc>R1</desc>
<path d="M144.6133 75.2148
L144.2800 74.7386
" />
<path d="M144.0419 75.2148
L144.0419 74.2148
" />
<path d="M144.0419 74.2148
L144.4229 74.2148
" />
<path d="M144.4229 74.2148
L144.5181 74.2624
" />
<path d="M144.5181 74.2624
L144.5657 74.3101
" />
<path d="M144.5657 74.3101
L144.6133 74.4053
" />
<path d="M144.6133 74.4053
L144.6133 74.5482
" />
<path d="M144.6133 74.5482
L144.5657 74.6434
" />
<path d="M144.5657 74.6434
L144.5181 74.6910
" />
<path d="M144.5181 74.6910
L144.4229 74.7386
" />
<path d="M144.4229 74.7386
L144.0419 74.7386
" />
<path d="M145.5657 75.2148
L144.9943 75.2148
" />
<path d="M145.2800 75.2148
L145.2800 74.2148
" />
<path d="M145.2800 74.2148
L145.1848 74.3577
" />
<path d="M145.1848 74.3577
L145.0895 74.4529
" />
<path d="M145.0895 74.4529
L144.9943 74.5005
" />
</g><text x="195.5800" y="69.9600"
textLength="4.5357" font-size="1.3333" lengthAdjust="spacingAndGlyphs"
text-anchor="middle" opacity="0" stroke-opacity="0">REF**</text>
<g class="stroked-text"><desc>REF**</desc>
<path d="M194.2467 69.9148
L193.9133 69.4386
" />
<path d="M193.6752 69.9148
L193.6752 68.9148
" />
<path d="M193.6752 68.9148
L194.0562 68.9148
" />
<path d="M194.0562 68.9148
L194.1514 68.9624
" />
<path d="M194.1514 68.9624
L194.1990 69.0101
" />
<path d="M194.1990 69.0101
L194.2467 69.1053
" />
<path d="M194.2467 69.1053
L194.2467 69.2482
" />
<path d="M194.2467 69.2482
L194.1990 69.3434
" />
<path d="M194.1990 69.3434
L194.1514 69.3910
" />
<path d="M194.1514 69.3910
L194.0562 69.4386
" />
<path d="M194.0562 69.4386
L193.6752 69.4386
" />
<path d="M194.6752 69.3910
L195.0086 69.3910
" />
<path d="M195.1514 69.9148
L194.6752 69.9148
" />
<path d="M194.6752 69.9148
L194.6752 68.9148
" />
<path d="M194.6752 68.9148
L195.1514 68.9148
" />
<path d="M195.9133 69.3910
L195.5800 69.3910
" />
<path d="M195.5800 69.9148
L195.5800 68.9148
" />
<path d="M195.5800 68.9148
L196.0562 68.9148
" />
<path d="M196.5800 68.9148
L196.5800 69.1529
" />
<path d="M196.3419 69.0577
L196.5800 69.1529
" />
<path d="M196.5800 69.1529
L196.8181 69.0577
" />
<path d="M196.4371 69.3434
L196.5800 69.1529
" />
<path d="M196.5800 69.1529
L196.7229 69.3434
" />
<path d="M197.3419 68.9148
L197.3419 69.1529
" />
<path d="M197.1038 69.0577
L197.3419 69.1529
" />
<path d="M197.3419 69.1529
L197.5800 69.0577
" />
<path d="M197.1990 69.3434
L197.3419 69.1529
" />
<path d="M197.3419 69.1529
L197.4848 69.3434
" />
</g><text x="168.2750" y="77.3350"
textLength="2.2500" font-size="1.3333" lengthAdjust="spacingAndGlyphs"
text-anchor="middle" opacity="0" stroke-opacity="0">U1</text>
<g class="stroked-text"><desc>U1</desc>
<path d="M167.5131 76.2898
L167.5131 77.0993
" />
<path d="M167.5131 77.0993
L167.5607 77.1946
" />
<path d="M167.5607 77.1946
L167.6083 77.2422
" />
<path d="M167.6083 77.2422
L167.7036 77.2898
" />
<path d="M167.7036 77.2898
L167.8940 77.2898
" />
<path d="M167.8940 77.2898
L167.9893 77.2422
" />
<path d="M167.9893 77.2422
L168.0369 77.1946
" />
<path d="M168.0369 77.1946
L168.0845 77.0993
" />
<path d="M168.0845 77.0993
L168.0845 76.2898
" />
<path d="M169.0845 77.2898
L168.5131 77.2898
" />
<path d="M168.7988 77.2898
L168.7988 76.2898
" />
<path d="M168.7988 76.2898
L168.7036 76.4327
" />
<path d="M168.7036 76.4327
L168.6083 76.5279
" />
<path d="M168.6083 76.5279
L168.5131 76.5755
" />
</g><text x="179.0700" y="117.1900"
textLength="15.5860" font-size="2.2933" lengthAdjust="spacingAndGlyphs"
text-anchor="middle" opacity="0" stroke-opacity="0">ESP32-CAM</text>
<g class="stroked-text"><desc>ESP32-CAM</desc>
<path d="M171.7395 116.2170
L172.3129 116.2170
" />
<path d="M172.5586 117.1179
L171.7395 117.1179
" />
<path d="M171.7395 117.1179
L171.7395 115.3979
" />
<path d="M171.7395 115.3979
L172.5586 115.3979
" />
<path d="M173.2138 117.0360
L173.4595 117.1179
" />
<path d="M173.4595 117.1179
L173.8690 117.1179
" />
<path d="M173.8690 117.1179
L174.0329 117.0360
" />
<path d="M174.0329 117.0360
L174.1148 116.9541
" />
<path d="M174.1148 116.9541
L174.1967 116.7903
" />
<path d="M174.1967 116.7903
L174.1967 116.6265
" />
<path d="M174.1967 116.6265
L174.1148 116.4627
" />
<path d="M174.1148 116.4627
L174.0329 116.3808
" />
<path d="M174.0329 116.3808
L173.8690 116.2989
" />
<path d="M173.8690 116.2989
L173.5414 116.2170
" />
<path d="M173.5414 116.2170
L173.3776 116.1350
" />
<path d="M173.3776 116.1350
L173.2957 116.0531
" />
<path d="M173.2957 116.0531
L173.2138 115.8893
" />
<path d="M173.2138 115.8893
L173.2138 115.7255
" />
<path d="M173.2138 115.7255
L173.2957 115.5617
" />
<path d="M173.2957 115.5617
L173.3776 115.4798
" />
<path d="M173.3776 115.4798
L173.5414 115.3979
" />
<path d="M173.5414 115.3979
L173.9510 115.3979
" />
<path d="M173.9510 115.3979
L174.1967 115.4798
" />
<path d="M174.9338 117.1179
L174.9338 115.3979
" />
<path d="M174.9338 115.3979
L175.5890 115.3979
" />
<path d="M175.5890 115.3979
L175.7529 115.4798
" />
<path d="M175.7529 115.4798
L175.8348 115.5617
" />
<path d="M175.8348 115.5617
L175.9167 115.7255
" />
<path d="M175.9167 115.7255
L175.9167 115.9712
" />
<path d="M175.9167 115.9712
L175.8348 116.1350
" />
<path d="M175.8348 116.1350
L175.7529 116.2170
" />
<path d="M175.7529 116.2170
L175.5890 116.2989
" />
<path d="M175.5890 116.2989
L174.9338 116.2989
" />
<path d="M176.4900 115.3979
L177.5548 115.3979
" />
<path d="M177.5548 115.3979
L176.9814 116.0531
" />
<path d="M176.9814 116.0531
L177.2271 116.0531
" />
<path d="M177.2271 116.0531
L177.3910 116.1350
" />
<path d="M177.3910 116.1350
L177.4729 116.2170
" />
<path d="M177.4729 116.2170
L177.5548 116.3808
" />
<path d="M177.5548 116.3808
L177.5548 116.7903
" />
<path d="M177.5548 116.7903
L177.4729 116.9541
" />
<path d="M177.4729 116.9541
L177.3910 117.0360
" />
<path d="M177.3910 117.0360
L177.2271 117.1179
" />
<path d="M177.2271 117.1179
L176.7357 117.1179
" />
<path d="M176.7357 117.1179
L176.5719 117.0360
" />
<path d="M176.5719 117.0360
L176.4900 116.9541
" />
<path d="M178.2100 115.5617
L178.2919 115.4798
" />
<path d="M178.2919 115.4798
L178.4557 115.3979
" />
<path d="M178.4557 115.3979
L178.8652 115.3979
" />
<path d="M178.8652 115.3979
L179.0290 115.4798
" />
<path d="M179.0290 115.4798
L179.1110 115.5617
" />
<path d="M179.1110 115.5617
L179.1929 115.7255
" />
<path d="M179.1929 115.7255
L179.1929 115.8893
" />
<path d="M179.1929 115.8893
L179.1110 116.1350
" />
<path d="M179.1110 116.1350
L178.1281 117.1179
" />
<path d="M178.1281 117.1179
L179.1929 117.1179
" />
<path d="M179.9300 116.4627
L181.2405 116.4627
" />
<path d="M183.0424 116.9541
L182.9605 117.0360
" />
<path d="M182.9605 117.0360
L182.7148 117.1179
" />
<path d="M182.7148 117.1179
L182.5510 117.1179
" />
<path d="M182.5510 117.1179
L182.3052 117.0360
" />
<path d="M182.3052 117.0360
L182.1414 116.8722
" />
<path d="M182.1414 116.8722
L182.0595 116.7084
" />
<path d="M182.0595 116.7084
L181.9776 116.3808
" />
<path d="M181.9776 116.3808
L181.9776 116.1350
" />
<path d="M181.9776 116.1350
L182.0595 115.8074
" />
<path d="M182.0595 115.8074
L182.1414 115.6436
" />
<path d="M182.1414 115.6436
L182.3052 115.4798
" />
<path d="M182.3052 115.4798
L182.5510 115.3979
" />
<path d="M182.5510 115.3979
L182.7148 115.3979
" />
<path d="M182.7148 115.3979
L182.9605 115.4798
" />
<path d="M182.9605 115.4798
L183.0424 115.5617
" />
<path d="M183.6976 116.6265
L184.5167 116.6265
" />
<path d="M183.5338 117.1179
L184.1071 115.3979
" />
<path d="M184.1071 115.3979
L184.6805 117.1179
" />
<path d="M185.2538 117.1179
L185.2538 115.3979
" />
<path d="M185.2538 115.3979
L185.8271 116.6265
" />
<path d="M185.8271 116.6265
L186.4005 115.3979
" />
<path d="M186.4005 115.3979
L186.4005 117.1179
" />
</g><g transform="rotate(-90.000000 149.9600 87.4977)">
<text x="149.9600" y="87.9977"
textLength="2.2024" font-size="1.3333" lengthAdjust="spacingAndGlyphs"
text-anchor="middle" opacity="0" stroke-opacity="0">C1</text>
</g>
<g class="stroked-text"><desc>C1</desc>
<path d="M150.3196 87.6643
L150.3672 87.7120
" />
<path d="M150.3672 87.7120
L150.4148 87.8548
" />
<path d="M150.4148 87.8548
L150.4148 87.9501
" />
<path d="M150.4148 87.9501
L150.3672 88.0929
" />
<path d="M150.3672 88.0929
L150.2720 88.1882
" />
<path d="M150.2720 88.1882
L150.1767 88.2358
" />
<path d="M150.1767 88.2358
L149.9862 88.2834
" />
<path d="M149.9862 88.2834
L149.8434 88.2834
" />
<path d="M149.8434 88.2834
L149.6529 88.2358
" />
<path d="M149.6529 88.2358
L149.5577 88.1882
" />
<path d="M149.5577 88.1882
L149.4624 88.0929
" />
<path d="M149.4624 88.0929
L149.4148 87.9501
" />
<path d="M149.4148 87.9501
L149.4148 87.8548
" />
<path d="M149.4148 87.8548
L149.4624 87.7120
" />
<path d="M149.4624 87.7120
L149.5101 87.6643
" />
<path d="M150.4148 86.7120
L150.4148 87.2834
" />
<path d="M150.4148 86.9977
L149.4148 86.9977
" />
<path d="M149.4148 86.9977
L149.5577 87.0929
" />
<path d="M149.5577 87.0929
L149.6529 87.1882
" />
<path d="M149.6529 87.1882
L149.7005 87.2834
" />
</g><text x="156.2100" y="75.6400"
textLength="1.9643" font-size="1.3333" lengthAdjust="spacingAndGlyphs"
text-anchor="middle" opacity="0" stroke-opacity="0">J3</text>
<g class="stroked-text"><desc>J3</desc>
<path d="M155.8767 74.5948
L155.8767 75.3091
" />
<path d="M155.8767 75.3091
L155.8290 75.4520
" />
<path d="M155.8290 75.4520
L155.7338 75.5472
" />
<path d="M155.7338 75.5472
L155.5910 75.5948
" />
<path d="M155.5910 75.5948
L155.4957 75.5948
" />
<path d="M156.2576 74.5948
L156.8767 74.5948
" />
<path d="M156.8767 74.5948
L156.5433 74.9758
" />
<path d="M156.5433 74.9758
L156.6862 74.9758
" />
<path d="M156.6862 74.9758
L156.7814 75.0234
" />
<path d="M156.7814 75.0234
L156.8290 75.0710
" />
<path d="M156.8290 75.0710
L156.8767 75.1662
" />
<path d="M156.8767 75.1662
L156.8767 75.4043
" />
<path d="M156.8767 75.4043
L156.8290 75.4996
" />
<path d="M156.8290 75.4996
L156.7814 75.5472
" />
<path d="M156.7814 75.5472
L156.6862 75.5948
" />
<path d="M156.6862 75.5948
L156.4005 75.5948
" />
<path d="M156.4005 75.5948
L156.3052 75.5472
" />
<path d="M156.3052 75.5472
L156.2576 75.4996
" />
</g></g>
<g style="fill:none; 
stroke:#000000; stroke-width:0.1000; stroke-opacity:1; 
stroke-linecap:round; stroke-linejoin:round;">
<text x="131.3180" y="84.3200"
textLength="2.1000" font-size="1.3333" lengthAdjust="spacingAndGlyphs"
text-anchor="middle" opacity="0" stroke-opacity="0">U2</text>
<g class="stroked-text"><desc>U2</desc>
<path d="M130.5561 83.2774
L130.5561 84.0869
" />
<path d="M130.5561 84.0869
L130.6037 84.1822
" />
<path d="M130.6037 84.1822
L130.6513 84.2298
" />
<path d="M130.6513 84.2298
L130.7466 84.2774
" />
<path d="M130.7466 84.2774
L130.9370 84.2774
" />
<path d="M130.9370 84.2774
L131.0323 84.2298
" />
<path d="M131.0323 84.2298
L131.0799 84.1822
" />
<path d="M131.0799 84.1822
L131.1275 84.0869
" />
<path d="M131.1275 84.0869
L131.1275 83.2774
" />
<path d="M131.5561 83.3727
L131.6037 83.3250
" />
<path d="M131.6037 83.3250
L131.6990 83.2774
" />
<path d="M131.6990 83.2774
L131.9370 83.2774
" />
<path d="M131.9370 83.2774
L132.0323 83.3250
" />
<path d="M132.0323 83.3250
L132.0799 83.3727
" />
<path d="M132.0799 83.3727
L132.1275 83.4679
" />
<path d="M132.1275 83.4679
L132.1275 83.5631
" />
<path d="M132.1275 83.5631
L132.0799 83.7060
" />
<path d="M132.0799 83.7060
L131.5085 84.2774
" />
<path d="M131.5085 84.2774
L132.1275 84.2774
" />
</g><text x="130.4290" y="79.1210"
textLength="5.2905" font-size="1.3333" lengthAdjust="spacingAndGlyphs"
text-anchor="start" opacity="0" stroke-opacity="0">GND in</text>
<g class="stroked-text"><desc>GND in</desc>
<path d="M131.2567 78.0410
L131.1615 77.9934
" />
<path d="M131.1615 77.9934
L131.0186 77.9934
" />
<path d="M131.0186 77.9934
L130.8757 78.0410
" />
<path d="M130.8757 78.0410
L130.7805 78.1363
" />
<path d="M130.7805 78.1363
L130.7329 78.2315
" />
<path d="M130.7329 78.2315
L130.6853 78.4220
" />
<path d="M130.6853 78.4220
L130.6853 78.5648
" />
<path d="M130.6853 78.5648
L130.7329 78.7553
" />
<path d="M130.7329 78.7553
L130.7805 78.8506
" />
<path d="M130.7805 78.8506
L130.8757 78.9458
" />
<path d="M130.8757 78.9458
L131.0186 78.9934
" />
<path d="M131.0186 78.9934
L131.1138 78.9934
" />
<path d="M131.1138 78.9934
L131.2567 78.9458
" />
<path d="M131.2567 78.9458
L131.3043 78.8982
" />
<path d="M131.3043 78.8982
L131.3043 78.5648
" />
<path d="M131.3043 78.5648
L131.1138 78.5648
" />
<path d="M131.7329 78.9934
L131.7329 77.9934
" />
<path d="M131.7329 77.9934
L132.3043 78.9934
" />
<path d="M132.3043 78.9934
L132.3043 77.9934
" />
<path d="M132.7805 78.9934
L132.7805 77.9934
" />
<path d="M132.7805 77.9934
L133.0186 77.9934
" />
<path d="M133.0186 77.9934
L133.1615 78.0410
" />
<path d="M133.1615 78.0410
L133.2567 78.1363
" />
<path d="M133.2567 78.1363
L133.3043 78.2315
" />
<path d="M133.3043 78.2315
L133.3519 78.4220
" />
<path d="M133.3519 78.4220
L133.3519 78.5648
" />
<path d="M133.3519 78.5648
L133.3043 78.7553
" />
<path d="M133.3043 78.7553
L133.2567 78.8506
" />
<path d="M133.2567 78.8506
L133.1615 78.9458
" />
<path d="M133.1615 78.9458
L133.0186 78.9934
" />
<path d="M133.0186 78.9934
L132.7805 78.9934
" />
<path d="M134.5424 78.9934
L134.5424 78.3268
" />
<path d="M134.5424 77.9934
L134.4948 78.0410
" />
<path d="M134.4948 78.0410
L134.5424 78.0887
" />
<path d="M134.5424 78.0887
L134.5900 78.0410
" />
<path d="M134.5900 78.0410
L134.5424 77.9934
" />
<path d="M134.5424 77.9934
L134.5424 78.0887
" />
<path d="M135.0186 78.3268
L135.0186 78.9934
" />
<path d="M135.0186 78.4220
L135.0662 78.3744
" />
<path d="M135.0662 78.3744
L135.1615 78.3268
" />
<path d="M135.1615 78.3268
L135.3043 78.3268
" />
<path d="M135.3043 78.3268
L135.3996 78.3744
" />
<path d="M135.3996 78.3744
L135.4472 78.4696
" />
<path d="M135.4472 78.4696
L135.4472 78.9934
" />
</g><text x="130.6830" y="91.1860"
textLength="4.8143" font-size="1.3333" lengthAdjust="spacingAndGlyphs"
text-anchor="start" opacity="0" stroke-opacity="0">Vcc In</text>
<g class="stroked-text"><desc>Vcc In</desc>
<path d="M130.8440 90.0584
L131.1774 91.0584
" />
<path d="M131.1774 91.0584
L131.5107 90.0584
" />
<path d="M132.2726 91.0108
L132.1774 91.0584
" />
<path d="M132.1774 91.0584
L131.9869 91.0584
" />
<path d="M131.9869 91.0584
L131.8916 91.0108
" />
<path d="M131.8916 91.0108
L131.8440 90.9632
" />
<path d="M131.8440 90.9632
L131.7964 90.8679
" />
<path d="M131.7964 90.8679
L131.7964 90.5822
" />
<path d="M131.7964 90.5822
L131.8440 90.4870
" />
<path d="M131.8440 90.4870
L131.8916 90.4394
" />
<path d="M131.8916 90.4394
L131.9869 90.3918
" />
<path d="M131.9869 90.3918
L132.1774 90.3918
" />
<path d="M132.1774 90.3918
L132.2726 90.4394
" />
<path d="M133.1297 91.0108
L133.0345 91.0584
" />
<path d="M133.0345 91.0584
L132.8440 91.0584
" />
<path d="M132.8440 91.0584
L132.7488 91.0108
" />
<path d="M132.7488 91.0108
L132.7012 90.9632
" />
<path d="M132.7012 90.9632
L132.6536 90.8679
" />
<path d="M132.6536 90.8679
L132.6536 90.5822
" />
<path d="M132.6536 90.5822
L132.7012 90.4870
" />
<path d="M132.7012 90.4870
L132.7488 90.4394
" />
<path d="M132.7488 90.4394
L132.8440 90.3918
" />
<path d="M132.8440 90.3918
L133.0345 90.3918
" />
<path d="M133.0345 90.3918
L133.1297 90.4394
" />
<path d="M134.3202 91.0584
L134.3202 90.0584
" />
<path d="M134.7964 90.3918
L134.7964 91.0584
" />
<path d="M134.7964 90.4870
L134.8440 90.4394
" />
<path d="M134.8440 90.4394
L134.9393 90.3918
" />
<path d="M134.9393 90.3918
L135.0821 90.3918
" />
<path d="M135.0821 90.3918
L135.1774 90.4394
" />
<path d="M135.1774 90.4394
L135.2250 90.5346
" />
<path d="M135.2250 90.5346
L135.2250 91.0584
" />
</g><text x="140.2080" y="91.3130"
textLength="5.9571" font-size="1.3333" lengthAdjust="spacingAndGlyphs"
text-anchor="start" opacity="0" stroke-opacity="0">Vcc Out</text>
<g class="stroked-text"><desc>Vcc Out</desc>
<path d="M140.3690 90.1854
L140.7024 91.1854
" />
<path d="M140.7024 91.1854
L141.0357 90.1854
" />
<path d="M141.7976 91.1378
L141.7024 91.1854
" />
<path d="M141.7024 91.1854
L141.5119 91.1854
" />
<path d="M141.5119 91.1854
L141.4166 91.1378
" />
<path d="M141.4166 91.1378
L141.3690 91.0902
" />
<path d="M141.3690 91.0902
L141.3214 90.9949
" />
<path d="M141.3214 90.9949
L141.3214 90.7092
" />
<path d="M141.3214 90.7092
L141.3690 90.6140
" />
<path d="M141.3690 90.6140
L141.4166 90.5664
" />
<path d="M141.4166 90.5664
L141.5119 90.5188
" />
<path d="M141.5119 90.5188
L141.7024 90.5188
" />
<path d="M141.7024 90.5188
L141.7976 90.5664
" />
<path d="M142.6547 91.1378
L142.5595 91.1854
" />
<path d="M142.5595 91.1854
L142.3690 91.1854
" />
<path d="M142.3690 91.1854
L142.2738 91.1378
" />
<path d="M142.2738 91.1378
L142.2262 91.0902
" />
<path d="M142.2262 91.0902
L142.1786 90.9949
" />
<path d="M142.1786 90.9949
L142.1786 90.7092
" />
<path d="M142.1786 90.7092
L142.2262 90.6140
" />
<path d="M142.2262 90.6140
L142.2738 90.5664
" />
<path d="M142.2738 90.5664
L142.3690 90.5188
" />
<path d="M142.3690 90.5188
L142.5595 90.5188
" />
<path d="M142.5595 90.5188
L142.6547 90.5664
" />
<path d="M144.0357 90.1854
L144.2262 90.1854
" />
<path d="M144.2262 90.1854
L144.3214 90.2330
" />
<path d="M144.3214 90.2330
L144.4166 90.3283
" />
<path d="M144.4166 90.3283
L144.4643 90.5188
" />
<path d="M144.4643 90.5188
L144.4643 90.8521
" />
<path d="M144.4643 90.8521
L144.4166 91.0426
" />
<path d="M144.4166 91.0426
L144.3214 91.1378
" />
<path d="M144.3214 91.1378
L144.2262 91.1854
" />
<path d="M144.2262 91.1854
L144.0357 91.1854
" />
<path d="M144.0357 91.1854
L143.9405 91.1378
" />
<path d="M143.9405 91.1378
L143.8452 91.0426
" />
<path d="M143.8452 91.0426
L143.7976 90.8521
" />
<path d="M143.7976 90.8521
L143.7976 90.5188
" />
<path d="M143.7976 90.5188
L143.8452 90.3283
" />
<path d="M143.8452 90.3283
L143.9405 90.2330
" />
<path d="M143.9405 90.2330
L144.0357 90.1854
" />
<path d="M145.3214 90.5188
L145.3214 91.1854
" />
<path d="M144.8928 90.5188
L144.8928 91.0426
" />
<path d="M144.8928 91.0426
L144.9405 91.1378
" />
<path d="M144.9405 91.1378
L145.0357 91.1854
" />
<path d="M145.0357 91.1854
L145.1786 91.1854
" />
<path d="M145.1786 91.1854
L145.2738 91.1378
" />
<path d="M145.2738 91.1378
L145.3214 91.0902
" />
<path d="M145.6547 90.5188
L146.0357 90.5188
" />
<path d="M145.7976 90.1854
L145.7976 91.0426
" />
<path d="M145.7976 91.0426
L145.8452 91.1378
" />
<path d="M145.8452 91.1378
L145.9405 91.1854
" />
<path d="M145.9405 91.1854
L146.0357 91.1854
" />
</g><text x="141.6050" y="83.4390"
textLength="3.0048" font-size="1.3333" lengthAdjust="spacingAndGlyphs"
text-anchor="start" opacity="0" stroke-opacity="0">4R7</text>
<g class="stroked-text"><desc>4R7</desc>
<path d="M142.3375 82.6448
L142.3375 83.3114
" />
<path d="M142.0994 82.2638
L141.8613 82.9781
" />
<path d="M141.8613 82.9781
L142.4803 82.9781
" />
<path d="M143.4327 83.3114
L143.0994 82.8352
" />
<path d="M142.8613 83.3114
L142.8613 82.3114
" />
<path d="M142.8613 82.3114
L143.2422 82.3114
" />
<path d="M143.2422 82.3114
L143.3375 82.3590
" />
<path d="M143.3375 82.3590
L143.3851 82.4067
" />
<path d="M143.3851 82.4067
L143.4327 82.5019
" />
<path d="M143.4327 82.5019
L143.4327 82.6448
" />
<path d="M143.4327 82.6448
L143.3851 82.7400
" />
<path d="M143.3851 82.7400
L143.3375 82.7876
" />
<path d="M143.3375 82.7876
L143.2422 82.8352
" />
<path d="M143.2422 82.8352
L142.8613 82.8352
" />
<path d="M143.7660 82.3114
L144.4327 82.3114
" />
<path d="M144.4327 82.3114
L144.0041 83.3114
" />
</g><text x="140.2080" y="79.1210"
textLength="6.2905" font-size="1.3333" lengthAdjust="spacingAndGlyphs"
text-anchor="start" opacity="0" stroke-opacity="0">GND out</text>
<g class="stroked-text"><desc>GND out</desc>
<path d="M141.0357 78.0410
L140.9405 77.9934
" />
<path d="M140.9405 77.9934
L140.7976 77.9934
" />
<path d="M140.7976 77.9934
L140.6547 78.0410
" />
<path d="M140.6547 78.0410
L140.5595 78.1363
" />
<path d="M140.5595 78.1363
L140.5119 78.2315
" />
<path d="M140.5119 78.2315
L140.4643 78.4220
" />
<path d="M140.4643 78.4220
L140.4643 78.5648
" />
<path d="M140.4643 78.5648
L140.5119 78.7553
" />
<path d="M140.5119 78.7553
L140.5595 78.8506
" />
<path d="M140.5595 78.8506
L140.6547 78.9458
" />
<path d="M140.6547 78.9458
L140.7976 78.9934
" />
<path d="M140.7976 78.9934
L140.8928 78.9934
" />
<path d="M140.8928 78.9934
L141.0357 78.9458
" />
<path d="M141.0357 78.9458
L141.0833 78.8982
" />
<path d="M141.0833 78.8982
L141.0833 78.5648
" />
<path d="M141.0833 78.5648
L140.8928 78.5648
" />
<path d="M141.5119 78.9934
L141.5119 77.9934
" />
<path d="M141.5119 77.9934
L142.0833 78.9934
" />
<path d="M142.0833 78.9934
L142.0833 77.9934
" />
<path d="M142.5595 78.9934
L142.5595 77.9934
" />
<path d="M142.5595 77.9934
L142.7976 77.9934
" />
<path d="M142.7976 77.9934
L142.9405 78.0410
" />
<path d="M142.9405 78.0410
L143.0357 78.1363
" />
<path d="M143.0357 78.1363
L143.0833 78.2315
" />
<path d="M143.0833 78.2315
L143.1309 78.4220
" />
<path d="M143.1309 78.4220
L143.1309 78.5648
" />
<path d="M143.1309 78.5648
L143.0833 78.7553
" />
<path d="M143.0833 78.7553
L143.0357 78.8506
" />
<path d="M143.0357 78.8506
L142.9405 78.9458
" />
<path d="M142.9405 78.9458
L142.7976 78.9934
" />
<path d="M142.7976 78.9934
L142.5595 78.9934
" />
<path d="M144.4643 78.9934
L144.3690 78.9458
" />
<path d="M144.3690 78.9458
L144.3214 78.8982
" />
<path d="M144.3214 78.8982
L144.2738 78.8029
" />
<path d="M144.2738 78.8029
L144.2738 78.5172
" />
<path d="M144.2738 78.5172
L144.3214 78.4220
" />
<path d="M144.3214 78.4220
L144.3690 78.3744
" />
<path d="M144.3690 78.3744
L144.4643 78.3268
" />
<path d="M144.4643 78.3268
L144.6071 78.3268
" />
<path d="M144.6071 78.3268
L144.7024 78.3744
" />
<path d="M144.7024 78.3744
L144.7500 78.4220
" />
<path d="M144.7500 78.4220
L144.7976 78.5172
" />
<path d="M144.7976 78.5172
L144.7976 78.8029
" />
<path d="M144.7976 78.8029
L144.7500 78.8982
" />
<path d="M144.7500 78.8982
L144.7024 78.9458
" />
<path d="M144.7024 78.9458
L144.6071 78.9934
" />
<path d="M144.6071 78.9934
L144.4643 78.9934
" />
<path d="M145.6547 78.3268
L145.6547 78.9934
" />
<path d="M145.2262 78.3268
L145.2262 78.8506
" />
<path d="M145.2262 78.8506
L145.2738 78.9458
" />
<path d="M145.2738 78.9458
L145.3690 78.9934
" />
<path d="M145.3690 78.9934
L145.5119 78.9934
" />
<path d="M145.5119 78.9934
L145.6071 78.9458
" />
<path d="M145.6071 78.9458
L145.6547 78.8982
" />
<path d="M145.9881 78.3268
L146.3690 78.3268
" />
<path d="M146.1309 77.9934
L146.1309 78.8506
" />
<path d="M146.1309 78.8506
L146.1786 78.9458
" />
<path d="M146.1786 78.9458
L146.2738 78.9934
" />
<path d="M146.2738 78.9934
L146.3690 78.9934
" />
</g></g>
<g style="fill:none; 
stroke:#000000; stroke-width:0.1500; stroke-opacity:1; 
stroke-linecap:round; stroke-linejoin:round;">
<text x="116.8400" y="115.6800"
textLength="4.5357" font-size="1.3333" lengthAdjust="spacingAndGlyphs"
text-anchor="middle" opacity="0" stroke-opacity="0">REF**</text>
<g class="stroked-text"><desc>REF**</desc>
<path d="M115.5067 115.6348
L115.1733 115.1586
" />
<path d="M114.9352 115.6348
L114.9352 114.6348
" />
<path d="M114.9352 114.6348
L115.3162 114.6348
" />
<path d="M115.3162 114.6348
L115.4114 114.6824
" />
<path d="M115.4114 114.6824
L115.4590 114.7301
" />
<path d="M115.4590 114.7301
L115.5067 114.8253
" />
<path d="M115.5067 114.8253
L115.5067 114.9682
" />
<path d="M115.5067 114.9682
L115.4590 115.0634
" />
<path d="M115.4590 115.0634
L115.4114 115.1110
" />
<path d="M115.4114 115.1110
L115.3162 115.1586
" />
<path d="M115.3162 115.1586
L114.9352 115.1586
" />
<path d="M115.9352 115.1110
L116.2686 115.1110
" />
<path d="M116.4114 115.6348
L115.9352 115.6348
" />
<path d="M115.9352 115.6348
L115.9352 114.6348
" />
<path d="M115.9352 114.6348
L116.4114 114.6348
" />
<path d="M117.1733 115.1110
L116.8400 115.1110
" />
<path d="M116.8400 115.6348
L116.8400 114.6348
" />
<path d="M116.8400 114.6348
L117.3162 114.6348
" />
<path d="M117.8400 114.6348
L117.8400 114.8729
" />
<path d="M117.6019 114.7777
L117.8400 114.8729
" />
<path d="M117.8400 114.8729
L118.0781 114.7777
" />
<path d="M117.6971 115.0634
L117.8400 114.8729
" />
<path d="M117.8400 114.8729
L117.9829 115.0634
" />
<path d="M118.6019 114.6348
L118.6019 114.8729
" />
<path d="M118.3638 114.7777
L118.6019 114.8729
" />
<path d="M118.6019 114.8729
L118.8400 114.7777
" />
<path d="M118.4590 115.0634
L118.6019 114.8729
" />
<path d="M118.6019 114.8729
L118.7448 115.0634
" />
</g><text x="132.0800" y="75.2600"
textLength="2.2024" font-size="1.3333" lengthAdjust="spacingAndGlyphs"
text-anchor="middle" opacity="0" stroke-opacity="0">R2</text>
<g class="stroked-text"><desc>R2</desc>
<path d="M131.9133 75.2148
L131.5800 74.7386
" />
<path d="M131.3419 75.2148
L131.3419 74.2148
" />
<path d="M131.3419 74.2148
L131.7229 74.2148
" />
<path d="M131.7229 74.2148
L131.8181 74.2624
" />
<path d="M131.8181 74.2624
L131.8657 74.3101
" />
<path d="M131.8657 74.3101
L131.9133 74.4053
" />
<path d="M131.9133 74.4053
L131.9133 74.5482
" />
<path d="M131.9133 74.5482
L131.8657 74.6434
" />
<path d="M131.8657 74.6434
L131.8181 74.6910
" />
<path d="M131.8181 74.6910
L131.7229 74.7386
" />
<path d="M131.7229 74.7386
L131.3419 74.7386
" />
<path d="M132.2943 74.3101
L132.3419 74.2624
" />
<path d="M132.3419 74.2624
L132.4371 74.2148
" />
<path d="M132.4371 74.2148
L132.6752 74.2148
" />
<path d="M132.6752 74.2148
L132.7705 74.2624
" />
<path d="M132.7705 74.2624
L132.8181 74.3101
" />
<path d="M132.8181 74.3101
L132.8657 74.4053
" />
<path d="M132.8657 74.4053
L132.8657 74.5005
" />
<path d="M132.8657 74.5005
L132.8181 74.6434
" />
<path d="M132.8181 74.6434
L132.2467 75.2148
" />
<path d="M132.2467 75.2148
L132.8657 75.2148
" />
</g><g transform="rotate(-90.000000 123.1000 96.6400)">
<text x="123.1000" y="97.1400"
textLength="1.9643" font-size="1.3333" lengthAdjust="spacingAndGlyphs"
text-anchor="middle" opacity="0" stroke-opacity="0">J1</text>
</g>
<g class="stroked-text"><desc>J1</desc>
<path d="M122.5548 96.9733
L123.2691 96.9733
" />
<path d="M123.2691 96.9733
L123.4120 97.0210
" />
<path d="M123.4120 97.0210
L123.5072 97.1162
" />
<path d="M123.5072 97.1162
L123.5548 97.2590
" />
<path d="M123.5548 97.2590
L123.5548 97.3543
" />
<path d="M123.5548 95.9733
L123.5548 96.5448
" />
<path d="M123.5548 96.2590
L122.5548 96.2590
" />
<path d="M122.5548 96.2590
L122.6977 96.3543
" />
<path d="M122.6977 96.3543
L122.7929 96.4495
" />
<path d="M122.7929 96.4495
L122.8405 96.5448
" />
</g><text x="196.8500" y="90.8800"
textLength="1.9643" font-size="1.3333" lengthAdjust="spacingAndGlyphs"
text-anchor="middle" opacity="0" stroke-opacity="0">J2</text>
<g class="stroked-text"><desc>J2</desc>
<path d="M196.5167 89.8348
L196.5167 90.5491
" />
<path d="M196.5167 90.5491
L196.4690 90.6920
" />
<path d="M196.4690 90.6920
L196.3738 90.7872
" />
<path d="M196.3738 90.7872
L196.2310 90.8348
" />
<path d="M196.2310 90.8348
L196.1357 90.8348
" />
<path d="M196.9452 89.9301
L196.9929 89.8824
" />
<path d="M196.9929 89.8824
L197.0881 89.8348
" />
<path d="M197.0881 89.8348
L197.3262 89.8348
" />
<path d="M197.3262 89.8348
L197.4214 89.8824
" />
<path d="M197.4214 89.8824
L197.4690 89.9301
" />
<path d="M197.4690 89.9301
L197.5167 90.0253
" />
<path d="M197.5167 90.0253
L197.5167 90.1205
" />
<path d="M197.5167 90.1205
L197.4690 90.2634
" />
<path d="M197.4690 90.2634
L196.8976 90.8348
" />
<path d="M196.8976 90.8348
L197.5167 90.8348
" />
</g><text x="116.8400" y="69.9600"
textLength="4.5357" font-size="1.3333" lengthAdjust="spacingAndGlyphs"
text-anchor="middle" opacity="0" stroke-opacity="0">REF**</text>
<g class="stroked-text"><desc>REF**</desc>
<path d="M115.5067 69.9148
L115.1733 69.4386
" />
<path d="M114.9352 69.9148
L114.9352 68.9148
" />
<path d="M114.9352 68.9148
L115.3162 68.9148
" />
<path d="M115.3162 68.9148
L115.4114 68.9624
" />
<path d="M115.4114 68.9624
L115.4590 69.0101
" />
<path d="M115.4590 69.0101
L115.5067 69.1053
" />
<path d="M115.5067 69.1053
L115.5067 69.2482
" />
<path d="M115.5067 69.2482
L115.4590 69.3434
" />
<path d="M115.4590 69.3434
L115.4114 69.3910
" />
<path d="M115.4114 69.3910
L115.3162 69.4386
" />
<path d="M115.3162 69.4386
L114.9352 69.4386
" />
<path d="M115.9352 69.3910
L116.2686 69.3910
" />
<path d="M116.4114 69.9148
L115.9352 69.9148
" />
<path d="M115.9352 69.9148
L115.9352 68.9148
" />
<path d="M115.9352 68.9148
L116.4114 68.9148
" />
<path d="M117.1733 69.3910
L116.8400 69.3910
" />
<path d="M116.8400 69.9148
L116.8400 68.9148
" />
<path d="M116.8400 68.9148
L117.3162 68.9148
" />
<path d="M117.8400 68.9148
L117.8400 69.1529
" />
<path d="M117.6019 69.0577
L117.8400 69.1529
" />
<path d="M117.8400 69.1529
L118.0781 69.0577
" />
<path d="M117.6971 69.3434
L117.8400 69.1529
" />
<path d="M117.8400 69.1529
L117.9829 69.3434
" />
<path d="M118.6019 68.9148
L118.6019 69.1529
" />
<path d="M118.3638 69.0577
L118.6019 69.1529
" />
<path d="M118.6019 69.1529
L118.8400 69.0577
" />
<path d="M118.4590 69.3434
L118.6019 69.1529
" />
<path d="M118.6019 69.1529
L118.7448 69.3434
" />
</g><text x="196.8500" y="86.6500"
textLength="1.9643" font-size="1.3333" lengthAdjust="spacingAndGlyphs"
text-anchor="middle" opacity="0" stroke-opacity="0">J4</text>
<g class="stroked-text"><desc>J4</desc>
<path d="M196.5167 85.6048
L196.5167 86.3191
" />
<path d="M196.5167 86.3191
L196.4690 86.4620
" />
<path d="M196.4690 86.4620
L196.3738 86.5572
" />
<path d="M196.3738 86.5572
L196.2310 86.6048
" />
<path d="M196.2310 86.6048
L196.1357 86.6048
" />
<path d="M197.4214 85.9382
L197.4214 86.6048
" />
<path d="M197.1833 85.5572
L196.9452 86.2715
" />
<path d="M196.9452 86.2715
L197.5643 86.2715
" />
</g></g>
<g style="fill:none; 
stroke:#000000; stroke-width:0.1000; stroke-opacity:1; 
stroke-linecap:round; stroke-linejoin:round;">
<g transform="rotate(-180.000000 140.2080 113.5380)">
<text x="140.2080" y="114.0380"
textLength="2.1000" font-size="1.3333" lengthAdjust="spacingAndGlyphs"
text-anchor="middle" opacity="0" stroke-opacity="0">U3</text>
</g>
<g class="stroked-text"><desc>U3</desc>
<path d="M140.9699 114.0806
L140.9699 113.2711
" />
<path d="M140.9699 113.2711
L140.9223 113.1758
" />
<path d="M140.9223 113.1758
L140.8747 113.1282
" />
<path d="M140.8747 113.1282
L140.7794 113.0806
" />
<path d="M140.7794 113.0806
L140.5890 113.0806
" />
<path d="M140.5890 113.0806
L140.4937 113.1282
" />
<path d="M140.4937 113.1282
L140.4461 113.1758
" />
<path d="M140.4461 113.1758
L140.3985 113.2711
" />
<path d="M140.3985 113.2711
L140.3985 114.0806
" />
<path d="M140.0175 114.0806
L139.3985 114.0806
" />
<path d="M139.3985 114.0806
L139.7318 113.6996
" />
<path d="M139.7318 113.6996
L139.5890 113.6996
" />
<path d="M139.5890 113.6996
L139.4937 113.6520
" />
<path d="M139.4937 113.6520
L139.4461 113.6044
" />
<path d="M139.4461 113.6044
L139.3985 113.5092
" />
<path d="M139.3985 113.5092
L139.3985 113.2711
" />
<path d="M139.3985 113.2711
L139.4461 113.1758
" />
<path d="M139.4461 113.1758
L139.4937 113.1282
" />
<path d="M139.4937 113.1282
L139.5890 113.0806
" />
<path d="M139.5890 113.0806
L139.8747 113.0806
" />
<path d="M139.8747 113.0806
L139.9699 113.1282
" />
<path d="M139.9699 113.1282
L140.0175 113.1758
" />
</g></g>
<g style="fill:none; 
stroke:#000000; stroke-width:0.1500; stroke-opacity:1; 
stroke-linecap:round; stroke-linejoin:round;">
<text x="156.2100" y="70.3900"
textLength="2.2024" font-size="1.3333" lengthAdjust="spacingAndGlyphs"
text-anchor="middle" opacity="0" stroke-opacity="0">C2</text>
<g class="stroked-text"><desc>C2</desc>
<path d="M156.0433 70.2496
L155.9957 70.2972
" />
<path d="M155.9957 70.2972
L155.8529 70.3448
" />
<path d="M155.8529 70.3448
L155.7576 70.3448
" />
<path d="M155.7576 70.3448
L155.6148 70.2972
" />
<path d="M155.6148 70.2972
L155.5195 70.2020
" />
<path d="M155.5195 70.2020
L155.4719 70.1067
" />
<path d="M155.4719 70.1067
L155.4243 69.9162
" />
<path d="M155.4243 69.9162
L155.4243 69.7734
" />
<path d="M155.4243 69.7734
L155.4719 69.5829
" />
<path d="M155.4719 69.5829
L155.5195 69.4877
" />
<path d="M155.5195 69.4877
L155.6148 69.3924
" />
<path d="M155.6148 69.3924
L155.7576 69.3448
" />
<path d="M155.7576 69.3448
L155.8529 69.3448
" />
<path d="M155.8529 69.3448
L155.9957 69.3924
" />
<path d="M155.9957 69.3924
L156.0433 69.4401
" />
<path d="M156.4243 69.4401
L156.4719 69.3924
" />
<path d="M156.4719 69.3924
L156.5671 69.3448
" />
<path d="M156.5671 69.3448
L156.8052 69.3448
" />
<path d="M156.8052 69.3448
L156.9005 69.3924
" />
<path d="M156.9005 69.3924
L156.9481 69.4401
" />
<path d="M156.9481 69.4401
L156.9957 69.5353
" />
<path d="M156.9957 69.5353
L156.9957 69.6305
" />
<path d="M156.9957 69.6305
L156.9481 69.7734
" />
<path d="M156.9481 69.7734
L156.3767 70.3448
" />
<path d="M156.3767 70.3448
L156.9957 70.3448
" />
</g><text x="195.5800" y="115.6800"
textLength="4.5357" font-size="1.3333" lengthAdjust="spacingAndGlyphs"
text-anchor="middle" opacity="0" stroke-opacity="0">REF**</text>
<g class="stroked-text"><desc>REF**</desc>
<path d="M194.2467 115.6348
L193.9133 115.1586
" />
<path d="M193.6752 115.6348
L193.6752 114.6348
" />
<path d="M193.6752 114.6348
L194.0562 114.6348
" />
<path d="M194.0562 114.6348
L194.1514 114.6824
" />
<path d="M194.1514 114.6824
L194.1990 114.7301
" />
<path d="M194.1990 114.7301
L194.2467 114.8253
" />
<path d="M194.2467 114.8253
L194.2467 114.9682
" />
<path d="M194.2467 114.9682
L194.1990 115.0634
" />
<path d="M194.1990 115.0634
L194.1514 115.1110
" />
<path d="M194.1514 115.1110
L194.0562 115.1586
" />
<path d="M194.0562 115.1586
L193.6752 115.1586
" />
<path d="M194.6752 115.1110
L195.0086 115.1110
" />
<path d="M195.1514 115.6348
L194.6752 115.6348
" />
<path d="M194.6752 115.6348
L194.6752 114.6348
" />
<path d="M194.6752 114.6348
L195.1514 114.6348
" />
<path d="M195.9133 115.1110
L195.5800 115.1110
" />
<path d="M195.5800 115.6348
L195.5800 114.6348
" />
<path d="M195.5800 114.6348
L196.0562 114.6348
" />
<path d="M196.5800 114.6348
L196.5800 114.8729
" />
<path d="M196.3419 114.7777
L196.5800 114.8729
" />
<path d="M196.5800 114.8729
L196.8181 114.7777
" />
<path d="M196.4371 115.0634
L196.5800 114.8729
" />
<path d="M196.5800 114.8729
L196.7229 115.0634
" />
<path d="M197.3419 114.6348
L197.3419 114.8729
" />
<path d="M197.1038 114.7777
L197.3419 114.8729
" />
<path d="M197.3419 114.8729
L197.5800 114.7777
" />
<path d="M197.1990 115.0634
L197.3419 114.8729
" />
<path d="M197.3419 114.8729
L197.4848 115.0634
" />
</g></g>
<g style="fill:none; 
stroke:#000000; stroke-width:0.1200; stroke-opacity:1; 
stroke-linecap:round; stroke-linejoin:round;">
<path d="M148.0500 73.7600
L141.5100 73.7600
" />
<path d="M148.0500 73.4300
L148.0500 73.7600
" />
<path d="M148.0500 71.3500
L148.0500 71.0200
" />
<path d="M148.0500 71.0200
L141.5100 71.0200
" />
<path d="M141.5100 73.7600
L141.5100 73.4300
" />
<path d="M141.5100 71.0200
L141.5100 71.3500
" />
</g>
<g style="fill:none; 
stroke:#000000; stroke-width:0.1270; stroke-opacity:1; 
stroke-linecap:round; stroke-linejoin:round;">
<path d="M164.6400 78.5500
L190.9600 78.5500
" />
<path d="M164.6400 118.5500
L164.6400 78.5500
" />
<path d="M190.9600 78.5500
L190.9600 118.5500
" />
<path d="M190.9600 118.5500
L164.6400 118.5500
" />
</g>
<g style="fill:none; 
stroke:#000000; stroke-width:0.1200; stroke-opacity:1; 
stroke-linecap:round; stroke-linejoin:round;">
<path d="M153.3350 92.9773
L153.3350 91.9773
" />
<path d="M152.8350 92.4773
L153.8350 92.4773
" />
<path d="M151.1300 87.4977
L161.2900 87.4977
" />
<path d="M151.1300 87.4577
L161.2900 87.4577
" />
<path d="M151.1300 87.4177
L161.2900 87.4177
" />
<path d="M151.1310 87.3777
L161.2890 87.3777
" />
<path d="M151.1320 87.3377
L161.2880 87.3377
" />
<path d="M151.1330 87.2977
L161.2870 87.2977
" />
<path d="M151.1350 87.2577
L161.2850 87.2577
" />
<path d="M151.1370 87.2177
L161.2830 87.2177
" />
<path d="M151.1400 87.1777
L161.2800 87.1777
" />
<path d="M151.1420 87.1377
L161.2780 87.1377
" />
<path d="M151.1450 87.0977
L161.2750 87.0977
" />
<path d="M151.1480 87.0577
L161.2720 87.0577
" />
<path d="M151.1520 87.0177
L161.2680 87.0177
" />
<path d="M151.1560 86.9777
L161.2640 86.9777
" />
<path d="M151.1600 86.9377
L161.2600 86.9377
" />
<path d="M151.1650 86.8977
L161.2550 86.8977
" />
<path d="M151.1700 86.8577
L161.2500 86.8577
" />
<path d="M151.1750 86.8177
L161.2450 86.8177
" />
<path d="M151.1800 86.7767
L161.2400 86.7767
" />
<path d="M151.1860 86.7367
L161.2340 86.7367
" />
<path d="M151.1920 86.6967
L161.2280 86.6967
" />
<path d="M151.1990 86.6567
L161.2210 86.6567
" />
<path d="M151.2060 86.6167
L161.2140 86.6167
" />
<path d="M151.2130 86.5767
L161.2070 86.5767
" />
<path d="M151.2200 86.5367
L161.2000 86.5367
" />
<path d="M151.2280 86.4967
L161.1920 86.4967
" />
<path d="M151.2360 86.4567
L161.1840 86.4567
" />
<path d="M151.2450 86.4167
L161.1750 86.4167
" />
<path d="M151.2540 86.3767
L161.1660 86.3767
" />
<path d="M151.2630 86.3367
L161.1570 86.3367
" />
<path d="M151.2720 86.2967
L161.1480 86.2967
" />
<path d="M151.2820 86.2567
L161.1380 86.2567
" />
<path d="M151.2920 86.2167
L154.9690 86.2167
" />
<path d="M157.4510 86.2167
L161.1280 86.2167
" />
<path d="M151.3030 86.1767
L154.9690 86.1767
" />
<path d="M157.4510 86.1767
L161.1170 86.1767
" />
<path d="M151.3130 86.1367
L154.9690 86.1367
" />
<path d="M157.4510 86.1367
L161.1070 86.1367
" />
<path d="M151.3250 86.0967
L154.9690 86.0967
" />
<path d="M157.4510 86.0967
L161.0950 86.0967
" />
<path d="M151.3360 86.0567
L154.9690 86.0567
" />
<path d="M157.4510 86.0567
L161.0840 86.0567
" />
<path d="M151.3480 86.0167
L154.9690 86.0167
" />
<path d="M157.4510 86.0167
L161.0720 86.0167
" />
<path d="M151.3600 85.9767
L154.9690 85.9767
" />
<path d="M157.4510 85.9767
L161.0600 85.9767
" />
<path d="M151.3730 85.9367
L154.9690 85.9367
" />
<path d="M157.4510 85.9367
L161.0470 85.9367
" />
<path d="M151.3860 85.8967
L154.9690 85.8967
" />
<path d="M157.4510 85.8967
L161.0340 85.8967
" />
<path d="M151.3990 85.8567
L154.9690 85.8567
" />
<path d="M157.4510 85.8567
L161.0210 85.8567
" />
<path d="M151.4130 85.8167
L154.9690 85.8167
" />
<path d="M157.4510 85.8167
L161.0070 85.8167
" />
<path d="M151.4270 85.7767
L154.9690 85.7767
" />
<path d="M157.4510 85.7767
L160.9930 85.7767
" />
<path d="M151.4420 85.7367
L154.9690 85.7367
" />
<path d="M157.4510 85.7367
L160.9780 85.7367
" />
<path d="M151.4560 85.6967
L154.9690 85.6967
" />
<path d="M157.4510 85.6967
L160.9640 85.6967
" />
<path d="M151.4720 85.6567
L154.9690 85.6567
" />
<path d="M157.4510 85.6567
L160.9480 85.6567
" />
<path d="M151.4870 85.6167
L154.9690 85.6167
" />
<path d="M157.4510 85.6167
L160.9330 85.6167
" />
<path d="M151.5030 85.5767
L154.9690 85.5767
" />
<path d="M157.4510 85.5767
L160.9170 85.5767
" />
<path d="M151.5200 85.5367
L154.9690 85.5367
" />
<path d="M157.4510 85.5367
L160.9000 85.5367
" />
<path d="M151.5360 85.4967
L154.9690 85.4967
" />
<path d="M157.4510 85.4967
L160.8840 85.4967
" />
<path d="M151.5530 85.4567
L154.9690 85.4567
" />
<path d="M157.4510 85.4567
L160.8670 85.4567
" />
<path d="M151.5710 85.4167
L154.9690 85.4167
" />
<path d="M157.4510 85.4167
L160.8490 85.4167
" />
<path d="M151.5890 85.3767
L154.9690 85.3767
" />
<path d="M157.4510 85.3767
L160.8310 85.3767
" />
<path d="M151.6070 85.3367
L154.9690 85.3367
" />
<path d="M157.4510 85.3367
L160.8130 85.3367
" />
<path d="M151.6260 85.2967
L154.9690 85.2967
" />
<path d="M157.4510 85.2967
L160.7940 85.2967
" />
<path d="M151.6460 85.2567
L154.9690 85.2567
" />
<path d="M157.4510 85.2567
L160.7740 85.2567
" />
<path d="M151.6650 85.2167
L154.9690 85.2167
" />
<path d="M157.4510 85.2167
L160.7550 85.2167
" />
<path d="M151.6850 85.1767
L154.9690 85.1767
" />
<path d="M157.4510 85.1767
L160.7350 85.1767
" />
<path d="M151.7060 85.1367
L154.9690 85.1367
" />
<path d="M157.4510 85.1367
L160.7140 85.1367
" />
<path d="M151.7270 85.0967
L154.9690 85.0967
" />
<path d="M157.4510 85.0967
L160.6930 85.0967
" />
<path d="M151.7480 85.0567
L154.9690 85.0567
" />
<path d="M157.4510 85.0567
L160.6720 85.0567
" />
<path d="M151.7700 85.0167
L154.9690 85.0167
" />
<path d="M157.4510 85.0167
L160.6500 85.0167
" />
<path d="M151.7930 84.9767
L154.9690 84.9767
" />
<path d="M157.4510 84.9767
L160.6270 84.9767
" />
<path d="M151.8150 84.9367
L154.9690 84.9367
" />
<path d="M157.4510 84.9367
L160.6050 84.9367
" />
<path d="M151.8390 84.8967
L154.9690 84.8967
" />
<path d="M157.4510 84.8967
L160.5810 84.8967
" />
<path d="M151.8630 84.8567
L154.9690 84.8567
" />
<path d="M157.4510 84.8567
L160.5570 84.8567
" />
<path d="M151.8870 84.8167
L154.9690 84.8167
" />
<path d="M157.4510 84.8167
L160.5330 84.8167
" />
<path d="M151.9120 84.7767
L154.9690 84.7767
" />
<path d="M157.4510 84.7767
L160.5080 84.7767
" />
<path d="M151.9370 84.7367
L154.9690 84.7367
" />
<path d="M157.4510 84.7367
L160.4830 84.7367
" />
<path d="M151.9630 84.6967
L154.9690 84.6967
" />
<path d="M157.4510 84.6967
L160.4570 84.6967
" />
<path d="M151.9890 84.6567
L154.9690 84.6567
" />
<path d="M157.4510 84.6567
L160.4310 84.6567
" />
<path d="M152.0160 84.6167
L154.9690 84.6167
" />
<path d="M157.4510 84.6167
L160.4040 84.6167
" />
<path d="M152.0440 84.5767
L154.9690 84.5767
" />
<path d="M157.4510 84.5767
L160.3760 84.5767
" />
<path d="M152.0720 84.5367
L154.9690 84.5367
" />
<path d="M157.4510 84.5367
L160.3480 84.5367
" />
<path d="M152.1000 84.4967
L154.9690 84.4967
" />
<path d="M157.4510 84.4967
L160.3200 84.4967
" />
<path d="M152.1300 84.4567
L154.9690 84.4567
" />
<path d="M157.4510 84.4567
L160.2900 84.4567
" />
<path d="M152.1600 84.4167
L154.9690 84.4167
" />
<path d="M157.4510 84.4167
L160.2600 84.4167
" />
<path d="M152.1900 84.3767
L154.9690 84.3767
" />
<path d="M157.4510 84.3767
L160.2300 84.3767
" />
<path d="M152.2210 84.3367
L154.9690 84.3367
" />
<path d="M157.4510 84.3367
L160.1990 84.3367
" />
<path d="M152.2530 84.2967
L154.9690 84.2967
" />
<path d="M157.4510 84.2967
L160.1670 84.2967
" />
<path d="M152.2850 84.2567
L154.9690 84.2567
" />
<path d="M157.4510 84.2567
L160.1350 84.2567
" />
<path d="M152.3180 84.2167
L154.9690 84.2167
" />
<path d="M157.4510 84.2167
L160.1020 84.2167
" />
<path d="M152.3520 84.1767
L154.9690 84.1767
" />
<path d="M157.4510 84.1767
L160.0680 84.1767
" />
<path d="M152.3860 84.1367
L154.9690 84.1367
" />
<path d="M157.4510 84.1367
L160.0340 84.1367
" />
<path d="M152.4210 84.0967
L154.9690 84.0967
" />
<path d="M157.4510 84.0967
L159.9990 84.0967
" />
<path d="M152.4570 84.0567
L154.9690 84.0567
" />
<path d="M157.4510 84.0567
L159.9630 84.0567
" />
<path d="M152.4940 84.0167
L154.9690 84.0167
" />
<path d="M157.4510 84.0167
L159.9260 84.0167
" />
<path d="M152.5310 83.9767
L154.9690 83.9767
" />
<path d="M157.4510 83.9767
L159.8890 83.9767
" />
<path d="M152.5700 83.9367
L154.9690 83.9367
" />
<path d="M157.4510 83.9367
L159.8500 83.9367
" />
<path d="M152.6090 83.8967
L154.9690 83.8967
" />
<path d="M157.4510 83.8967
L159.8110 83.8967
" />
<path d="M152.6490 83.8567
L154.9690 83.8567
" />
<path d="M157.4510 83.8567
L159.7710 83.8567
" />
<path d="M152.6900 83.8167
L154.9690 83.8167
" />
<path d="M157.4510 83.8167
L159.7300 83.8167
" />
<path d="M152.7320 83.7767
L154.9690 83.7767
" />
<path d="M157.4510 83.7767
L159.6880 83.7767
" />
<path d="M152.7740 83.7367
L159.6460 83.7367
" />
<path d="M152.8180 83.6967
L159.6020 83.6967
" />
<path d="M152.8630 83.6567
L159.5570 83.6567
" />
<path d="M152.9090 83.6167
L159.5110 83.6167
" />
<path d="M152.9560 83.5767
L159.4640 83.5767
" />
<path d="M153.0040 83.5367
L159.4160 83.5367
" />
<path d="M153.0540 83.4967
L159.3660 83.4967
" />
<path d="M153.1040 83.4567
L159.3160 83.4567
" />
<path d="M153.1560 83.4167
L159.2640 83.4167
" />
<path d="M153.2100 83.3767
L159.2100 83.3767
" />
<path d="M153.2650 83.3367
L159.1550 83.3367
" />
<path d="M153.3210 83.2967
L159.0990 83.2967
" />
<path d="M153.3800 83.2567
L159.0400 83.2567
" />
<path d="M153.4400 83.2167
L158.9800 83.2167
" />
<path d="M153.5010 83.1767
L158.9190 83.1767
" />
<path d="M153.5650 83.1367
L158.8550 83.1367
" />
<path d="M153.6310 83.0967
L158.7890 83.0967
" />
<path d="M153.7000 83.0567
L158.7200 83.0567
" />
<path d="M153.7710 83.0167
L158.6490 83.0167
" />
<path d="M153.8450 82.9767
L158.5750 82.9767
" />
<path d="M153.9210 82.9367
L158.4990 82.9367
" />
<path d="M154.0010 82.8967
L158.4190 82.8967
" />
<path d="M154.0850 82.8567
L158.3350 82.8567
" />
<path d="M154.1730 82.8167
L158.2470 82.8167
" />
<path d="M154.2660 82.7767
L158.1540 82.7767
" />
<path d="M154.3640 82.7367
L158.0560 82.7367
" />
<path d="M154.4680 82.6967
L157.9520 82.6967
" />
<path d="M154.5800 82.6567
L157.8400 82.6567
" />
<path d="M154.7000 82.6167
L157.7200 82.6167
" />
<path d="M154.8320 82.5767
L157.5880 82.5767
" />
<path d="M154.9800 82.5367
L157.4400 82.5367
" />
<path d="M155.1480 82.4967
L157.2720 82.4967
" />
<path d="M155.3480 82.4567
L157.0720 82.4567
" />
<path d="M155.6110 82.4167
L156.8090 82.4167
" />
<circle cx="156.2100" cy="87.4977" r="5.1200" /> 
<path d="M154.8800 76.1400
L156.2100 76.1400
" />
<path d="M154.8800 77.4700
L154.8800 76.1400
" />
<path d="M154.8800 78.7400
L154.8800 78.8000
" />
<path d="M154.8800 78.7400
L157.5400 78.7400
" />
<path d="M154.8800 78.8000
L157.5400 78.8000
" />
<path d="M157.5400 78.7400
L157.5400 78.8000
" />
</g>
<g style="fill:none; 
stroke:#000000; stroke-width:0.1000; stroke-opacity:1; 
stroke-linecap:round; stroke-linejoin:round;">
<path d="M127.3810 76.8350
L149.4790 76.8350
" />
<path d="M127.3810 93.5990
L127.3810 76.8350
" />
<path d="M137.5410 88.3920
L138.8110 89.7890
" />
<path d="M138.1760 89.0905
L138.8110 88.3920
" />
<path d="M138.8110 88.3920
L137.5410 89.7890
" />
<path d="M138.8110 89.7890
L138.1760 89.0905
" />
<path d="M149.4790 76.8350
L149.4790 93.5990
" />
<path d="M149.4790 93.5990
L127.3810 93.5990
" />
<path style="fill:none; 
stroke:#000000; stroke-width:0.1000; stroke-opacity:1; 
stroke-linecap:round; stroke-linejoin:round;fill:none"
d="M 140.7160,81.1530
145.1610,81.1530
145.1610,84.8360
140.7160,84.8360
Z" /> 
<circle cx="138.1760" cy="89.1540" r="0.9672" /> 
</g>
<g style="fill:none; 
stroke:#000000; stroke-width:0.1200; stroke-opacity:1; 
stroke-linecap:round; stroke-linejoin:round;">
<path d="M135.3500 73.7600
L128.8100 73.7600
" />
<path d="M135.3500 73.4300
L135.3500 73.7600
" />
<path d="M135.3500 71.3500
L135.3500 71.0200
" />
<path d="M135.3500 71.0200
L128.8100 71.0200
" />
<path d="M128.8100 73.7600
L128.8100 73.4300
" />
<path d="M128.8100 71.0200
L128.8100 71.3500
" />
<path d="M112.6800 86.3400
L111.9400 86.3400
" />
<path d="M111.9400 86.3400
L111.9400 86.8400
" />
<path d="M122.1010 86.5800
L112.1800 86.5800
" />
<path d="M122.1010 86.5800
L122.1010 106.7010
" />
<path d="M119.1410 86.5800
L119.1410 106.7010
" />
<path d="M114.2400 86.5800
L114.2400 106.7010
" />
<path d="M112.7400 86.5800
L112.7400 106.7010
" />
<path d="M112.1800 86.5800
L112.1800 106.7010
" />
<path d="M115.8170 92.9130
L115.7710 92.8660
" />
<path d="M115.6010 93.1060
L115.5660 93.0710
" />
<path d="M118.1150 95.2100
L118.0790 95.1750
" />
<path d="M117.9090 95.4150
L117.8630 95.3680
" />
<path d="M115.8170 97.9130
L115.7710 97.8660
" />
<path d="M115.6010 98.1060
L115.5660 98.0710
" />
<path d="M118.1150 100.2100
L118.0790 100.1750
" />
<path d="M117.9090 100.4150
L117.8630 100.3680
" />
<path d="M115.8170 102.9130
L115.7710 102.8660
" />
<path d="M115.6010 103.1060
L115.5660 103.0710
" />
<path d="M118.1150 105.2100
L118.0790 105.1750
" />
<path d="M117.9090 105.4150
L117.8630 105.3680
" />
<path d="M122.1010 106.7010
L112.1800 106.7010
" />
<path d="M117.5240 87.6050 A1.6805 1.6805 0.0 0 0 116.1570 87.6046" />
<path d="M118.3750 89.8240 A1.6805 1.6805 0.0 0 0 118.3754 88.4570" />
<path d="M115.3050 88.4560 A1.6805 1.6805 0.0 0 0 115.1597 89.1688" />
<path d="M115.1600 89.1400 A1.6800 1.6800 0.0 0 0 115.3052 89.8233" />
<path d="M116.1560 90.6750 A1.6805 1.6805 0.0 0 0 117.5230 90.6754" />
<circle cx="116.8400" cy="94.1400" r="1.6800" /> 
<circle cx="116.8400" cy="99.1400" r="1.6800" /> 
<circle cx="116.8400" cy="104.1400" r="1.6800" /> 
<path d="M195.5200 91.3800
L196.8500 91.3800
" />
<path d="M195.5200 92.7100
L195.5200 91.3800
" />
<path d="M195.5200 93.9800
L195.5200 101.6600
" />
<path d="M195.5200 93.9800
L198.1800 93.9800
" />
<path d="M195.5200 101.6600
L198.1800 101.6600
" />
<path d="M198.1800 93.9800
L198.1800 101.6600
" />
<path d="M198.1800 85.1500
L196.8500 85.1500
" />
<path d="M198.1800 83.8200
L198.1800 85.1500
" />
<path d="M198.1800 82.5500
L198.1800 79.9500
" />
<path d="M198.1800 82.5500
L195.5200 82.5500
" />
<path d="M198.1800 79.9500
L195.5200 79.9500
" />
<path d="M195.5200 82.5500
L195.5200 79.9500
" />
<path style="fill:none; 
stroke:#000000; stroke-width:0.1000; stroke-opacity:1; 
stroke-linecap:round; stroke-linejoin:round;fill:none"
d="M 151.1300,97.7900
127.0000,97.7900
127.0000,118.1100
151.1300,118.1100
Z" /> 
</g>
<g style="fill:none; 
stroke:#000000; stroke-width:0.1200; stroke-opacity:1; 
stroke-linecap:round; stroke-linejoin:round;">
<path d="M152.0900 71.0200
L152.0900 73.7600
" />
<path d="M152.0900 71.0200
L160.3300 71.0200
" />
<path d="M152.0900 73.7600
L160.3300 73.7600
" />
<path d="M160.3300 71.0200
L160.3300 73.7600
" />
</g> 
</svg>
