<?xml version="1.0" standalone="no"?>
 <!DOCTYPE svg PUBLIC "-//W3C//DTD SVG 1.1//EN" 
 "http://www.w3.org/Graphics/SVG/1.1/DTD/svg11.dtd"> 
<svg
  xmlns:svg="http://www.w3.org/2000/svg"
  xmlns="http://www.w3.org/2000/svg"
  xmlns:xlink="http://www.w3.org/1999/xlink"
  version="1.1"
  width="297.0022mm" height="210.0072mm" viewBox="0.0000 0.0000 297.0022 210.0072">
<title>SVG Image created as chicken_coop-F_Mask.svg date 2026/02/20 19:48:41 </title>
  <desc>Image generated by PCBNEW </desc>
<g style="fill:#000000; fill-opacity:1.0000;stroke:#000000; stroke-opacity:1.0000;
stroke-linecap:round; stroke-linejoin:round;"
 transform="translate(0 0) scale(1 1)">
</g>
<g style="fill:#000000; fill-opacity:1.0000; stroke:none;">
<circle cx="148.5900" cy="72.3900" r="0.8000" /> 
</g>
<g style="fill:#000000; fill-opacity:1.0000; stroke:none;">
<circle cx="140.9700" cy="72.3900" r="0.8000" /> 
<circle cx="195.5800" cy="73.6600" r="1.6000" /> 
</g>
<g style="fill:none; 
stroke:#000000; stroke-width:1.6264; stroke-opacity:1; 
stroke-linecap:round; stroke-linejoin:round;">
<path d="M165.6588 83.8200
L167.0812 83.8200
" />
<path d="M165.6588 86.3600
L167.0812 86.3600
" />
<path d="M165.6588 88.9000
L167.0812 88.9000
" />
<path d="M165.6588 91.4400
L167.0812 91.4400
" />
<path d="M165.6588 93.9800
L167.0812 93.9800
" />
<path d="M165.6588 96.5200
L167.0812 96.5200
" />
<path d="M165.6588 99.0600
L167.0812 99.0600
" />
<path d="M165.6588 101.6000
L167.0812 101.6000
" />
<path d="M188.5188 101.6000
L189.9412 101.6000
" />
<path d="M188.5188 99.0600
L189.9412 99.0600
" />
<path d="M188.5188 96.5200
L189.9412 96.5200
" />
<path d="M188.5188 93.9800
L189.9412 93.9800
" />
<path d="M188.5188 91.4400
L189.9412 91.4400
" />
<path d="M188.5188 88.9000
L189.9412 88.9000
" />
<path d="M188.5188 86.3600
L189.9412 86.3600
" />
<path d="M188.5188 83.8200
L189.9412 83.8200
" />
<path style="fill:#000000; fill-opacity:1.0000; stroke:none;fill-rule:evenodd;"
d="M 157.2100,90.9977
155.2100,90.9977
155.2100,88.9977
157.2100,88.9977
Z" /> 
</g>
<g style="fill:#000000; fill-opacity:1.0000; stroke:none;">
<circle cx="156.2100" cy="84.9977" r="1.0000" /> 
<path style="fill:#000000; fill-opacity:1.0000; stroke:none;fill-rule:evenodd;"
d="M 155.3600,78.3200
155.3600,76.6200
157.0600,76.6200
157.0600,78.3200
Z" /> 
</g>
<g style="fill:#000000; fill-opacity:1.0000; stroke:none;">
<circle cx="129.1590" cy="91.9480" r="0.7620" /> 
</g>
<g style="fill:#000000; fill-opacity:1.0000; stroke:none;">
<circle cx="129.1590" cy="89.4080" r="0.7620" /> 
</g>
<g style="fill:#000000; fill-opacity:1.0000; stroke:none;">
<circle cx="129.1590" cy="81.2800" r="0.7620" /> 
</g>
<g style="fill:#000000; fill-opacity:1.0000; stroke:none;">
<circle cx="129.1590" cy="78.7400" r="0.7620" /> 
</g>
<g style="fill:#000000; fill-opacity:1.0000; stroke:none;">
<circle cx="147.7010" cy="78.7400" r="0.7620" /> 
</g>
<g style="fill:#000000; fill-opacity:1.0000; stroke:none;">
<circle cx="147.7010" cy="81.2800" r="0.7620" /> 
</g>
<g style="fill:#000000; fill-opacity:1.0000; stroke:none;">
<circle cx="147.7010" cy="89.4080" r="0.7620" /> 
</g>
<g style="fill:#000000; fill-opacity:1.0000; stroke:none;">
<circle cx="147.7010" cy="92.0750" r="0.7620" /> 
</g>
<g style="fill:#000000; fill-opacity:1.0000; stroke:none;">
<circle cx="116.8400" cy="119.3800" r="1.6000" /> 
</g>
<g style="fill:#000000; fill-opacity:1.0000; stroke:none;">
<circle cx="135.8900" cy="72.3900" r="0.8000" /> 
</g>
<g style="fill:#000000; fill-opacity:1.0000; stroke:none;">
<circle cx="128.2700" cy="72.3900" r="0.8000" /> 
<path style="fill:#000000; fill-opacity:1.0000; stroke:none;fill-rule:evenodd;"
d="M 115.5400,87.8400
118.1400,87.8400
118.1400,90.4400
115.5400,90.4400
Z" /> 
<circle cx="116.8400" cy="94.1400" r="1.3000" /> 
</g>
<g style="fill:#000000; fill-opacity:1.0000; stroke:none;">
<circle cx="116.8400" cy="99.1400" r="1.3000" /> 
</g>
<g style="fill:#000000; fill-opacity:1.0000; stroke:none;">
<circle cx="116.8400" cy="104.1400" r="1.3000" /> 
<path style="fill:#000000; fill-opacity:1.0000; stroke:none;fill-rule:evenodd;"
d="M 196.0000,93.5600
196.0000,91.8600
197.7000,91.8600
197.7000,93.5600
Z" /> 
</g>
<g style="fill:#000000; fill-opacity:1.0000; stroke:none;">
<circle cx="196.8500" cy="95.2500" r="0.8500" /> 
<circle cx="196.8500" cy="97.7900" r="0.8500" /> 
<circle cx="196.8500" cy="100.3300" r="0.8500" /> 
<circle cx="116.8400" cy="73.6600" r="1.6000" /> 
<path style="fill:#000000; fill-opacity:1.0000; stroke:none;fill-rule:evenodd;"
d="M 197.7000,82.9700
197.7000,84.6700
196.0000,84.6700
196.0000,82.9700
Z" /> 
</g>
<g style="fill:#000000; fill-opacity:1.0000; stroke:none;">
<circle cx="196.8500" cy="81.2800" r="0.8500" /> 
<circle cx="148.5900" cy="106.6800" r="0.7620" /> 
</g>
<g style="fill:#000000; fill-opacity:1.0000; stroke:none;">
<circle cx="148.5900" cy="104.1400" r="0.7620" /> 
</g>
<g style="fill:#000000; fill-opacity:1.0000; stroke:none;">
<circle cx="148.5900" cy="109.2200" r="0.7620" /> 
</g>
<g style="fill:#000000; fill-opacity:1.0000; stroke:none;">
<circle cx="148.5900" cy="111.7600" r="0.7620" /> 
</g>
<g style="fill:#000000; fill-opacity:1.0000; stroke:none;">
<circle cx="130.8100" cy="114.0460" r="1.5000" /> 
</g>
<g style="fill:#000000; fill-opacity:1.0000; stroke:none;">
<circle cx="130.8100" cy="110.4900" r="1.5000" /> 
</g>
<g style="fill:#000000; fill-opacity:1.0000; stroke:none;">
<circle cx="130.8100" cy="105.2830" r="1.5000" /> 
</g>
<g style="fill:#000000; fill-opacity:1.0000; stroke:none;">
<circle cx="130.8100" cy="101.7900" r="1.5000" /> 
</g>
<g style="fill:#000000; fill-opacity:1.0000; stroke:none;">
<circle cx="153.7100" cy="72.3900" r="0.8000" /> 
</g>
<g style="fill:#000000; fill-opacity:1.0000; stroke:none;">
<circle cx="158.7100" cy="72.3900" r="0.8000" /> 
</g>
<g style="fill:#000000; fill-opacity:1.0000; stroke:none;">
<circle cx="195.5800" cy="119.3800" r="1.6000" /> 
</g> 
</svg>
